<?xml version="1.0" encoding="UTF-8"?>
<!-- Converted by misc2svg (http://www.network-science.de/tools/misc2svg/) -->
<svg xmlns="http://www.w3.org/2000/svg" xmlns:xlink="http://www.w3.org/1999/xlink" width="290pt" height="120pt" viewBox="0 0 290 120" version="1.1">
<defs>
<clipPath id="clip1">
  <path d="M 0 120 L 290 120 L 290 0 L 0 0 L 0 120 Z M 0 120 "/>
</clipPath>
</defs>
<g id="misc2svg">
<g clip-path="url(#clip1)" clip-rule="nonzero">
<path style=" stroke:none;fill-rule:nonzero;fill:rgb(0%,0%,0%);fill-opacity:1;" d="M 5.902344 73.25 L 5.902344 51.765625 L 8.753906 51.765625 L 8.753906 60.59375 L 19.90625 60.59375 L 19.90625 51.765625 L 22.757812 51.765625 L 22.757812 73.25 L 19.90625 73.25 L 19.90625 63.132812 L 8.753906 63.132812 L 8.753906 73.25 L 5.902344 73.25 Z M 5.902344 73.25 "/>
<path style=" stroke:none;fill-rule:nonzero;fill:rgb(0%,0%,0%);fill-opacity:1;" d="M 62.125 61.4375 L 60.875 63.5625 L 25.5 63.5625 L 25.5 61.4375 L 62.125 61.4375 Z M 62.125 61.4375 "/>
<path style=" stroke:none;fill-rule:nonzero;fill:rgb(0%,0%,0%);fill-opacity:1;" d="M 77.445312 20.03125 C 77.445312 16.476562 78.402344 13.695312 80.316406 11.671875 C 82.230469 9.65625 84.703125 8.644531 87.738281 8.644531 C 89.714844 8.644531 91.5 9.125 93.089844 10.070312 C 94.691406 11.007812 95.90625 12.332031 96.742188 14.035156 C 97.570312 15.730469 97.992188 17.648438 97.992188 19.796875 C 97.992188 21.976562 97.546875 23.917969 96.664062 25.636719 C 95.789062 27.355469 94.546875 28.660156 92.933594 29.542969 C 91.316406 30.429688 89.578125 30.871094 87.71875 30.871094 C 85.695312 30.871094 83.890625 30.382812 82.289062 29.40625 C 80.695312 28.429688 79.496094 27.097656 78.675781 25.402344 C 77.855469 23.710938 77.445312 21.921875 77.445312 20.03125 Z M 80.375 20.089844 C 80.375 22.667969 81.070312 24.710938 82.464844 26.203125 C 83.855469 27.6875 85.601562 28.429688 87.699219 28.429688 C 89.847656 28.429688 91.609375 27.683594 92.992188 26.183594 C 94.367188 24.675781 95.0625 22.539062 95.0625 19.777344 C 95.0625 18.035156 94.757812 16.511719 94.164062 15.207031 C 93.578125 13.894531 92.710938 12.878906 91.566406 12.160156 C 90.433594 11.445312 89.164062 11.085938 87.757812 11.085938 C 85.734375 11.085938 84 11.78125 82.542969 13.15625 C 81.097656 14.539062 80.375 16.847656 80.375 20.089844 Z M 80.375 20.089844 "/>
<path style=" stroke:none;fill-rule:nonzero;fill:rgb(0%,0%,0%);fill-opacity:1;" d="M 75.4375 28.75 L 77.3125 29.8125 L 58.125 63.0625 L 56.25 61.9375 L 75.4375 28.75 Z M 75.4375 28.75 "/>
<path style=" stroke:none;fill-rule:nonzero;fill:rgb(0%,0%,0%);fill-opacity:1;" d="M 81.875 32.4375 L 83.75 33.5 L 64.5625 66.75 L 62.6875 65.6875 L 81.875 32.4375 Z M 81.875 32.4375 "/>
<path style=" stroke:none;fill-rule:nonzero;fill:rgb(0%,0%,0%);fill-opacity:1;" d="M 77.445312 105.90625 C 77.445312 102.351562 78.402344 99.570312 80.316406 97.546875 C 82.230469 95.53125 84.703125 94.519531 87.738281 94.519531 C 89.714844 94.519531 91.5 95 93.089844 95.945312 C 94.691406 96.882812 95.90625 98.207031 96.742188 99.910156 C 97.570312 101.605469 97.992188 103.523438 97.992188 105.671875 C 97.992188 107.851562 97.546875 109.792969 96.664062 111.511719 C 95.789062 113.230469 94.546875 114.535156 92.933594 115.417969 C 91.316406 116.308594 89.578125 116.746094 87.71875 116.746094 C 85.695312 116.746094 83.890625 116.257812 82.289062 115.28125 C 80.695312 114.304688 79.496094 112.972656 78.675781 111.277344 C 77.855469 109.589844 77.445312 107.796875 77.445312 105.90625 Z M 80.375 105.964844 C 80.375 108.542969 81.070312 110.585938 82.464844 112.078125 C 83.855469 113.5625 85.601562 114.304688 87.699219 114.304688 C 89.847656 114.304688 91.609375 113.558594 92.992188 112.058594 C 94.367188 110.550781 95.0625 108.417969 95.0625 105.652344 C 95.0625 103.910156 94.757812 102.386719 94.164062 101.082031 C 93.578125 99.769531 92.710938 98.753906 91.566406 98.035156 C 90.433594 97.324219 89.164062 96.960938 87.757812 96.960938 C 85.734375 96.960938 84 97.65625 82.542969 99.03125 C 81.097656 100.414062 80.375 102.722656 80.375 105.964844 Z M 80.375 105.964844 "/>
<path style=" stroke:none;fill-rule:nonzero;fill:rgb(0%,0%,0%);fill-opacity:1;" d="M 80.6875 93.625 L 78.8125 94.6875 L 60.875 63.5625 L 62.125 61.4375 L 80.6875 93.625 Z M 80.6875 93.625 "/>
<path style=" stroke:none;fill-rule:nonzero;fill:rgb(0%,0%,0%);fill-opacity:1;" d="M 129.902344 116.1875 L 129.902344 94.703125 L 132.753906 94.703125 L 132.753906 103.53125 L 143.90625 103.53125 L 143.90625 94.703125 L 146.757812 94.703125 L 146.757812 116.1875 L 143.90625 116.1875 L 143.90625 106.070312 L 132.753906 106.070312 L 132.753906 116.1875 L 129.902344 116.1875 Z M 129.902344 116.1875 "/>
<path style=" stroke:none;fill-rule:nonzero;fill:rgb(0%,0%,0%);fill-opacity:1;" d="M 100.8125 106.5 L 127.0625 106.5 L 127.0625 104.375 L 100.8125 104.375 L 100.8125 106.5 Z M 100.8125 106.5 "/>
<path style=" stroke:none;fill-rule:nonzero;fill:rgb(0%,0%,0%);fill-opacity:1;" d="M 267.527344 72 L 267.527344 50.515625 L 270.378906 50.515625 L 270.378906 59.34375 L 281.53125 59.34375 L 281.53125 50.515625 L 284.382812 50.515625 L 284.382812 72 L 281.53125 72 L 281.53125 61.882812 L 270.378906 61.882812 L 270.378906 72 L 267.527344 72 Z M 267.527344 72 "/>
<path style=" stroke:none;fill-rule:nonzero;fill:rgb(0%,0%,0%);fill-opacity:1;" d="M 223.3125 62.3125 L 224.5625 60.1875 L 264.6875 60.1875 L 264.6875 62.3125 L 223.3125 62.3125 Z M 223.3125 62.3125 "/>
<path style=" stroke:none;fill-rule:nonzero;fill:rgb(0%,0%,0%);fill-opacity:1;" d="M 190.320312 104.65625 C 190.320312 101.101562 191.277344 98.320312 193.191406 96.296875 C 195.105469 94.28125 197.578125 93.269531 200.613281 93.269531 C 202.589844 93.269531 204.375 93.75 205.964844 94.695312 C 207.566406 95.632812 208.78125 96.957031 209.617188 98.660156 C 210.445312 100.355469 210.867188 102.273438 210.867188 104.421875 C 210.867188 106.601562 210.421875 108.542969 209.539062 110.261719 C 208.664062 111.980469 207.421875 113.285156 205.808594 114.167969 C 204.191406 115.058594 202.453125 115.496094 200.59375 115.496094 C 198.570312 115.496094 196.765625 115.007812 195.164062 114.03125 C 193.570312 113.054688 192.371094 111.722656 191.550781 110.027344 C 190.730469 108.339844 190.320312 106.546875 190.320312 104.65625 Z M 193.25 104.714844 C 193.25 107.292969 193.945312 109.335938 195.339844 110.828125 C 196.730469 112.3125 198.476562 113.054688 200.574219 113.054688 C 202.722656 113.054688 204.484375 112.308594 205.867188 110.808594 C 207.242188 109.300781 207.9375 107.167969 207.9375 104.402344 C 207.9375 102.660156 207.632812 101.136719 207.039062 99.832031 C 206.453125 98.519531 205.585938 97.503906 204.441406 96.785156 C 203.308594 96.074219 202.039062 95.710938 200.632812 95.710938 C 198.609375 95.710938 196.875 96.40625 195.417969 97.78125 C 193.972656 99.164062 193.25 101.472656 193.25 104.714844 Z M 193.25 104.714844 "/>
<path style=" stroke:none;fill-rule:nonzero;fill:rgb(0%,0%,0%);fill-opacity:1;" d="M 210.5 94.0625 L 208.6875 93 L 227.3125 60.6875 L 229.1875 61.8125 L 210.5 94.0625 Z M 210.5 94.0625 "/>
<path style=" stroke:none;fill-rule:nonzero;fill:rgb(0%,0%,0%);fill-opacity:1;" d="M 204.0625 90.375 L 202.25 89.3125 L 220.875 57 L 222.6875 58.0625 L 204.0625 90.375 Z M 204.0625 90.375 "/>
<path style=" stroke:none;fill-rule:nonzero;fill:rgb(0%,0%,0%);fill-opacity:1;" d="M 190.320312 18.78125 C 190.320312 15.226562 191.277344 12.445312 193.191406 10.421875 C 195.105469 8.40625 197.578125 7.394531 200.613281 7.394531 C 202.589844 7.394531 204.375 7.875 205.964844 8.820312 C 207.566406 9.757812 208.78125 11.082031 209.617188 12.785156 C 210.445312 14.480469 210.867188 16.398438 210.867188 18.546875 C 210.867188 20.726562 210.421875 22.667969 209.539062 24.386719 C 208.664062 26.105469 207.421875 27.410156 205.808594 28.292969 C 204.191406 29.179688 202.453125 29.621094 200.59375 29.621094 C 198.570312 29.621094 196.765625 29.132812 195.164062 28.15625 C 193.570312 27.179688 192.371094 25.847656 191.550781 24.152344 C 190.730469 22.460938 190.320312 20.671875 190.320312 18.78125 Z M 193.25 18.839844 C 193.25 21.417969 193.945312 23.460938 195.339844 24.953125 C 196.730469 26.4375 198.476562 27.179688 200.574219 27.179688 C 202.722656 27.179688 204.484375 26.433594 205.867188 24.933594 C 207.242188 23.425781 207.9375 21.289062 207.9375 18.527344 C 207.9375 16.785156 207.632812 15.261719 207.039062 13.957031 C 206.453125 12.644531 205.585938 11.628906 204.441406 10.910156 C 203.308594 10.195312 202.039062 9.835938 200.632812 9.835938 C 198.609375 9.835938 196.875 10.53125 195.417969 11.90625 C 193.972656 13.289062 193.25 15.597656 193.25 18.839844 Z M 193.25 18.839844 "/>
<path style=" stroke:none;fill-rule:nonzero;fill:rgb(0%,0%,0%);fill-opacity:1;" d="M 205.625 31.6875 L 207.5 30.625 L 224.5625 60.1875 L 223.3125 62.3125 L 205.625 31.6875 Z M 205.625 31.6875 "/>
<path style=" stroke:none;fill-rule:nonzero;fill:rgb(0%,0%,0%);fill-opacity:1;" d="M 143.527344 29.0625 L 143.527344 7.578125 L 146.378906 7.578125 L 146.378906 16.40625 L 157.53125 16.40625 L 157.53125 7.578125 L 160.382812 7.578125 L 160.382812 29.0625 L 157.53125 29.0625 L 157.53125 18.945312 L 146.378906 18.945312 L 146.378906 29.0625 L 143.527344 29.0625 Z M 143.527344 29.0625 "/>
<path style=" stroke:none;fill-rule:nonzero;fill:rgb(0%,0%,0%);fill-opacity:1;" d="M 163.1875 19.375 L 187.5 19.375 L 187.5 17.25 L 163.1875 17.25 L 163.1875 19.375 Z M 163.1875 19.375 "/>
<path style=" stroke:none;fill-rule:nonzero;fill:rgb(0%,50.196078%,25.098039%);fill-opacity:1;" d="M 130.5625 20.625 L 135.875 20.625 L 135.875 18.5 L 130.5625 18.5 L 130.5625 20.625 Z M 130.5625 20.625 "/>
<path style=" stroke:none;fill-rule:nonzero;fill:rgb(0%,50.196078%,25.098039%);fill-opacity:1;" d="M 120.625 20.625 L 125.9375 20.625 L 125.9375 18.5 L 120.625 18.5 L 120.625 20.625 Z M 120.625 20.625 "/>
<path style=" stroke:none;fill-rule:nonzero;fill:rgb(0%,50.196078%,25.098039%);fill-opacity:1;" d="M 110.75 20.625 L 116.0625 20.625 L 116.0625 18.5 L 110.75 18.5 L 110.75 20.625 Z M 110.75 20.625 "/>
<path style=" stroke:none;fill-rule:nonzero;fill:rgb(0%,50.196078%,25.098039%);fill-opacity:1;" d="M 100.8125 20.625 L 106.125 20.625 L 106.125 18.5 L 100.8125 18.5 L 100.8125 20.625 Z M 100.8125 20.625 "/>
<path style=" stroke:none;fill-rule:nonzero;fill:rgb(0%,50.196078%,25.098039%);fill-opacity:1;" d="M 187.4375 103.125 L 187.5625 105.25 L 182.25 105.4375 L 182.125 103.3125 L 187.4375 103.125 Z M 187.4375 103.125 "/>
<path style=" stroke:none;fill-rule:nonzero;fill:rgb(0%,50.196078%,25.098039%);fill-opacity:1;" d="M 176.5625 103.5 L 176.625 105.625 L 171.3125 105.8125 L 171.25 103.6875 L 176.5625 103.5 Z M 176.5625 103.5 "/>
<path style=" stroke:none;fill-rule:nonzero;fill:rgb(0%,50.196078%,25.098039%);fill-opacity:1;" d="M 165.6875 103.875 L 165.75 106 L 160.4375 106.1875 L 160.375 104.0625 L 165.6875 103.875 Z M 165.6875 103.875 "/>
<path style=" stroke:none;fill-rule:nonzero;fill:rgb(0%,50.196078%,25.098039%);fill-opacity:1;" d="M 154.8125 104.25 L 154.875 106.375 L 149.5625 106.5 L 149.5 104.375 L 154.8125 104.25 Z M 154.8125 104.25 "/>
</g>
</g>
</svg>
