<!DOCTYPE svg PUBLIC "-//W3C//DTD SVG 20010904//EN" "http://www.w3.org/TR/2001/REC-SVG-20010904/DTD/svg10.dtd">
<svg version="1.0" xmlns="http://www.w3.org/2000/svg" width="55px" height="34px" viewBox="0 0 550 340" preserveAspectRatio="xMidYMid meet">
<g id="layer101" fill="#000000" stroke="none">
 <path d="M481 289 c-1 -32 2 -36 22 -35 17 1 22 7 23 31 1 30 1 30 -3 2 -5 -35 -26 -30 -34 9 -6 28 -7 28 -8 -7z"/>
 <path d="M80 244 c0 -40 -2 -45 -17 -39 -39 15 -46 15 -15 -1 l32 -18 0 -83 c0 -73 2 -83 18 -82 10 0 12 3 5 6 -9 3 -13 29 -13 79 l0 75 30 -16 c17 -9 30 -13 30 -11 0 3 -13 12 -30 21 -26 14 -30 21 -30 59 0 26 5 46 13 49 7 3 5 6 -5 6 -15 1 -18 -8 -18 -45z"/>
 <path d="M438 283 c7 -3 12 -23 12 -49 l0 -44 -37 19 -38 19 -57 -29 c-32 -16 -58 -32 -58 -34 0 -3 26 8 58 24 l57 29 38 -19 37 -19 0 -74 c0 -50 -4 -76 -12 -79 -8 -3 -6 -6 5 -6 15 -1 17 9 17 74 0 41 3 75 6 75 3 0 15 -5 27 -11 21 -10 21 -10 3 5 -11 9 -23 16 -28 16 -4 0 -8 25 -8 55 0 46 -3 55 -17 54 -11 0 -13 -3 -5 -6z"/>
 <path d="M181 166 c-31 -37 9 -103 47 -80 36 23 23 94 -18 94 -10 0 -23 -6 -29 -14z m54 -36 c0 -31 -3 -35 -25 -35 -19 0 -26 6 -28 23 -5 36 5 54 30 50 19 -2 23 -9 23 -38z"/>
 </g>
<g id="layer102" fill="#ffffff" stroke="none">
 <path d="M0 170 l0 -170 275 0 275 0 0 170 0 170 -275 0 -275 0 0 -170z m507 93 c7 -3 13 8 16 24 4 28 4 28 3 -2 -1 -24 -6 -30 -23 -31 -20 -1 -23 3 -22 35 1 35 2 35 8 7 3 -16 11 -31 18 -33z m-404 20 c-8 -3 -13 -23 -13 -49 0 -38 4 -45 30 -59 17 -9 30 -18 30 -21 0 -2 -13 2 -30 11 l-30 16 0 -75 c0 -50 4 -76 13 -79 7 -3 5 -6 -5 -6 -16 -1 -18 9 -18 82 l0 83 -32 18 c-31 16 -24 16 15 1 15 -6 17 -1 17 39 0 37 3 46 18 45 10 0 12 -3 5 -6z m357 -48 c0 -30 4 -55 8 -55 5 0 17 -7 28 -16 18 -15 18 -15 -3 -5 -12 6 -24 11 -27 11 -3 0 -6 -34 -6 -75 0 -65 -2 -75 -17 -74 -11 0 -13 3 -5 6 8 3 12 29 12 79 l0 74 -37 19 -38 19 -57 -29 c-32 -16 -58 -27 -58 -24 0 2 26 18 58 34 l57 29 38 -19 37 -19 0 44 c0 26 -5 46 -12 49 -8 3 -6 6 5 6 14 1 17 -8 17 -54z m-221 -69 c31 -37 -9 -103 -46 -80 -37 23 -24 94 17 94 10 0 23 -6 29 -14z"/>
 <path d="M184 156 c-3 -8 -4 -25 -2 -38 2 -17 9 -23 28 -23 22 0 25 4 25 35 0 29 -4 36 -23 38 -13 2 -24 -3 -28 -12z"/>
 </g>

</svg>