<?xml version="1.0" encoding="utf-8"?>
<!-- Generator: Adobe Illustrator 12.0.0, SVG Export Plug-In . SVG Version: 6.00 Build 51448)  -->
<!DOCTYPE svg PUBLIC "-//W3C//DTD SVG 1.1//EN" "http://www.w3.org/Graphics/SVG/1.1/DTD/svg11.dtd" [
	<!ENTITY ns_svg "http://www.w3.org/2000/svg">
	<!ENTITY ns_xlink "http://www.w3.org/1999/xlink">
]>
<svg  version="1.1" id="Layer_1" xmlns="&ns_svg;" xmlns:xlink="&ns_xlink;" width="300" height="340" viewBox="0 0 300 340"
	 overflow="visible" enable-background="new 0 0 300 340" xml:space="preserve">
<g>
	<g>
		<path d="M97.288,138.943l4.304,1.083c-0.9,3.527-2.521,6.216-4.86,8.068c-2.339,1.852-5.199,2.778-8.579,2.778
			c-3.498,0-6.343-0.712-8.535-2.135c-2.192-1.424-3.859-3.485-5.003-6.185c-1.144-2.7-1.716-5.599-1.716-8.698
			c0-3.377,0.646-6.325,1.937-8.84c1.291-2.515,3.129-4.425,5.513-5.731c2.384-1.306,5.008-1.959,7.871-1.959
			c3.247,0,5.978,0.827,8.192,2.479c2.214,1.653,3.756,3.977,4.627,6.972l-4.23,0.996c-0.753-2.359-1.847-4.078-3.279-5.154
			c-1.433-1.076-3.235-1.615-5.406-1.615c-2.496,0-4.583,0.598-6.258,1.792c-1.676,1.194-2.854,2.798-3.534,4.811
			s-1.019,4.088-1.019,6.227c0,2.757,0.402,5.165,1.207,7.222c0.805,2.058,2.055,3.595,3.753,4.613
			c1.698,1.017,3.536,1.526,5.515,1.526c2.406,0,4.443-0.693,6.111-2.079C95.568,143.729,96.698,141.671,97.288,138.943z"/>
	</g>
	<g>
		<path d="M159.674,103.042l4.305,1.083c-0.901,3.526-2.521,6.216-4.86,8.067c-2.339,1.853-5.198,2.778-8.578,2.778
			c-3.499,0-6.344-0.712-8.535-2.135c-2.192-1.424-3.86-3.485-5.003-6.185s-1.716-5.599-1.716-8.697c0-3.378,0.646-6.324,1.937-8.84
			c1.292-2.515,3.129-4.426,5.513-5.731s5.008-1.959,7.871-1.959c3.248,0,5.979,0.827,8.193,2.479
			c2.213,1.653,3.755,3.977,4.627,6.973l-4.23,0.996c-0.753-2.359-1.847-4.078-3.279-5.154c-1.433-1.076-3.234-1.615-5.405-1.615
			c-2.497,0-4.583,0.598-6.259,1.792c-1.676,1.195-2.854,2.799-3.534,4.812c-0.679,2.013-1.019,4.088-1.019,6.227
			c0,2.757,0.402,5.165,1.207,7.222c0.805,2.058,2.055,3.595,3.753,4.612c1.698,1.017,3.536,1.526,5.514,1.526
			c2.406,0,4.443-0.692,6.111-2.079C157.956,107.827,159.083,105.77,159.674,103.042z"/>
	</g>
	<g>
		<path d="M222.65,138.943l4.303,1.083c-0.9,3.527-2.52,6.216-4.858,8.068c-2.34,1.852-5.2,2.778-8.579,2.778
			c-3.499,0-6.344-0.712-8.535-2.135c-2.192-1.424-3.858-3.485-5.003-6.185c-1.144-2.7-1.716-5.599-1.716-8.698
			c0-3.377,0.646-6.325,1.937-8.84c1.292-2.515,3.13-4.425,5.514-5.731c2.384-1.306,5.007-1.959,7.87-1.959
			c3.248,0,5.979,0.827,8.192,2.479c2.215,1.653,3.756,3.977,4.627,6.972l-4.23,0.996c-0.753-2.359-1.846-4.078-3.277-5.154
			c-1.434-1.076-3.235-1.615-5.407-1.615c-2.495,0-4.581,0.598-6.257,1.792c-1.678,1.194-2.854,2.798-3.535,4.811
			c-0.678,2.013-1.019,4.088-1.019,6.227c0,2.757,0.402,5.165,1.207,7.222c0.805,2.058,2.056,3.595,3.753,4.613
			c1.698,1.017,3.536,1.526,5.515,1.526c2.405,0,4.443-0.693,6.111-2.079S222.058,141.671,222.65,138.943z"/>
	</g>
	<g>
		<path d="M97.288,211.335l4.304,1.083c-0.9,3.526-2.521,6.216-4.86,8.068c-2.339,1.851-5.199,2.777-8.579,2.777
			c-3.498,0-6.343-0.712-8.535-2.136c-2.192-1.423-3.859-3.484-5.003-6.184c-1.144-2.7-1.716-5.6-1.716-8.698
			c0-3.378,0.646-6.324,1.937-8.84c1.291-2.516,3.129-4.426,5.513-5.731s5.008-1.959,7.871-1.959c3.247,0,5.978,0.827,8.192,2.479
			c2.214,1.653,3.756,3.978,4.627,6.974l-4.23,0.994c-0.753-2.358-1.847-4.077-3.279-5.153c-1.433-1.077-3.235-1.615-5.406-1.615
			c-2.496,0-4.583,0.598-6.258,1.792c-1.676,1.194-2.854,2.798-3.534,4.812c-0.679,2.013-1.019,4.089-1.019,6.227
			c0,2.757,0.402,5.165,1.207,7.222c0.805,2.058,2.055,3.596,3.753,4.613c1.698,1.017,3.536,1.525,5.515,1.525
			c2.406,0,4.443-0.692,6.111-2.078C95.568,216.12,96.698,214.062,97.288,211.335z"/>
	</g>
	<g>
		<path d="M222.65,210.746l4.303,1.083c-0.9,3.526-2.52,6.217-4.858,8.068c-2.34,1.852-5.2,2.777-8.579,2.777
			c-3.499,0-6.344-0.711-8.535-2.135c-2.192-1.423-3.858-3.484-5.003-6.186c-1.144-2.699-1.716-5.599-1.716-8.696
			c0-3.378,0.646-6.324,1.937-8.84c1.292-2.516,3.13-4.426,5.514-5.732c2.384-1.305,5.007-1.958,7.87-1.958
			c3.248,0,5.979,0.825,8.192,2.479c2.215,1.653,3.756,3.977,4.627,6.973l-4.23,0.995c-0.753-2.359-1.846-4.077-3.277-5.153
			c-1.434-1.077-3.235-1.615-5.407-1.615c-2.495,0-4.581,0.598-6.257,1.791c-1.678,1.195-2.854,2.799-3.535,4.812
			c-0.678,2.012-1.019,4.088-1.019,6.226c0,2.758,0.402,5.166,1.207,7.222c0.805,2.058,2.056,3.597,3.753,4.613
			c1.698,1.018,3.536,1.525,5.515,1.525c2.405,0,4.443-0.691,6.111-2.079C220.929,215.532,222.058,213.475,222.65,210.746z"/>
	</g>
	<g>
		<path d="M159.674,247.235l4.305,1.085c-0.901,3.525-2.521,6.215-4.86,8.067c-2.339,1.852-5.198,2.778-8.578,2.778
			c-3.499,0-6.344-0.713-8.535-2.137c-2.192-1.423-3.86-3.484-5.003-6.185c-1.144-2.699-1.716-5.598-1.716-8.697
			c0-3.378,0.646-6.324,1.937-8.84c1.292-2.515,3.129-4.426,5.513-5.73c2.384-1.307,5.008-1.96,7.871-1.96
			c3.248,0,5.979,0.828,8.193,2.48c2.213,1.652,3.755,3.976,4.627,6.973l-4.23,0.995c-0.753-2.359-1.847-4.078-3.279-5.154
			s-3.234-1.615-5.405-1.615c-2.497,0-4.583,0.598-6.259,1.793c-1.676,1.193-2.854,2.798-3.534,4.811
			c-0.679,2.014-1.019,4.089-1.019,6.227c0,2.757,0.402,5.165,1.207,7.223s2.055,3.595,3.753,4.611
			c1.698,1.018,3.536,1.527,5.514,1.527c2.406,0,4.443-0.693,6.111-2.079C157.956,252.021,159.083,249.964,159.674,247.235z"/>
	</g>
	<rect x="200.431" y="177.541" width="2.796" height="6.915"/>
	<g>
		<rect x="86.253" y="155.323" width="2.796" height="29.133"/>
		<rect x="211.026" y="155.323" width="2.796" height="29.133"/>
		<g>
			<rect x="200.431" y="155.323" width="2.796" height="6.915"/>
			<rect x="200.431" y="166.432" width="2.796" height="6.915"/>
			<rect x="200.431" y="177.541" width="2.796" height="6.915"/>
		</g>
		<g>
			<rect x="96.847" y="155.323" width="2.795" height="6.915"/>
			<rect x="96.847" y="166.432" width="2.795" height="6.915"/>
			<rect x="96.847" y="177.541" width="2.795" height="6.915"/>
		</g>
		<rect x="148.934" y="263.321" width="2.795" height="29.134"/>
		<rect x="148.934" y="47.913" width="2.795" height="29.133"/>
	</g>
	<g>
		<path d="M12.5,258.614v-32.445h4.304v13.317h16.847v-13.317h4.304v32.445h-4.304v-15.303H16.804v15.303H12.5z"/>
	</g>
	<g>
		<path d="M12.5,114.419V81.975h4.304v13.316h16.847V81.975h4.304v32.444h-4.304V99.116H16.804v15.303H12.5z"/>
	</g>
	<g>
		<g>
			<path d="M262.045,258.614v-32.445h4.304v13.317h16.847v-13.317h4.305v32.445h-4.305v-15.303h-16.847v15.303H262.045z"/>
		</g>
		<g>
			<path d="M262.045,114.419V81.975h4.304v13.316h16.847V81.975h4.305v32.444h-4.305V99.116h-16.847v15.303H262.045z"/>
		</g>
	</g>
	<g>
		<path d="M137.862,330.416v-32.442h4.303v13.314h16.847v-13.314h4.304v32.442h-4.304v-15.302h-16.847v15.302H137.862z"/>
	</g>
	<g>
		<path d="M137.862,42.027V9.583h4.304v13.316h16.847V9.583h4.304v32.444h-4.304V26.725h-16.847v15.302H137.862z"/>
	</g>
	<g>
		
			<rect x="179.578" y="209.792" transform="matrix(-0.4999 -0.8661 0.8661 -0.4999 77.142 493.2606)" width="2.795" height="29.134"/>
		<rect x="117.192" y="101.736" transform="matrix(-0.5 -0.866 0.866 -0.5 77.1644 277.1558)" width="2.795" height="29.133"/>
		<g>
			
				<rect x="112.868" y="127.574" transform="matrix(-0.5001 -0.866 0.866 -0.5001 57.9332 295.5093)" width="2.796" height="6.916"/>
			
				<rect x="122.488" y="122.02" transform="matrix(-0.4999 -0.8661 0.8661 -0.4999 77.1345 295.4971)" width="2.796" height="6.915"/>
			<rect x="132.109" y="116.465" transform="matrix(-0.5001 -0.866 0.866 -0.5001 96.417 295.5078)" width="2.796" height="6.915"/>
		</g>
		<g>
			
				<rect x="164.66" y="217.281" transform="matrix(-0.5002 -0.8659 0.8659 -0.5002 57.9782 474.9435)" width="2.796" height="6.916"/>
			
				<rect x="174.28" y="211.726" transform="matrix(-0.4998 -0.8662 0.8662 -0.4998 77.0973 474.8932)" width="2.796" height="6.916"/>
			
				<rect x="183.901" y="206.173" transform="matrix(-0.4995 -0.8663 0.8663 -0.4995 96.257 474.8702)" width="2.796" height="6.915"/>
		</g>
		
			<rect x="241.768" y="101.51" transform="matrix(-0.4997 -0.8662 0.8662 -0.4997 264.1203 384.7104)" width="2.795" height="29.133"/>
		
			<rect x="55.218" y="209.215" transform="matrix(-0.4999 -0.8661 0.8661 -0.4999 -108.8896 384.6895)" width="2.795" height="29.132"/>
	</g>
	<g>
		<rect x="180.088" y="101.736" transform="matrix(-0.5 0.866 -0.866 -0.5 372.9503 17.2853)" width="2.795" height="29.134"/>
		
			<rect x="117.701" y="209.792" transform="matrix(-0.4999 0.8661 -0.8661 -0.4999 372.9499 233.3762)" width="2.795" height="29.133"/>
		<g>
			
				<rect x="132.619" y="217.281" transform="matrix(-0.4999 0.8661 -0.8661 -0.4999 392.1898 215.0267)" width="2.795" height="6.915"/>
			
				<rect x="122.998" y="211.727" transform="matrix(-0.4999 0.8661 -0.8661 -0.4999 372.9493 215.0221)" width="2.796" height="6.916"/>
			
				<rect x="113.377" y="206.173" transform="matrix(-0.4999 0.8661 -0.8661 -0.4999 353.7089 215.0234)" width="2.796" height="6.915"/>
		</g>
		<g>
			
				<rect x="184.411" y="127.574" transform="matrix(-0.4997 0.8662 -0.8662 -0.4997 392.1538 35.5549)" width="2.795" height="6.916"/>
			<rect x="174.79" y="122.02" transform="matrix(-0.5001 0.866 -0.866 -0.5001 372.9619 35.66)" width="2.796" height="6.916"/>
			
				<rect x="165.17" y="116.466" transform="matrix(-0.4996 0.8663 -0.8663 -0.4996 353.6689 35.5454)" width="2.795" height="6.915"/>
		</g>
		
			<rect x="55.217" y="102.02" transform="matrix(-0.5002 0.8659 -0.8659 -0.5002 185.887 125.8785)" width="2.796" height="29.132"/>
		
			<rect x="241.768" y="209.723" transform="matrix(-0.4999 0.8661 -0.8661 -0.4999 558.9821 125.8243)" width="2.795" height="29.134"/>
	</g>
</g>
</svg>
