<?xml version="1.0" encoding="UTF-8" standalone="no"?>
<!-- Generator: Adobe Illustrator 12.0.1, SVG Export Plug-In . SVG Version: 6.00 Build 51448)  -->
<svg
   xmlns:dc="http://purl.org/dc/elements/1.1/"
   xmlns:cc="http://web.resource.org/cc/"
   xmlns:rdf="http://www.w3.org/1999/02/22-rdf-syntax-ns#"
   xmlns:svg="http://www.w3.org/2000/svg"
   xmlns="http://www.w3.org/2000/svg"
   xmlns:sodipodi="http://sodipodi.sourceforge.net/DTD/sodipodi-0.dtd"
   xmlns:inkscape="http://www.inkscape.org/namespaces/inkscape"
   version="1.1"
   id="Layer_1"
   width="139.692"
   height="128.034"
   viewBox="0 0 139.692 128.034"
   style="overflow:visible;enable-background:new 0 0 139.692 128.034;"
   xml:space="preserve"
   sodipodi:version="0.32"
   inkscape:version="0.45.1"
   sodipodi:docname="o-Nitrophenol.svg"
   inkscape:output_extension="org.inkscape.output.svg.inkscape"
   sodipodi:docbase="C:\"><metadata
   id="metadata44"><rdf:RDF><cc:Work
       rdf:about=""><dc:format>image/svg+xml</dc:format><dc:type
         rdf:resource="http://purl.org/dc/dcmitype/StillImage" /></cc:Work></rdf:RDF></metadata><defs
   id="defs42" /><sodipodi:namedview
   inkscape:window-height="579"
   inkscape:window-width="801"
   inkscape:pageshadow="2"
   inkscape:pageopacity="0.0"
   guidetolerance="10.0"
   gridtolerance="10.0"
   objecttolerance="10.0"
   borderopacity="1.0"
   bordercolor="#666666"
   pagecolor="#ffffff"
   id="base"
   inkscape:zoom="2.9523409"
   inkscape:cx="69.846001"
   inkscape:cy="64.016998"
   inkscape:window-x="264"
   inkscape:window-y="264"
   inkscape:current-layer="Layer_1" />
<path
   style="fill:#231f20"
   d="M 5.1073,104.59815 L 3.4923,105.50065 L 3.4923,66.88315 L 5.1073,67.83315 L 5.1073,104.59815 z "
   id="polygon3" />
<path
   style="fill:#231f20"
   d="M 9.1447998,70.635651 L 10.7598,70.635651 L 10.7598,101.79565 L 9.1447998,101.79565 L 9.1447998,70.635651 z "
   id="rect5" />
<path
   style="fill:#231f20"
   d="M 36.9798,122.98065 L 36.9798,124.83315 L 3.4923,105.50065 L 5.1073,104.59815 L 36.9798,122.98065 z "
   id="polygon7" />
<path
   style="fill:#231f20"
   d="M 68.8048,104.59815 L 70.4198,105.50065 L 36.9798,124.83315 L 36.9798,122.98065 L 68.8048,104.59815 z "
   id="polygon9" />
<path
   style="fill:#231f20"
   d="M 63.5323,101.08315 L 64.3398,102.50815 L 37.3598,118.08815 L 36.5523,116.66315 L 63.5323,101.08315 z "
   id="polygon11" />
<path
   style="fill:#231f20"
   d="M 68.8048,67.83315 L 69.6123,67.35815 L 70.4198,67.83315 L 70.4198,105.50065 L 68.8048,104.59815 L 68.8048,67.83315 z "
   id="polygon13" />
<path
   style="fill:#231f20"
   d="M 36.9798,49.45065 L 36.9798,48.50065 L 37.7873,48.02565 L 69.6123,66.40815 L 69.6123,67.35815 L 68.8048,67.83315 L 36.9798,49.45065 z "
   id="polygon15" />
<path
   style="fill:#231f20"
   d="M 36.5523,55.72065 L 37.3598,54.34315 L 64.3398,69.92315 L 63.5323,71.30065 L 36.5523,55.72065 z "
   id="polygon17" />
<path
   style="fill:#231f20"
   d="M 5.1073,67.83315 L 3.4923,66.88315 L 36.1723,48.02565 L 36.9798,48.50065 L 36.9798,49.45065 L 5.1073,67.83315 z "
   id="polygon19" />
<g
   id="g21"
   transform="matrix(0.95,0,0,0.95,3.4923,3.20085)">
	<path
   style="fill:#231f20"
   d="M 27.006,9.119 C 27.006,6.266 27.772,4.034 29.304,2.421 C 30.836,0.807 32.814,0 35.237,0 C 36.824,0 38.254,0.379 39.528,1.137 C 40.802,1.896 41.773,2.952 42.442,4.308 C 43.111,5.664 43.444,7.202 43.444,8.92 C 43.444,10.663 43.092,12.222 42.389,13.597 C 41.686,14.972 40.689,16.014 39.399,16.721 C 38.109,17.428 36.718,17.782 35.225,17.782 C 33.607,17.782 32.161,17.391 30.887,16.61 C 29.613,15.829 28.648,14.761 27.991,13.41 C 27.334,12.059 27.006,10.628 27.006,9.119 z M 29.35,9.148 C 29.35,11.218 29.907,12.849 31.021,14.041 C 32.135,15.233 33.533,15.828 35.213,15.828 C 36.925,15.828 38.334,15.226 39.441,14.023 C 40.547,12.82 41.1,11.113 41.1,8.902 C 41.1,7.504 40.864,6.283 40.391,5.24 C 39.918,4.197 39.226,3.388 38.315,2.814 C 37.404,2.24 36.382,1.953 35.249,1.953 C 33.639,1.953 32.253,2.506 31.092,3.611 C 29.931,4.716 29.35,6.563 29.35,9.148 z "
   id="path23" />
	<path
   style="fill:#231f20"
   d="M 46.456,17.484 L 46.456,0.297 L 48.737,0.297 L 48.737,7.36 L 57.628,7.36 L 57.628,0.297 L 59.909,0.297 L 59.909,17.485 L 57.628,17.485 L 57.628,9.391 L 48.737,9.391 L 48.737,17.485 L 46.456,17.485 L 46.456,17.484 z "
   id="path25" />
</g>
<path
   style="fill:#231f20"
   d="M 36.1723,22.18565 L 37.7873,22.18565 L 37.7873,48.02565 L 36.9798,48.50065 L 36.1723,48.02565 L 36.1723,22.18565 z "
   id="polygon27" />
<g
   id="g29"
   transform="matrix(0.95,0,0,0.95,3.4923,3.20085)">
	<path
   style="fill:#231f20"
   d="M 97.128,57.134 L 97.128,39.946 L 99.468,39.946 L 108.472,53.435 L 108.472,39.946 L 110.66,39.946 L 110.66,57.134 L 108.32,57.134 L 99.316,43.645 L 99.316,57.134 L 97.128,57.134 z "
   id="path31" />
	<path
   style="fill:#231f20"
   d="M 113.788,48.769 C 113.788,45.916 114.554,43.684 116.086,42.071 C 117.618,40.457 119.596,39.65 122.019,39.65 C 123.606,39.65 125.036,40.029 126.31,40.787 C 127.584,41.546 128.555,42.602 129.223,43.958 C 129.892,45.313 130.226,46.852 130.226,48.57 C 130.226,50.313 129.874,51.872 129.17,53.247 C 128.467,54.622 127.471,55.664 126.181,56.371 C 124.891,57.078 123.5,57.432 122.007,57.432 C 120.389,57.432 118.943,57.041 117.669,56.26 C 116.395,55.479 115.43,54.411 114.773,53.06 C 114.116,51.707 113.788,50.277 113.788,48.769 z M 116.132,48.798 C 116.132,50.868 116.689,52.499 117.803,53.691 C 118.917,54.883 120.315,55.478 121.995,55.478 C 123.707,55.478 125.116,54.876 126.223,53.673 C 127.328,52.47 127.882,50.763 127.882,48.552 C 127.882,47.154 127.646,45.933 127.172,44.89 C 126.699,43.847 126.008,43.038 125.097,42.464 C 124.186,41.89 123.164,41.603 122.031,41.603 C 120.421,41.603 119.035,42.156 117.874,43.261 C 116.713,44.366 116.132,46.212 116.132,48.798 z "
   id="path33" />
</g>
<g
   id="g35"
   transform="matrix(0.95,0,0,0.95,3.4923,3.20085)">
	<path
   style="fill:#231f20"
   d="M 139.692,60.118 L 139.692,61.634 L 131.161,61.634 C 131.149,61.253 131.211,60.887 131.347,60.535 C 131.565,59.955 131.914,59.384 132.395,58.822 C 132.876,58.26 133.566,57.611 134.465,56.875 C 135.861,55.722 136.807,54.811 137.305,54.141 C 137.803,53.471 138.052,52.836 138.052,52.238 C 138.052,51.612 137.826,51.085 137.377,50.654 C 136.926,50.224 136.34,50.009 135.616,50.009 C 134.85,50.009 134.239,50.238 133.78,50.697 C 133.321,51.156 133.089,51.791 133.083,52.602 L 131.458,52.43 C 131.569,51.214 131.989,50.288 132.718,49.652 C 133.446,49.014 134.424,48.696 135.652,48.696 C 136.891,48.696 137.872,49.039 138.594,49.725 C 139.316,50.411 139.677,51.261 139.677,52.275 C 139.677,52.791 139.571,53.298 139.36,53.796 C 139.149,54.294 138.797,54.819 138.307,55.37 C 137.816,55.921 137.002,56.677 135.867,57.638 C 134.917,58.436 134.305,58.976 134.034,59.261 C 133.763,59.544 133.538,59.83 133.361,60.117 L 139.692,60.117 L 139.692,60.118 z "
   id="path37" />
</g>
<path
   style="fill:#231f20"
   d="M 92.0323,53.48815 L 92.8398,54.86565 L 70.4198,67.83315 L 69.6123,67.35815 L 69.6123,66.40815 L 92.0323,53.48815 z "
   id="polygon39" />
</svg>