<?xml version="1.0" encoding="utf-8"?>
<!-- Generator: Adobe Illustrator 19.2.1, SVG Export Plug-In . SVG Version: 6.00 Build 0)  -->
<svg version="1.1" id="Слой_1" xmlns="http://www.w3.org/2000/svg" xmlns:xlink="http://www.w3.org/1999/xlink" x="0px" y="0px"
	 viewBox="0 0 281.5 207.4" style="enable-background:new 0 0 281.5 207.4;" xml:space="preserve">
<style type="text/css">
	.st0{fill:#2A5FFF;}
</style>
<g>
	<rect x="123.7" y="123" width="33.6" height="2.4"/>
	<rect x="123.7" y="110.2" width="33.6" height="2.4"/>
	<rect x="86.3" y="72.7" transform="matrix(0.8659 -0.5001 0.5001 0.8659 -31.8465 55.4263)" width="2.4" height="28.9"/>
	<polygon points="80.3,158.5 82.4,159.7 95.9,136.3 93.8,135.1 	"/>
	<rect x="192.3" y="134.4" transform="matrix(0.8654 -0.501 0.501 0.8654 -47.9367 116.8455)" width="2.4" height="26.4"/>
	<rect x="180" y="85.4" transform="matrix(0.5004 -0.8658 0.8658 0.5004 22.1349 211.5563)" width="28.8" height="2.4"/>
	<path d="M111.1,127.3c-2.1,1.8-5.4,1.8-5.4,1.8c-2.9,0-5-1.4-5-1.4c-2.1-1.4-3.2-4.1-3.2-4.1c-1-2.6-1-6.2-1-6.2c0-3.3,1-5.9,1-5.9
		c1.1-2.6,3.2-4,3.2-4c2.1-1.4,5-1.4,5-1.4c3.1,0,5,1.5,5,1.5c2,1.5,2.9,4.5,2.9,4.5l3.7-0.9c-1.2-4.1-4.1-6.2-4.1-6.2
		c-3-2.1-7.4-2.1-7.4-2.1c-3.8,0-6.9,1.8-6.9,1.8c-3,1.8-4.7,5.1-4.7,5.1c-1.7,3.3-1.7,7.8-1.7,7.8c0,4.7,1.6,8,1.6,8
		c1.6,3.4,4.6,5.2,4.6,5.2c3,1.8,7.1,1.8,7.1,1.8c3,0,5.5-1.1,5.5-1.1c2.5-1.2,4.2-3.3,4.2-3.3c1.7-2.2,2.4-5.1,2.4-5.1l-3.7-0.9
		C113.3,125.5,111.1,127.3,111.1,127.3z"/>
	<path d="M186.6,127.9c1.7-2.2,2.3-5.1,2.3-5.1l-3.7-0.9c-0.8,3.5-3,5.4-3,5.4c-2.2,1.8-5.5,1.8-5.5,1.8c-2.9,0-5-1.4-5-1.4
		c-2-1.4-3.1-4.1-3.1-4.1c-1.1-2.6-1.1-6.2-1.1-6.2c0-3.3,1.1-5.9,1.1-5.9c1.1-2.6,3.2-4,3.2-4c2.1-1.4,5.1-1.4,5.1-1.4
		c3,0,5,1.5,5,1.5c2,1.5,2.8,4.5,2.8,4.5l3.7-0.9c-1.1-4.1-4.1-6.2-4.1-6.2c-3-2.1-7.4-2.1-7.4-2.1c-3.9,0-6.9,1.8-6.9,1.8
		c-3,1.8-4.7,5.1-4.7,5.1c-1.7,3.3-1.7,7.8-1.7,7.8c0,4.7,1.6,8,1.6,8c1.6,3.4,4.6,5.2,4.6,5.2c3,1.8,7.1,1.8,7.1,1.8
		c3.1,0,5.6-1.1,5.6-1.1C185,130.1,186.6,127.9,186.6,127.9z"/>
	<path d="M63.1,69c3,1.8,7.1,1.8,7.1,1.8c3,0,5.5-1.2,5.5-1.2c2.5-1.1,4.2-3.3,4.2-3.3c1.7-2.2,2.3-5.1,2.3-5.1l-3.7-0.9
		c-0.8,3.5-3,5.4-3,5.4c-2.2,1.8-5.5,1.8-5.5,1.8c-2.9,0-5-1.4-5-1.4C63,64.7,62,62,62,62c-1.1-2.6-1.1-6.2-1.1-6.2
		c0-3.3,1.1-5.9,1.1-5.9c1.1-2.6,3.2-4,3.2-4c2.1-1.4,5.1-1.4,5.1-1.4c3,0,5,1.5,5,1.5c2,1.5,2.9,4.5,2.9,4.5l3.7-0.9
		c-1.1-4.1-4.1-6.2-4.1-6.2c-3-2.1-7.4-2.1-7.4-2.1c-3.8,0-6.9,1.8-6.9,1.8c-3,1.8-4.7,5.1-4.7,5.1C57,51.3,57,55.8,57,55.8
		c0,4.7,1.6,8,1.6,8C60.1,67.2,63.1,69,63.1,69z"/>
	<polygon points="32,53.4 18,53.4 18,41.7 14.2,41.7 14.2,70.3 18,70.3 18,56.8 32,56.8 32,70.3 35.8,70.3 35.8,41.7 32,41.7 	"/>
	<path d="M51.2,66.9c-0.8-0.7-2-1-2-1v0c1.4-0.6,2.2-1.7,2.2-1.7c0.8-1.1,0.8-2.5,0.8-2.5c0-1.5-0.7-2.7-0.7-2.7
		c-0.8-1.2-2.1-1.8-2.1-1.8c-1.3-0.6-3.1-0.6-3.1-0.6c-1.6,0-2.9,0.6-2.9,0.6c-1.4,0.6-2.2,1.8-2.2,1.8c-0.9,1.2-1.2,2.8-1.2,2.8
		l2.5,0.4c0.3-1.7,1.3-2.7,1.3-2.7c1-1,2.5-1,2.5-1c1.6,0,2.4,0.8,2.4,0.8c0.9,0.8,0.9,2.3,0.9,2.3c0,1.6-1.1,2.5-1.1,2.5
		c-1.2,0.9-3.4,0.9-3.4,0.9h-0.5l-0.3,2h2.2c1.1,0,2,0.4,2,0.4c0.8,0.5,1.3,1.3,1.3,1.3c0.5,0.9,0.5,2,0.5,2c0,1.2-0.5,2.1-0.5,2.1
		c-0.5,1-1.4,1.5-1.4,1.5C47.4,75,46.3,75,46.3,75c-1.6,0-2.6-1-2.6-1c-1-1-1.4-3-1.4-3l-2.4,0.4c0.2,1.7,1.1,3,1.1,3
		c0.9,1.3,2.3,2,2.3,2c1.4,0.6,3.1,0.6,3.1,0.6c2,0,3.5-0.8,3.5-0.8c1.5-0.8,2.4-2.2,2.4-2.2c0.8-1.4,0.8-3.2,0.8-3.2
		c0-1.2-0.4-2.2-0.4-2.2C52,67.5,51.2,66.9,51.2,66.9z"/>
	<polygon points="76.6,176.4 62.6,176.4 62.6,164.6 58.8,164.6 58.8,193.3 62.6,193.3 62.6,179.8 76.6,179.8 76.6,193.3 80.4,193.3 
		80.4,164.6 76.6,164.6 	"/>
	<polygon points="218.9,176.4 204.9,176.4 204.9,164.6 201,164.6 201,193.3 204.9,193.3 204.9,179.8 218.9,179.8 218.9,193.3 
		222.7,193.3 222.7,164.6 218.9,164.6 	"/>
	<path d="M217.8,65.7c-2.2,1.8-5.5,1.8-5.5,1.8c-2.9,0-5-1.4-5-1.4c-2.1-1.4-3.2-4.1-3.2-4.1c-1.1-2.6-1.1-6.2-1.1-6.2
		c0-3.3,1.1-5.9,1.1-5.9c1.1-2.6,3.2-4,3.2-4c2.1-1.4,5.1-1.4,5.1-1.4c3,0,5,1.5,5,1.5c2,1.5,2.8,4.5,2.8,4.5l3.7-0.9
		c-1.1-4.1-4.1-6.2-4.1-6.2c-3-2.1-7.4-2.1-7.4-2.1c-3.9,0-6.9,1.8-6.9,1.8c-3,1.8-4.7,5.1-4.7,5.1c-1.7,3.3-1.7,7.8-1.7,7.8
		c0,4.7,1.6,8,1.6,8c1.6,3.4,4.6,5.2,4.6,5.2c3,1.8,7.1,1.8,7.1,1.8c3,0,5.5-1.2,5.5-1.2c2.5-1.1,4.2-3.3,4.2-3.3
		c1.7-2.2,2.3-5.1,2.3-5.1l-3.7-0.9C220,63.9,217.8,65.7,217.8,65.7z"/>
	<polygon points="246.4,53.4 232.4,53.4 232.4,41.7 228.5,41.7 228.5,70.3 232.4,70.3 232.4,56.8 246.4,56.8 246.4,70.3 250.2,70.3 
		250.2,41.7 246.4,41.7 	"/>
	<path d="M266.9,68.6c-0.4-1-1.3-1.7-1.3-1.7c-0.8-0.7-2-1-2-1v0c1.4-0.6,2.2-1.7,2.2-1.7c0.8-1.1,0.8-2.5,0.8-2.5
		c0-1.5-0.7-2.7-0.7-2.7c-0.7-1.2-2-1.8-2-1.8c-1.3-0.6-3.1-0.6-3.1-0.6c-1.6,0-3,0.6-3,0.6c-1.3,0.6-2.2,1.8-2.2,1.8
		c-0.9,1.2-1.2,2.8-1.2,2.8l2.5,0.4c0.3-1.7,1.3-2.7,1.3-2.7c1-1,2.5-1,2.5-1c1.6,0,2.5,0.8,2.5,0.8c0.9,0.8,0.9,2.3,0.9,2.3
		c0,1.6-1.2,2.5-1.2,2.5c-1.1,0.9-3.4,0.9-3.4,0.9H259l-0.3,2h2.1c1.2,0,2,0.4,2,0.4c0.9,0.5,1.4,1.3,1.4,1.3c0.5,0.9,0.5,2,0.5,2
		c0,1.2-0.5,2.1-0.5,2.1c-0.5,1-1.4,1.5-1.4,1.5c-0.9,0.5-2.1,0.5-2.1,0.5c-1.6,0-2.6-1-2.6-1c-1-1-1.4-3-1.4-3l-2.5,0.4
		c0.2,1.7,1.1,3,1.1,3c0.9,1.3,2.3,2,2.3,2c1.4,0.6,3.1,0.6,3.1,0.6c2,0,3.5-0.8,3.5-0.8c1.5-0.8,2.4-2.2,2.4-2.2
		c0.8-1.4,0.8-3.2,0.8-3.2C267.4,69.6,266.9,68.6,266.9,68.6z"/>
</g>
<g>
	<path class="st0" d="M103.1,92.1c0.7-0.7,1.8-1.6,1.8-1.6l1.8-1.5c2.5-2.1,3.8-3.9,3.8-3.9c1.3-1.8,1.3-3.7,1.3-3.7
		c0-1.6-0.8-2.8-0.8-2.8c-0.8-1.2-2.2-2-2.2-2c-1.4-0.7-3.3-0.7-3.3-0.7c-1.8,0-3.2,0.7-3.2,0.7c-1.4,0.7-2.3,1.9-2.3,1.9
		c-0.8,1.3-1,3.1-1,3.1l2.6,0.4c0.1-2,1.1-3,1.1-3c1-1,2.8-1,2.8-1c1.1,0,1.9,0.4,1.9,0.4c0.9,0.4,1.4,1.2,1.4,1.2
		c0.5,0.8,0.5,1.7,0.5,1.7c0,1.4-1,2.9-1,2.9c-1.1,1.5-3.4,3.4-3.4,3.4l-1.6,1.3c-2.4,2-3.5,3.6-3.5,3.6c-1.2,1.6-1.2,3.4-1.2,3.4
		h13.3v-2.4H102C102.4,92.7,103.1,92.1,103.1,92.1z"/>
	<path class="st0" d="M181.1,85.9c-0.8-0.7-2-1-2-1v-0.1c1.4-0.5,2.2-1.6,2.2-1.6c0.8-1.1,0.8-2.5,0.8-2.5c0-1.5-0.7-2.6-0.7-2.6
		c-0.7-1.2-2.1-1.8-2.1-1.8c-1.3-0.6-3.1-0.6-3.1-0.6c-1.6,0-3,0.6-3,0.6c-1.3,0.6-2.2,1.8-2.2,1.8c-0.9,1.2-1.2,2.8-1.2,2.8
		l2.5,0.4c0.3-1.7,1.3-2.7,1.3-2.7c1-1,2.5-1,2.5-1c1.6,0,2.4,0.8,2.4,0.8c0.9,0.8,0.9,2.3,0.9,2.3c0,1.6-1.1,2.5-1.1,2.5
		c-1.1,0.8-3.4,0.8-3.4,0.8h-0.5l-0.3,2h2.2c1.1,0,2,0.5,2,0.5c0.8,0.4,1.3,1.3,1.3,1.3c0.5,0.8,0.5,2,0.5,2c0,1.2-0.5,2.1-0.5,2.1
		c-0.5,0.9-1.4,1.4-1.4,1.4c-0.9,0.5-2.1,0.5-2.1,0.5c-1.6,0-2.6-1-2.6-1c-1-1-1.4-3-1.4-3l-2.4,0.4c0.2,1.7,1.1,3,1.1,3
		c0.9,1.2,2.3,1.9,2.3,1.9c1.4,0.7,3.1,0.7,3.1,0.7c2,0,3.5-0.8,3.5-0.8c1.5-0.8,2.4-2.2,2.4-2.2c0.8-1.4,0.8-3.2,0.8-3.2
		c0-1.2-0.4-2.3-0.4-2.3C182,86.6,181.1,85.9,181.1,85.9z"/>
	<path class="st0" d="M69.5,16.9c-1.6,1.4-3.6,2.3-3.6,2.3v2.4c1.4-0.5,2.7-1.3,2.7-1.3c1.3-0.8,2.2-1.7,2.2-1.7v15.6h2.5V14.2h-1.6
		C71.1,15.5,69.5,16.9,69.5,16.9z"/>
	<path class="st0" d="M216.1,27.2v-13h-2l-9.1,13v2.3h8.7v4.8h2.5v-4.8h2.7v-2.3H216.1z M213.6,27.2h-6.2l6.1-8.7h0V27.2z"/>
</g>
</svg>
