<svg id="图层_1" data-name="图层 1" xmlns="http://www.w3.org/2000/svg" viewBox="0 0 281.47 352.42"><defs><style>.cls-1,.cls-3{fill:none;stroke-width:4.36px;}.cls-1{stroke:#000;}.cls-2,.cls-6,.cls-7{fill:gray;}.cls-3{stroke:gray;}.cls-4,.cls-5,.cls-6,.cls-7,.cls-8,.cls-9{isolation:isolate;font-family:MyriadPro-Regular, Myriad Pro;}.cls-4,.cls-6{font-size:19.69px;}.cls-5,.cls-7{font-size:11px;}.cls-8{font-size:20px;}.cls-9{font-size:12px;}</style></defs><title>图稿5_b01002ca-3976-42ee-9acd-f8253b6e339d</title><path id="path90" class="cls-1" d="M55.46,25.55l-6.94,9.29M73.58,1.31l-9.74,13"/><path id="path92" class="cls-1" d="M54.56,69.46,48.36,78.2m36.91-48L63.57,58.35"/><path id="path94" class="cls-1" d="M55.34,112.77l-6.52,8.65m34.63-46L63.57,101.84m41.17-54.66L96.4,58.25"/><path id="path96" class="cls-1" d="M54.24,157.24,49,164.17m35.61-46.93L63.66,144.82m55-72.46L96.83,101.1"/><path id="path98" class="cls-1" d="M54.35,201l-4.3,5.74m34.64-46.23L64.92,186.94m54.28-72.44L97.14,143.93m38.42-51.27-4.1,5.46"/><path id="path100" class="cls-1" d="M54.35,243.18l-4.3,5.73m34.64-46.23L64.92,229.07m54.28-72.44L97.14,186.07m54-70.81-19.63,25"/><path id="path102" class="cls-1" d="M54.35,287.16l-4.3,5.74m34.64-46.23L64.92,273.06m54.28-72.44L97.14,230.06m54-70.8-19.63,25"/><path id="path104" class="cls-1" d="M163.71,141.57l8-9.23"/><path id="path106" class="cls-1" d="M118.35,244.88l-21.7,28m55.22-71.33-19.52,25.21m52.88-68.3-18.37,23.72"/><path id="path108" class="cls-1" d="M48.53,34.79a4.72,4.72,0,0,0,.88,6.57c2,1.46,5,.56,6.92-2"/><path id="path110" class="cls-1" d="M48.53,78.06a4.72,4.72,0,0,0,.88,6.57c2,1.46,5,.56,6.92-2"/><path id="path112" class="cls-1" d="M49.07,121.13A4.72,4.72,0,0,0,50,127.7c2,1.46,5,.56,6.92-2"/><path id="path114" class="cls-1" d="M49.07,164a4.72,4.72,0,0,0,.88,6.57c2,1.46,5,.56,6.92-2"/><path id="path116" class="cls-1" d="M50.46,206.33a4.72,4.72,0,0,0,.88,6.57c2,1.46,5,.56,6.92-2"/><path id="path118" class="cls-1" d="M50.15,248.78a4.72,4.72,0,0,0,.88,6.57c2,1.46,5,.56,6.92-2"/><path id="path120" class="cls-1" d="M50.15,292.76a4.72,4.72,0,0,0,.88,6.57c2,1.46,5,.56,6.92-2"/><path id="path122" d="M91.58,14.15l-8.46,11-.39,8.23L89.88,31,99,20.07l-7.69,2Z"/><path id="path124" d="M110.11,33.3l-8.46,11-.39,8.23,7.15-2.38,9.15-10.92-7.69,2Z"/><path id="path126" d="M125,56.21l-8.46,11-.39,8.23L123.34,73l9.15-10.92-7.69,2Z"/><path id="path128" d="M141.78,76.87l-8.46,11-.38,8.23,7.15-2.38,9.15-10.92-7.69,2Z"/><path id="path130" d="M157.55,99.16l-8.46,11-.38,8.23,7.15-2.38L165,105.09l-7.69,2Z"/><path id="path132" d="M175.92,118.85l-8.46,11-.38,8.23,7.15-2.38,9.15-10.92-7.69,2Z"/><path id="path134" d="M83.89,286.48l-5.44,7.08-.25,5.3,4.6-1.53,5.89-7-4.95,1.29Z"/><path id="path136" class="cls-2" d="M117.82,286.48l-5.44,7.08-.25,5.3,4.6-1.53,5.89-7-4.95,1.29Z"/><path id="path138" class="cls-2" d="M150,286.48l-5.44,7.08-.25,5.3,4.6-1.53,5.89-7-4.95,1.29Z"/><path id="path140" class="cls-2" d="M183.51,286.48l-5.44,7.08-.25,5.3,4.6-1.53,5.89-7-4.95,1.29Z"/><path id="path142" class="cls-2" d="M215,286.48l-5.44,7.08-.25,5.3,4.6-1.53,5.89-7-4.95,1.29Z"/><path id="path144" class="cls-2" d="M248.54,286.48l-5.45,7.08-.25,5.3,4.6-1.53,5.89-7-4.95,1.29Z"/><path id="path146" d="M192,142.34l-8.46,11-.38,8.23,7.15-2.38,9.15-10.92-7.69,2Z"/><path id="path148" class="cls-2" d="M207.68,164.52l-8.46,11-.38,8.23,7.15-2.38,9.15-10.92-7.69,2Z"/><path id="path150" class="cls-2" d="M224,186.05l-8.46,11-.39,8.23,7.15-2.39L231.45,192l-7.69,2Z"/><path id="path152" class="cls-2" d="M274,249.56l-8.46,11-.39,8.23,7.15-2.38,9.15-10.92-7.69,2Z"/><path id="path154" d="M240.74,206.93l-8.46,11-.38,8.23,7.15-2.38,9.15-10.92-7.69,2Z"/><path id="path156" class="cls-2" d="M257.27,228.68l-8.46,11-.38,8.23,7.15-2.38,9.15-10.92-7.69,2Z"/><path id="path158" class="cls-2" d="M240.74,206.93l-8.46,11-.38,8.23,7.15-2.38,9.15-10.92-7.69,2Z"/><path id="path160" class="cls-3" d="M151.74,245.06l-20.42,26.5M184.9,202l-19.57,25.4m35.37-45.9-3.9,5.06"/><path id="path162" class="cls-3" d="M183.29,246.87,164.6,271.35m52-68.08-19.69,25.79"/><path id="path164" class="cls-3" d="M230.21,228.18l3.77-4.9m-38.5,50,23.06-30"/><text class="cls-4" transform="translate(53.59 328.58)">s</text><text class="cls-4" transform="translate(84.97 328.58)">p</text><text class="cls-4" transform="translate(119.41 328.58)">d</text><text class="cls-4" transform="translate(152.17 328.58)">f</text><text class="cls-5" transform="translate(63.43 318.74)">2</text><text class="cls-5" transform="translate(96.5 318.74)">6</text><text class="cls-5" transform="translate(130.95 318.74)">10</text><text class="cls-5" transform="translate(161.4 318.74)">14</text><text class="cls-4" transform="translate(53.59 347.5)">0</text><text class="cls-4" transform="translate(84.97 347.5)">1</text><text class="cls-4" transform="translate(119.41 347.5)">2</text><text class="cls-4" transform="translate(152.17 347.5)">3</text><text class="cls-4" transform="translate(53.59 285.83)">s</text><text class="cls-4" transform="translate(84.97 285.83)">p</text><text class="cls-6" transform="translate(119.41 285.83)">d</text><text class="cls-6" transform="translate(152.17 285.83)">f</text><text class="cls-4" transform="translate(53.59 242.3)">s</text><text class="cls-4" transform="translate(84.97 242.3)">p</text><text class="cls-4" transform="translate(119.41 242.3)">d</text><text class="cls-4" transform="translate(152.17 242.3)">f</text><text class="cls-4" transform="translate(53.59 242.3)">s</text><text class="cls-4" transform="translate(84.97 242.3)">p</text><text class="cls-4" transform="translate(119.41 242.3)">d</text><text class="cls-6" transform="translate(152.17 242.3)">f</text><text class="cls-4" transform="translate(53.59 197.24)">s</text><text class="cls-4" transform="translate(84.97 197.24)">p</text><text class="cls-4" transform="translate(119.41 197.24)">d</text><text class="cls-4" transform="translate(152.17 197.24)">f</text><text class="cls-4" transform="translate(53.59 112.19)">s</text><text class="cls-4" transform="translate(84.97 112.19)">p</text><text class="cls-4" transform="translate(119.41 112.19)">d</text><text class="cls-4" transform="translate(53.59 24.68)">s</text><text class="cls-4" transform="translate(53.59 155.56)">s</text><text class="cls-4" transform="translate(84.97 155.56)">p</text><text class="cls-4" transform="translate(119.41 155.56)">d</text><text class="cls-4" transform="translate(152.17 155.56)">f</text><text class="cls-4" transform="translate(53.59 68.67)">s</text><text class="cls-4" transform="translate(84.97 68.67)">p</text><text class="cls-6" transform="translate(184.93 328.58)">g</text><text class="cls-6" transform="translate(219.38 328.58)">h</text><text class="cls-6" transform="translate(252.14 328.58)">i</text><text class="cls-7" transform="translate(196.47 318.74)">18</text><text class="cls-7" transform="translate(230.92 318.74)">22</text><text class="cls-7" transform="translate(263.37 318.74)">26</text><text class="cls-6" transform="translate(184.93 347.5)">4</text><text class="cls-6" transform="translate(219.38 347.5)">5</text><text class="cls-6" transform="translate(252.14 347.5)">6</text><text class="cls-6" transform="translate(184.93 284.29)">g</text><text class="cls-6" transform="translate(219.38 284.29)">h</text><text class="cls-6" transform="translate(252.14 284.29)">i</text><text class="cls-6" transform="translate(184.93 240.92)">g</text><text class="cls-6" transform="translate(219.38 240.92)">h</text><text class="cls-6" transform="translate(184.93 196.93)">g</text><text class="cls-8" transform="translate(0 24.84)">1K</text><text class="cls-9" transform="translate(25.83 15.69)">2</text><text class="cls-8" transform="translate(0.73 68.36)">2L</text><text class="cls-9" transform="translate(24.83 59.21)">8</text><text class="cls-8" transform="translate(0.67 111.58)">3M</text><text class="cls-9" transform="translate(29.83 102.43)">18</text><text class="cls-8" transform="translate(1.22 155.41)">4N</text><text class="cls-9" transform="translate(28.83 146.26)">32</text><text class="cls-8" transform="translate(0.65 198.16)">5O</text><text class="cls-9" transform="translate(28.83 189.01)">50</text><text class="cls-8" transform="translate(0.8 241.23)">6P</text><text class="cls-9" transform="translate(25.83 232.07)">72</text><text class="cls-8" transform="translate(0.56 284.9)">7Q</text><text class="cls-9" transform="translate(28.83 275.75)">98</text><path id="path302" class="cls-3" d="M251.8,243.42l-23,29.67"/></svg>