<?xml version="1.0" encoding="UTF-8" standalone="no"?>
<!-- Created with Inkscape (http://www.inkscape.org/) -->

<svg
   xmlns:dc="http://purl.org/dc/elements/1.1/"
   xmlns:cc="http://creativecommons.org/ns#"
   xmlns:rdf="http://www.w3.org/1999/02/22-rdf-syntax-ns#"
   xmlns:svg="http://www.w3.org/2000/svg"
   xmlns="http://www.w3.org/2000/svg"
   xmlns:xlink="http://www.w3.org/1999/xlink"
   xmlns:sodipodi="http://sodipodi.sourceforge.net/DTD/sodipodi-0.dtd"
   xmlns:inkscape="http://www.inkscape.org/namespaces/inkscape"
   version="1.0"
   width="590"
   height="500"
   id="svg2"
   sodipodi:version="0.32"
   inkscape:version="0.48.4 r9939"
   sodipodi:docname="Photoelectric Circuit Diagram_zh-hans.svg"
   inkscape:output_extension="org.inkscape.output.svg.inkscape">
  <metadata
     id="metadata135">
    <rdf:RDF>
      <cc:Work
         rdf:about="">
        <dc:format>image/svg+xml</dc:format>
        <dc:type
           rdf:resource="http://purl.org/dc/dcmitype/StillImage" />
        <dc:title></dc:title>
      </cc:Work>
    </rdf:RDF>
  </metadata>
  <sodipodi:namedview
     inkscape:window-height="1047"
     inkscape:window-width="1920"
     inkscape:pageshadow="2"
     inkscape:pageopacity="0.0"
     guidetolerance="10.0"
     gridtolerance="10.0"
     objecttolerance="10.0"
     borderopacity="1.0"
     bordercolor="#666666"
     pagecolor="#ffffff"
     id="base"
     showgrid="true"
     inkscape:zoom="1.4973103"
     inkscape:cx="306.035"
     inkscape:cy="256.50915"
     inkscape:window-x="1909"
     inkscape:window-y="-11"
     inkscape:current-layer="svg2"
     showguides="true"
     inkscape:guide-bbox="true"
     inkscape:window-maximized="1">
    <inkscape:grid
       type="xygrid"
       id="grid3063"
       empspacing="5"
       visible="true"
       enabled="true"
       snapvisiblegridlinesonly="false" />
  </sodipodi:namedview>
  <defs
     id="defs4">
    <marker
       inkscape:stockid="Arrow1Mstart"
       orient="auto"
       refY="0"
       refX="0"
       id="Arrow1Mstart"
       style="overflow:visible">
      <path
         id="path3890"
         d="M 0,0 5,-5 -12.5,0 5,5 0,0 z"
         style="fill-rule:evenodd;stroke:#000000;stroke-width:1pt;marker-start:none"
         transform="matrix(0.4,0,0,0.4,4,0)"
         inkscape:connector-curvature="0" />
    </marker>
    <marker
       inkscape:stockid="Arrow2Sstart"
       orient="auto"
       refY="0"
       refX="0"
       id="Arrow2Sstart"
       style="overflow:visible">
      <path
         id="path3914"
         style="font-size:12px;fill-rule:evenodd;stroke-width:0.625;stroke-linejoin:round"
         d="M 8.7185878,4.0337352 -2.2072895,0.01601326 8.7185884,-4.0017078 c -1.7454984,2.3720609 -1.7354408,5.6174519 -6e-7,8.035443 z"
         transform="matrix(0.3,0,0,0.3,-0.69,0)"
         inkscape:connector-curvature="0" />
    </marker>
    <marker
       inkscape:stockid="Arrow2Mstart"
       orient="auto"
       refY="0"
       refX="0"
       id="Arrow2Mstart"
       style="overflow:visible">
      <path
         id="path3908"
         style="font-size:12px;fill-rule:evenodd;stroke-width:0.625;stroke-linejoin:round"
         d="M 8.7185878,4.0337352 -2.2072895,0.01601326 8.7185884,-4.0017078 c -1.7454984,2.3720609 -1.7354408,5.6174519 -6e-7,8.035443 z"
         transform="scale(0.6,0.6)"
         inkscape:connector-curvature="0" />
    </marker>
    <marker
       inkscape:stockid="Arrow1Sstart"
       orient="auto"
       refY="0"
       refX="0"
       id="Arrow1Sstart"
       style="overflow:visible">
      <path
         id="path3896"
         d="M 0,0 5,-5 -12.5,0 5,5 0,0 z"
         style="fill-rule:evenodd;stroke:#000000;stroke-width:1pt;marker-start:none"
         transform="matrix(0.2,0,0,0.2,1.2,0)"
         inkscape:connector-curvature="0" />
    </marker>
    <marker
       inkscape:stockid="Arrow2Lstart"
       orient="auto"
       refY="0"
       refX="0"
       id="Arrow2Lstart"
       style="overflow:visible">
      <path
         id="path3902"
         style="font-size:12px;fill-rule:evenodd;stroke-width:0.625;stroke-linejoin:round"
         d="M 8.7185878,4.0337352 -2.2072895,0.01601326 8.7185884,-4.0017078 c -1.7454984,2.3720609 -1.7354408,5.6174519 -6e-7,8.035443 z"
         transform="matrix(1.1,0,0,1.1,1.1,0)"
         inkscape:connector-curvature="0" />
    </marker>
    <marker
       inkscape:stockid="Arrow1Lstart"
       orient="auto"
       refY="0"
       refX="0"
       id="Arrow1Lstart"
       style="overflow:visible">
      <path
         id="path3884"
         d="M 0,0 5,-5 -12.5,0 5,5 0,0 z"
         style="fill-rule:evenodd;stroke:#000000;stroke-width:1pt;marker-start:none"
         transform="matrix(0.8,0,0,0.8,10,0)"
         inkscape:connector-curvature="0" />
    </marker>
    <linearGradient
       id="linearGradient3557">
      <stop
         style="stop-color:#d1f4ff;stop-opacity:1;"
         offset="0"
         id="stop3559" />
      <stop
         id="stop3567"
         offset="1"
         style="stop-color:#00006d;stop-opacity:1;" />
    </linearGradient>
    <marker
       inkscape:stockid="Arrow2Mend"
       orient="auto"
       refY="0"
       refX="0"
       id="Arrow2Mend"
       style="overflow:visible">
      <path
         id="path3987"
         style="font-size:12px;fill-rule:evenodd;stroke-width:0.625;stroke-linejoin:round"
         d="M 8.7185878,4.0337352 -2.2072895,0.01601326 8.7185884,-4.0017078 c -1.7454984,2.3720609 -1.7354408,5.6174519 -6e-7,8.035443 z"
         transform="scale(-0.6,-0.6)"
         inkscape:connector-curvature="0" />
    </marker>
    <inkscape:perspective
       sodipodi:type="inkscape:persp3d"
       inkscape:vp_x="0 : 201.25984 : 1"
       inkscape:vp_y="0 : 1000 : 0"
       inkscape:vp_z="526.88977 : 201.25984 : 1"
       inkscape:persp3d-origin="263.44489 : 134.17323 : 1"
       id="perspective137" />
    <linearGradient
       id="linearGradient3284">
      <stop
         id="stop3286"
         style="stop-color:#ffffff;stop-opacity:1"
         offset="0" />
      <stop
         id="stop3292"
         style="stop-color:#84c78f;stop-opacity:1"
         offset="0.16145785" />
      <stop
         id="stop3294"
         style="stop-color:#13ac2c;stop-opacity:1"
         offset="0.4671047" />
      <stop
         id="stop3288"
         style="stop-color:#0f3615;stop-opacity:1"
         offset="1" />
    </linearGradient>
    <marker
       refX="0"
       refY="0"
       orient="auto"
       id="Arrow2Lend"
       style="overflow:visible">
      <path
         d="M 8.7185878,4.0337352 -2.2072895,0.01601326 8.7185884,-4.0017078 c -1.7454984,2.3720609 -1.7354408,5.6174519 -6e-7,8.035443 z"
         transform="matrix(-1.1,0,0,-1.1,-1.1,0)"
         id="path4976"
         style="font-size:12px;fill-rule:evenodd;stroke-width:0.625;stroke-linejoin:round"
         inkscape:connector-curvature="0" />
    </marker>
    <linearGradient
       id="linearGradient4907">
      <stop
         id="stop4909"
         style="stop-color:#979797;stop-opacity:1"
         offset="0" />
      <stop
         id="stop4911"
         style="stop-color:#979797;stop-opacity:0.25098041"
         offset="1" />
    </linearGradient>
    <marker
       refX="0"
       refY="0"
       orient="auto"
       id="Arrow1Mendw"
       style="overflow:visible">
      <path
         d="M 0,0 5,-5 -12.5,0 5,5 0,0 z"
         transform="matrix(-0.4,0,0,-0.4,-4,0)"
         id="path22573"
         style="fill:#4415ff;fill-rule:evenodd;stroke:#4415ff;stroke-width:1pt;marker-start:none"
         inkscape:connector-curvature="0" />
    </marker>
    <marker
       refX="0"
       refY="0"
       orient="auto"
       id="Arrow1Mendt"
       style="overflow:visible">
      <path
         d="M 0,0 5,-5 -12.5,0 5,5 0,0 z"
         transform="matrix(-0.4,0,0,-0.4,-4,0)"
         id="path22576"
         style="fill:#4415ff;fill-rule:evenodd;stroke:#4415ff;stroke-width:1pt;marker-start:none"
         inkscape:connector-curvature="0" />
    </marker>
    <marker
       refX="0"
       refY="0"
       orient="auto"
       id="Arrow1Mendo"
       style="overflow:visible">
      <path
         d="M 0,0 5,-5 -12.5,0 5,5 0,0 z"
         transform="matrix(-0.4,0,0,-0.4,-4,0)"
         id="path22579"
         style="fill:#4415ff;fill-rule:evenodd;stroke:#4415ff;stroke-width:1pt;marker-start:none"
         inkscape:connector-curvature="0" />
    </marker>
    <linearGradient
       x1="396.55081"
       y1="552.69635"
       x2="396.55081"
       y2="654.04364"
       id="linearGradient23072"
       xlink:href="#linearGradient4907"
       gradientUnits="userSpaceOnUse" />
    <linearGradient
       x1="396.55081"
       y1="552.69635"
       x2="396.55081"
       y2="654.04364"
       id="linearGradient2674"
       xlink:href="#linearGradient4907"
       gradientUnits="userSpaceOnUse"
       gradientTransform="translate(-156.17567,-282.41952)" />
    <radialGradient
       cx="354.74576"
       cy="86.364288"
       r="12.084575"
       fx="354.74576"
       fy="86.364288"
       id="radialGradient3290"
       xlink:href="#linearGradient3284"
       gradientUnits="userSpaceOnUse"
       gradientTransform="matrix(-1.2755157,0,0,-1.3108101,807.26876,199.80177)" />
    <radialGradient
       cx="354.74576"
       cy="86.364288"
       r="12.084575"
       fx="354.74576"
       fy="86.364288"
       id="radialGradient3306"
       xlink:href="#linearGradient3284"
       gradientUnits="userSpaceOnUse"
       gradientTransform="matrix(-1.2755157,0,0,-1.3108101,807.26876,199.80177)" />
    <radialGradient
       cx="354.74576"
       cy="86.364288"
       r="12.084575"
       fx="354.74576"
       fy="86.364288"
       id="radialGradient3322"
       xlink:href="#linearGradient3284"
       gradientUnits="userSpaceOnUse"
       gradientTransform="matrix(-1.2755157,0,0,-1.3108101,807.26876,199.80177)" />
    <radialGradient
       cx="354.74576"
       cy="86.364288"
       r="12.084575"
       fx="354.74576"
       fy="86.364288"
       id="radialGradient3330"
       xlink:href="#linearGradient3284"
       gradientUnits="userSpaceOnUse"
       gradientTransform="matrix(-1.2755157,0,0,-1.3108101,807.26876,199.80177)" />
    <radialGradient
       cx="354.74576"
       cy="86.364288"
       r="12.084575"
       fx="354.74576"
       fy="86.364288"
       id="radialGradient3338"
       xlink:href="#linearGradient3284"
       gradientUnits="userSpaceOnUse"
       gradientTransform="matrix(-1.2755157,0,0,-1.3108101,807.26876,199.80177)" />
    <radialGradient
       cx="354.74576"
       cy="86.364288"
       r="12.084575"
       fx="354.74576"
       fy="86.364288"
       id="radialGradient3346"
       xlink:href="#linearGradient3284"
       gradientUnits="userSpaceOnUse"
       gradientTransform="matrix(-1.2755157,0,0,-1.3108101,807.26876,199.80177)" />
    <radialGradient
       cx="354.74576"
       cy="86.364288"
       r="12.084575"
       fx="354.74576"
       fy="86.364288"
       id="radialGradient3362"
       xlink:href="#linearGradient3284"
       gradientUnits="userSpaceOnUse"
       gradientTransform="matrix(-1.2755157,0,0,-1.3108101,807.26876,199.80177)" />
    <radialGradient
       cx="354.74576"
       cy="86.364288"
       r="12.084575"
       fx="354.74576"
       fy="86.364288"
       id="radialGradient3370"
       xlink:href="#linearGradient3284"
       gradientUnits="userSpaceOnUse"
       gradientTransform="matrix(-1.2755157,0,0,-1.3108101,807.26876,199.80177)" />
    <radialGradient
       cx="354.74576"
       cy="86.364288"
       r="12.084575"
       fx="354.74576"
       fy="86.364288"
       id="radialGradient3378"
       xlink:href="#linearGradient3284"
       gradientUnits="userSpaceOnUse"
       gradientTransform="matrix(-1.2755157,0,0,-1.3108101,807.26876,199.80177)" />
    <radialGradient
       cx="354.74576"
       cy="86.364288"
       r="12.084575"
       fx="354.74576"
       fy="86.364288"
       id="radialGradient3386"
       xlink:href="#linearGradient3284"
       gradientUnits="userSpaceOnUse"
       gradientTransform="matrix(-1.2755157,0,0,-1.3108101,807.26876,199.80177)" />
    <radialGradient
       cx="354.74576"
       cy="86.364288"
       r="12.084575"
       fx="354.74576"
       fy="86.364288"
       id="radialGradient3394"
       xlink:href="#linearGradient3284"
       gradientUnits="userSpaceOnUse"
       gradientTransform="matrix(-1.2755157,0,0,-1.3108101,807.26876,199.80177)" />
    <radialGradient
       cx="354.74576"
       cy="86.364288"
       r="12.084575"
       fx="354.74576"
       fy="86.364288"
       id="radialGradient3402"
       xlink:href="#linearGradient3284"
       gradientUnits="userSpaceOnUse"
       gradientTransform="matrix(-1.2755157,0,0,-1.3108101,807.26876,199.80177)" />
    <radialGradient
       cx="354.74576"
       cy="86.364288"
       r="12.084575"
       fx="354.74576"
       fy="86.364288"
       id="radialGradient3410"
       xlink:href="#linearGradient3284"
       gradientUnits="userSpaceOnUse"
       gradientTransform="matrix(-1.2755157,0,0,-1.3108101,807.26876,199.80177)" />
    <radialGradient
       cx="354.74576"
       cy="86.364288"
       r="12.084575"
       fx="354.74576"
       fy="86.364288"
       id="radialGradient3418"
       xlink:href="#linearGradient3284"
       gradientUnits="userSpaceOnUse"
       gradientTransform="matrix(-1.2755157,0,0,-1.3108101,807.26876,199.80177)" />
    <radialGradient
       cx="354.74576"
       cy="86.364288"
       r="12.084575"
       fx="354.74576"
       fy="86.364288"
       id="radialGradient3426"
       xlink:href="#linearGradient3284"
       gradientUnits="userSpaceOnUse"
       gradientTransform="matrix(-1.2755157,0,0,-1.3108101,807.26876,199.80177)" />
    <radialGradient
       cx="354.74576"
       cy="86.364288"
       r="12.084575"
       fx="354.74576"
       fy="86.364288"
       id="radialGradient3442"
       xlink:href="#linearGradient3284"
       gradientUnits="userSpaceOnUse"
       gradientTransform="matrix(-1.2755157,0,0,-1.3108101,807.26876,199.80177)" />
    <radialGradient
       cx="354.74576"
       cy="86.364288"
       r="12.084575"
       fx="354.74576"
       fy="86.364288"
       id="radialGradient3450"
       xlink:href="#linearGradient3284"
       gradientUnits="userSpaceOnUse"
       gradientTransform="matrix(-1.2755157,0,0,-1.3108101,807.26876,199.80177)" />
    <radialGradient
       cx="354.74576"
       cy="86.364288"
       r="12.084575"
       fx="354.74576"
       fy="86.364288"
       id="radialGradient3458"
       xlink:href="#linearGradient3284"
       gradientUnits="userSpaceOnUse"
       gradientTransform="matrix(-1.2755157,0,0,-1.3108101,807.26876,199.80177)" />
    <radialGradient
       cx="354.74576"
       cy="86.364288"
       r="12.084575"
       fx="354.74576"
       fy="86.364288"
       id="radialGradient3474"
       xlink:href="#linearGradient3284"
       gradientUnits="userSpaceOnUse"
       gradientTransform="matrix(-1.2755157,0,0,-1.3108101,807.26876,199.80177)" />
    <radialGradient
       cx="354.74576"
       cy="86.364288"
       r="12.084575"
       fx="354.74576"
       fy="86.364288"
       id="radialGradient3482"
       xlink:href="#linearGradient3284"
       gradientUnits="userSpaceOnUse"
       gradientTransform="matrix(-1.2755157,0,0,-1.3108101,807.26876,199.80177)" />
    <radialGradient
       cx="354.74576"
       cy="86.364288"
       r="12.084575"
       fx="354.74576"
       fy="86.364288"
       id="radialGradient3490"
       xlink:href="#linearGradient3284"
       gradientUnits="userSpaceOnUse"
       gradientTransform="matrix(-1.2755157,0,0,-1.3108101,807.26876,199.80177)" />
    <radialGradient
       cx="354.74576"
       cy="86.364288"
       r="12.084575"
       fx="354.74576"
       fy="86.364288"
       id="radialGradient3498"
       xlink:href="#linearGradient3284"
       gradientUnits="userSpaceOnUse"
       gradientTransform="matrix(-1.2755157,0,0,-1.3108101,807.26876,199.80177)" />
    <radialGradient
       cx="354.74576"
       cy="86.364288"
       r="12.084575"
       fx="354.74576"
       fy="86.364288"
       id="radialGradient3506"
       xlink:href="#linearGradient3284"
       gradientUnits="userSpaceOnUse"
       gradientTransform="matrix(-1.2755157,0,0,-1.3108101,807.26876,199.80177)" />
    <radialGradient
       cx="354.74576"
       cy="86.364288"
       r="12.084575"
       fx="354.74576"
       fy="86.364288"
       id="radialGradient3514"
       xlink:href="#linearGradient3284"
       gradientUnits="userSpaceOnUse"
       gradientTransform="matrix(-1.2755157,0,0,-1.3108101,807.26876,199.80177)" />
    <radialGradient
       cx="354.74576"
       cy="86.364288"
       r="12.084575"
       fx="354.74576"
       fy="86.364288"
       id="radialGradient3526"
       xlink:href="#linearGradient3284"
       gradientUnits="userSpaceOnUse"
       gradientTransform="matrix(-1.2755157,0,0,-1.3108101,807.26876,199.80177)" />
    <radialGradient
       inkscape:collect="always"
       xlink:href="#linearGradient3557"
       id="radialGradient3276"
       gradientUnits="userSpaceOnUse"
       gradientTransform="matrix(1.4006033,0.02086475,-0.01489532,0.9998891,104.72962,-15.868507)"
       cx="-193.11729"
       cy="92.059685"
       fx="-193.11729"
       fy="92.059685"
       r="5.1800098" />
    <radialGradient
       inkscape:collect="always"
       xlink:href="#linearGradient3557"
       id="radialGradient3278"
       gradientUnits="userSpaceOnUse"
       gradientTransform="matrix(1.4006033,0.02086475,-0.01489532,0.9998891,104.28062,-1.6940981)"
       cx="-193.11729"
       cy="92.059685"
       fx="-193.11729"
       fy="92.059685"
       r="5.1800098" />
  </defs>
  <g
     transform="translate(-896.17646,-244.79892)"
     id="layer1" />
  <text
     xml:space="preserve"
     style="font-size:48px;font-style:normal;font-variant:normal;font-weight:bold;font-stretch:normal;text-align:start;line-height:125%;writing-mode:lr-tb;text-anchor:start;fill:#000000;fill-opacity:1;stroke:none;font-family:Bitstream Vera Sans;-inkscape-font-specification:Bitstream Vera Sans Bold"
     x="-110.18525"
     y="158.08136"
     id="text3029"
     sodipodi:linespacing="125%"><tspan
       sodipodi:role="line"
       id="tspan3031"
       x="-110.18525"
       y="158.08136" /></text>
  <flowRoot
     xml:space="preserve"
     id="flowRoot3099"
     style="font-size:32px;font-style:normal;font-weight:normal;line-height:125%;letter-spacing:0px;word-spacing:0px;fill:#000000;fill-opacity:1;stroke:none;font-family:Sans"
     transform="translate(0,-100)"><flowRegion
       id="flowRegion3101"><rect
         id="rect3103"
         width="238.40707"
         height="97.39183"
         x="-287.103"
         y="98.837891" /></flowRegion><flowPara
       id="flowPara3105" /></flowRoot>  <rect
     style="fill:none;stroke:#00c8e5;stroke-width:6.46111727;stroke-miterlimit:4;stroke-opacity:0.96078431;stroke-dasharray:none;stroke-dashoffset:0"
     id="rect1306"
     width="403"
     height="164"
     x="26.041697"
     y="77.296509"
     ry="32.439892"
     rx="32.439892" />
  <path
     style="fill:none;stroke:#676a6b;stroke-width:12;stroke-linecap:butt;stroke-linejoin:miter;stroke-miterlimit:4;stroke-opacity:0.96078431;stroke-dasharray:none;stroke-dashoffset:0;marker:none;visibility:visible;display:inline;overflow:visible;enable-background:accumulate"
     d="m 57.0417,94.29651 0,128.99999"
     id="path3499"
     sodipodi:nodetypes="cc"
     inkscape:connector-curvature="0" />
  <path
     style="fill:none;stroke:#676a6b;stroke-width:11.99999905;stroke-linecap:butt;stroke-linejoin:miter;stroke-miterlimit:4;stroke-opacity:0.96078431;stroke-dasharray:none;stroke-dashoffset:0;marker:none;visibility:visible;display:inline;overflow:visible"
     d="m 398.81772,95.29652 0,128.99998"
     id="path3501"
     sodipodi:nodetypes="cc"
     inkscape:connector-curvature="0" />
  <path
     style="fill:none;stroke:#000000;stroke-width:2.6347599;stroke-linecap:butt;stroke-linejoin:miter;stroke-miterlimit:4;stroke-opacity:1;stroke-dasharray:none;stroke-dashoffset:0;marker:none;marker-end:url(#Arrow2Mend);visibility:visible;display:inline;overflow:visible;enable-background:accumulate"
     d="m 211.39121,198.12121 c 0.10423,0.0927 67.89461,0.4455 67.89461,0.4455"
     id="path4753"
     sodipodi:nodetypes="cc"
     inkscape:connector-curvature="0" />
  <path
     transform="matrix(3.0094292,0,0,3.0094292,776.51903,-84.07164)"
     d="m -187.02562,93.51281 a 5.1800098,5.1800098 0 1 1 -10.36002,0 5.1800098,5.1800098 0 1 1 10.36002,0 z"
     sodipodi:ry="5.1800098"
     sodipodi:rx="5.1800098"
     sodipodi:cy="93.51281"
     sodipodi:cx="-192.20563"
     id="path3041"
     style="fill:url(#radialGradient3276);fill-opacity:1;stroke:none"
     sodipodi:type="arc" />
  <path
     style="fill:#ffffff;fill-opacity:1;fill-rule:nonzero;stroke:#ffffff;stroke-width:4.87262678;stroke-linecap:butt;stroke-linejoin:miter;stroke-miterlimit:4;stroke-opacity:1;stroke-dasharray:none;stroke-dashoffset:0;marker:none;visibility:visible;display:inline;overflow:visible"
     d="m 205.06063,197.34855 -15.99852,0"
     id="path3043"
     sodipodi:nodetypes="cc"
     inkscape:connector-curvature="0" />
  <g
     id="g6407"
     transform="translate(-76.607055,-98.36037)">
    <path
       inkscape:connector-curvature="0"
       sodipodi:nodetypes="cc"
       id="path4757"
       d="m 215.64876,223.65688 c 0.10423,0.0927 67.89463,0.4455 67.89463,0.4455"
       style="fill:none;stroke:#000000;stroke-width:2.6347599;stroke-linecap:butt;stroke-linejoin:miter;stroke-miterlimit:4;stroke-opacity:1;stroke-dasharray:none;stroke-dashoffset:0;marker:none;marker-end:url(#Arrow2Mend);visibility:visible;display:inline;overflow:visible;enable-background:accumulate" />
    <path
       sodipodi:type="arc"
       style="fill:url(#radialGradient3278);fill-opacity:1;stroke:none"
       id="path3049"
       sodipodi:cx="-192.20563"
       sodipodi:cy="93.51281"
       sodipodi:rx="5.1800098"
       sodipodi:ry="5.1800098"
       d="m -187.02562,93.51281 c 0,2.86084 -2.31917,5.18001 -5.18001,5.18001 -2.86084,0 -5.18001,-2.31917 -5.18001,-5.18001 0,-2.860841 2.31917,-5.18001 5.18001,-5.18001 2.86084,0 5.18001,2.319169 5.18001,5.18001 z"
       transform="matrix(3.0094292,0,0,3.0094292,777.34164,-57.16547)" />
    <path
       inkscape:connector-curvature="0"
       sodipodi:nodetypes="cc"
       id="path3051"
       d="m 205.88325,224.25472 -15.99852,0"
       style="fill:none;stroke:#ffffff;stroke-width:4.87262678;stroke-linecap:butt;stroke-linejoin:miter;stroke-miterlimit:4;stroke-opacity:1;stroke-dasharray:none;stroke-dashoffset:0;marker:none;visibility:visible;display:inline;overflow:visible" />
  </g>
  <g
     id="g3295"
     transform="translate(-4.557433,-0.70652988)">
    <path
       inkscape:connector-curvature="0"
       sodipodi:nodetypes="cc"
       id="path2767"
       d="m 223.90404,399 0,75"
       style="fill:none;stroke:#000000;stroke-width:3.99999952;stroke-linecap:butt;stroke-linejoin:miter;stroke-miterlimit:4;stroke-opacity:1;stroke-dasharray:none;stroke-dashoffset:0;marker:none;visibility:visible;display:inline;overflow:visible" />
    <path
       inkscape:connector-curvature="0"
       sodipodi:nodetypes="cc"
       id="path2769"
       d="m 238.373,419 0,35"
       style="fill:none;stroke:#000000;stroke-width:3.99999976;stroke-linecap:butt;stroke-linejoin:miter;stroke-miterlimit:4;stroke-opacity:1;stroke-dasharray:none;stroke-dashoffset:0;marker:none;visibility:visible;display:inline;overflow:visible" />
    <g
       transform="translate(-2.5002101,-2.211405)"
       id="g3292">
      <path
         style="fill:none;stroke:#000000;stroke-width:3.99999976;stroke-linecap:butt;stroke-linejoin:miter;stroke-miterlimit:4;stroke-opacity:1;stroke-dasharray:none;stroke-dashoffset:0;marker:none;visibility:visible;display:inline;overflow:visible;enable-background:accumulate"
         d="M 197.11021,470 C 197.29591,469.95627 264,407.42281 264,407.42281"
         id="path3428"
         sodipodi:nodetypes="cc"
         inkscape:connector-curvature="0" />
    </g>
    <path
       transform="translate(184.44644,178.99824)"
       d="M 84.700832,218.28344 79.053516,240.00176 63.068558,224.25188 z"
       inkscape:randomized="0"
       inkscape:rounded="0"
       inkscape:flatsided="true"
       sodipodi:arg2="0.2543919"
       sodipodi:arg1="-0.79280563"
       sodipodi:r2="20.762049"
       sodipodi:r1="12.956048"
       sodipodi:cy="227.51236"
       sodipodi:cx="75.607635"
       sodipodi:sides="3"
       id="path6720"
       style="fill:#000000;fill-opacity:0.96078431;fill-rule:nonzero;stroke:none;stroke-width:4;marker:none;visibility:visible;display:inline;overflow:visible;enable-background:accumulate"
       sodipodi:type="star" />
  </g>
  <path
     inkscape:connector-curvature="0"
     id="path4132-1"
     style="opacity:0.98000004;fill:none;stroke:#7619bb;stroke-width:4;stroke-linecap:round;stroke-linejoin:miter;stroke-miterlimit:4;stroke-opacity:0.96078431;stroke-dasharray:none;marker-start:none;marker-mid:none;marker-end:none;display:inline"
     d="m 452.43304,156.8911 c 8.89078,0.034 11.66227,0.0652 15.95555,0.17965 4.37508,0.11662 5.71035,5.6295 7.19168,7.62088 1.48131,1.99139 2.9974,3.15578 4.56161,3.17448 1.56421,0.0187 3.17679,-1.11418 4.82392,-3.06879 1.64713,-1.95461 3.32792,-4.71085 5.0094,-7.48349 1.68146,-2.77264 3.36226,-5.52731 5.00943,-7.48346 1.64717,-1.95617 3.25963,-3.08531 4.82393,-3.0688 1.56431,0.0165 3.08021,1.18466 4.56161,3.1745 1.48142,1.98981 2.9291,4.78128 4.37614,7.58914 1.44702,2.80786 2.89477,5.59777 4.3761,7.58916 1.48132,1.99137 2.99742,3.15577 4.56162,3.17448 1.56422,0.0187 3.17688,-1.1142 4.82394,-3.06879 1.64713,-1.95463 3.32794,-4.71085 5.00942,-7.48349 1.68144,-2.77263 3.36221,-5.52732 5.0094,-7.48346 1.64719,-1.95617 3.25963,-3.08532 4.82395,-3.06879 m 0.12932,-0.0623 c 1.56429,0.0165 3.08022,1.18464 4.56163,3.17449 1.48136,1.98983 2.92907,4.78129 4.37611,7.58915 1.44704,2.80788 2.8948,5.59778 4.37614,7.58916 1.48133,1.99139 2.99742,3.15575 4.5616,3.17447 1.56422,0.0187 3.17682,-1.11416 4.82395,-3.06878 1.6471,-1.95461 3.32792,-4.71084 5.00937,-7.48347"
     sodipodi:nodetypes="cssssssssssssssccsssssc" />
  <path
     sodipodi:type="star"
     style="fill:#7619bb;fill-opacity:0.96078431;fill-rule:nonzero;stroke:#7619bb;stroke-width:4;stroke-linecap:butt;stroke-linejoin:miter;stroke-miterlimit:4;stroke-opacity:0.96078431;stroke-dasharray:none;stroke-dashoffset:0;marker:none;visibility:visible;display:inline;overflow:visible;enable-background:accumulate"
     id="path6067-7"
     sodipodi:sides="3"
     sodipodi:cx="583.38757"
     sodipodi:cy="182.08704"
     sodipodi:r1="6.8830748"
     sodipodi:r2="3.4415374"
     sodipodi:arg1="1.0714496"
     sodipodi:arg2="2.1186472"
     inkscape:flatsided="true"
     inkscape:rounded="0"
     inkscape:randomized="0"
     d="m 586.68355,188.12966 -10.17703,-6.20954 10.46613,-5.70879 z"
     transform="matrix(0.99915549,-0.04108847,0.04108847,0.99915549,-137.57186,-1.8035049)" />
  <path
     style="fill:none;stroke:#000000;stroke-width:4;stroke-linecap:butt;stroke-linejoin:miter;stroke-miterlimit:4;stroke-opacity:1;stroke-dasharray:none"
     d="m 57.0417,223.29651 0,46.99695 2,0 0,0"
     id="path6405"
     inkscape:connector-curvature="0" />
  <path
     style="fill:none;stroke:#000000;stroke-width:4;stroke-linecap:butt;stroke-linejoin:miter;stroke-miterlimit:4;stroke-opacity:1;stroke-dasharray:none"
     d="m 398.04169,224.2965 0,205.99696 2,0 0,0"
     id="path6405-2"
     inkscape:connector-curvature="0" />
  <path
     style="fill:none;stroke:#000000;stroke-width:3.99999952;stroke-linecap:butt;stroke-linejoin:miter;stroke-miterlimit:4;stroke-opacity:1;stroke-dasharray:none"
     d="m 56.815575,318.29346 0,107.99999 2,0 0,0"
     id="path6405-1"
     inkscape:connector-curvature="0" />
  <path
     style="fill:none;stroke:#000000;stroke-width:4;stroke-linecap:butt;stroke-linejoin:miter;stroke-miterlimit:4;stroke-opacity:1;stroke-dasharray:none"
     d="m 58.815576,346.47706 139.999984,0 0,-1"
     id="path6525"
     inkscape:connector-curvature="0" />
  <path
     style="fill:none;stroke:#000000;stroke-width:3.99999976;stroke-linecap:butt;stroke-linejoin:miter;stroke-miterlimit:4;stroke-opacity:1;stroke-dasharray:none"
     d="m 255.81557,346.47706 142,0 0,-1"
     id="path6525-7"
     inkscape:connector-curvature="0" />
  <path
     style="fill:none;stroke:#000000;stroke-width:4;stroke-linecap:butt;stroke-linejoin:miter;stroke-miterlimit:4;stroke-opacity:1;stroke-dasharray:none"
     d="m 55.188862,431.01179 163.626698,0 0,-1"
     id="path6525-1"
     inkscape:connector-curvature="0" />
  <path
     style="fill:none;stroke:#000000;stroke-width:4;stroke-linecap:butt;stroke-linejoin:miter;stroke-miterlimit:4;stroke-opacity:1;stroke-dasharray:none"
     d="m 235.18886,431.29347 162.62671,0 0,-1"
     id="path6525-15"
     inkscape:connector-curvature="0" />
  <path
     style="fill:none;stroke:#ffffff;stroke-width:11.99999905;stroke-linecap:butt;stroke-linejoin:miter;stroke-miterlimit:4;stroke-opacity:1;stroke-dasharray:none;stroke-dashoffset:0;marker:none;visibility:visible;display:inline;overflow:visible"
     d="m 399.04169,135.29651 0,48"
     id="path3501-2"
     sodipodi:nodetypes="cc"
     inkscape:connector-curvature="0" />
  <path
     style="fill:none;stroke:#000000;stroke-width:2;stroke-linecap:butt;stroke-linejoin:miter;stroke-miterlimit:4;stroke-opacity:1;stroke-dasharray:none"
     d="m 89.041696,51.29651 -30,38 0,0"
     id="path3164"
     inkscape:connector-curvature="0" />
  <path
     style="fill:none;stroke:#000000;stroke-width:2;stroke-linecap:butt;stroke-linejoin:miter;stroke-miterlimit:4;stroke-opacity:1;stroke-dasharray:none"
     d="m 423.04169,53.29651 -23,35 0,0"
     id="path3166"
     inkscape:connector-curvature="0" />
  <path
     sodipodi:type="arc"
     style="fill:#ffffff;fill-opacity:1;fill-rule:nonzero;stroke:#000000;stroke-width:6.06577253;stroke-linecap:butt;stroke-linejoin:miter;stroke-miterlimit:4;stroke-opacity:1;stroke-dasharray:none;stroke-dashoffset:0;marker:none;visibility:visible;display:inline;overflow:visible;enable-background:accumulate"
     id="path4769-4-5-7"
     sodipodi:cx="139.84557"
     sodipodi:cy="334.4133"
     sodipodi:rx="40.281605"
     sodipodi:ry="40.281605"
     d="m 180.12717,334.4133 a 40.281605,40.281605 0 1 1 -80.563209,0 40.281605,40.281605 0 1 1 80.563209,0 z"
     transform="matrix(0.65943784,0,0,0.65943784,-35.0306,69.331889)" />
  <text
     xml:space="preserve"
     style="font-size:56px;font-style:normal;font-variant:normal;font-weight:normal;font-stretch:normal;text-align:start;line-height:125%;writing-mode:lr-tb;text-anchor:start;fill:#000000;fill-opacity:1;stroke:none;font-family:Bitstream Vera Sans;-inkscape-font-specification:Bitstream Vera Sans"
     x="43.849007"
     y="304.17307"
     id="text4773-8"
     sodipodi:linespacing="125%"><tspan
       sodipodi:role="line"
       id="tspan4775-2"
       x="43.849007"
       y="304.17307"
       style="font-size:40px">A</tspan></text>
  <g
     id="g3283"
     transform="translate(307.80544,-178.02294)">
    <path
       transform="matrix(0.65943784,0,0,0.65943784,-172.93785,303.47522)"
       d="m 180.12717,334.4133 c 0,22.24692 -18.03469,40.2816 -40.2816,40.2816 -22.24692,0 -40.281609,-18.03468 -40.281609,-40.2816 0,-22.24692 18.034689,-40.28161 40.281609,-40.28161 22.24691,0 40.2816,18.03469 40.2816,40.28161 z"
       sodipodi:ry="40.281605"
       sodipodi:rx="40.281605"
       sodipodi:cy="334.4133"
       sodipodi:cx="139.84557"
       id="path4769-4-5"
       style="fill:#ffffff;fill-opacity:1;fill-rule:nonzero;stroke:#000000;stroke-width:6.06577253;stroke-linecap:butt;stroke-linejoin:miter;stroke-miterlimit:4;stroke-opacity:1;stroke-dasharray:none;stroke-dashoffset:0;marker:none;visibility:visible;display:inline;overflow:visible;enable-background:accumulate"
       sodipodi:type="arc" />
    <text
       sodipodi:linespacing="125%"
       id="text4773-5-5"
       y="538.31641"
       x="-93.989876"
       style="font-size:56px;font-style:normal;font-variant:normal;font-weight:normal;font-stretch:normal;text-align:start;line-height:125%;writing-mode:lr-tb;text-anchor:start;fill:#000000;fill-opacity:1;stroke:none;font-family:Bitstream Vera Sans;-inkscape-font-specification:Bitstream Vera Sans"
       xml:space="preserve"><tspan
         style="font-size:40px"
         y="538.31641"
         x="-93.989876"
         id="tspan4775-5-1"
         sodipodi:role="line">V</tspan></text>
  </g>
  <g
     transform="translate(-118.40625,3.5086523)"
     style="font-size:32px;font-style:normal;font-weight:bold;line-height:125%;letter-spacing:0px;word-spacing:0px;fill:#000000;fill-opacity:1;stroke:none;font-family:Sans;-inkscape-font-specification:Sans Bold"
     id="flowRoot3243">
    <path
       d="m 225.50293,18.663223 c 1.30924,0.128277 2.3776,0.308941 3.20508,0.541992 0.29621,0.126323 0.44433,0.335958 0.44433,0.628906 0,0.414083 -0.24935,0.668314 -0.74804,0.762695 -0.48959,0.126973 -0.87761,0.204773 -1.16407,0.233399 -0.35938,0.771503 -0.75358,1.502622 -1.18261,2.193359 -0.36264,0.621111 -0.66895,0.996111 -0.91895,1.125 l 6.9541,0 c -0.008,0.05666 0.008,0.01076 0.0508,-0.137695 0.50911,-2.241518 0.76366,-4.338521 0.76368,-6.291016 -2e-5,-0.416643 -0.0511,-0.929338 -0.15332,-1.538086 1.29751,0.149113 2.32713,0.34703 3.08886,0.59375 0.46223,0.09898 0.69335,0.342146 0.69336,0.729493 -1e-5,0.259137 -0.25229,0.534202 -0.75683,0.825195 -0.38478,0.213564 -0.62958,0.339214 -0.73438,0.376953 -0.17514,2.102233 -0.47462,3.916034 -0.89844,5.441406 l 12.29493,0 1.57617,-1.685547 c 1.0169,0.630877 1.87106,1.213233 2.5625,1.747071 0.27861,0.153662 0.41794,0.359716 0.41797,0.618164 -3e-5,0.555353 -0.28812,0.833022 -0.86426,0.833008 l -16.20215,0 c -10e-6,-0.101548 -0.0176,-0.117498 -0.0527,-0.04785 -0.46226,1.608086 -0.9756,2.95802 -1.54004,4.049805 l 10.55273,0 1.37012,-1.072266 c 0.87432,0.577485 1.51788,1.063162 1.93066,1.457031 0.24216,0.211599 0.36326,0.442719 0.36328,0.69336 -2e-5,0.222665 -0.2051,0.443368 -0.61523,0.662109 -0.33466,0.222665 -0.69859,0.378915 -1.0918,0.46875 -1.2663,2.156908 -2.51564,3.872075 -3.74804,5.145508 -0.71226,0.859378 -1.37567,1.485679 -1.99024,1.878906 0.39451,0.166668 0.88345,0.390301 1.4668,0.670899 1.21808,0.649088 2.65395,1.26595 4.30762,1.850586 1.77341,0.523436 3.88278,0.994789 6.32812,1.414062 l 0,1.058594 c -0.88089,0.08984 -1.50003,0.427405 -1.85742,1.012695 -2.45966,-0.609379 -4.52216,-1.252933 -6.1875,-1.930664 -1.57685,-0.57357 -2.9743,-1.262696 -4.19238,-2.067383 -0.54039,-0.3125 -0.93655,-0.603841 -1.18848,-0.874023 0.082,-6.51e-4 0.0941,0.01367 0.0361,0.04297 -1.20705,0.757812 -2.51108,1.46061 -3.91211,2.108398 -1.54493,0.691404 -3.09766,1.297198 -4.6582,1.817383 -1.65821,0.559892 -3.6517,1.024409 -5.98047,1.393554 l -0.20019,-1.026367 c 2.85546,-0.703779 4.85676,-1.306968 6.0039,-1.80957 1.21093,-0.403648 2.69009,-1.001954 4.4375,-1.794922 1.06965,-0.584635 2.07258,-1.163736 3.00879,-1.737305 -0.35679,-0.197915 -0.74969,-0.522784 -1.17871,-0.974609 -1.15887,-1.138668 -2.11818,-2.386063 -2.87793,-3.742187 -0.67644,-1.0983 -1.04819,-2.07063 -1.11523,-2.916993 0.11652,0.264332 0.0726,0.589853 -0.13184,0.976563 -1.17514,2.061855 -2.36882,3.784184 -3.58105,5.166992 -1.31121,1.572918 -3.12208,3.038411 -5.43262,4.396484 l -0.69531,-1.09082 c 2.23892,-1.662108 3.96549,-3.298825 5.17968,-4.910156 1.13151,-1.399734 2.16276,-3.081373 3.09375,-5.044922 0.7858,-1.631499 1.45963,-3.373034 2.02149,-5.224609 l -7.50684,0 c -0.20378,0.143243 -0.49772,0.214858 -0.88183,0.214843 -0.71941,1.5e-5 -1.07911,-0.235662 -1.07911,-0.707031 l 0.10254,-0.260742 c 0.1224,-0.12238 0.3291,-0.425765 0.62012,-0.910156 0.42903,-0.714827 0.81966,-1.365868 1.17188,-1.953125 0.27994,-0.599591 0.52245,-1.195944 0.72753,-1.789063 0.23828,-0.557922 0.4196,-1.088846 0.54395,-1.592773 z m 6.89648,12.483398 c 0.36588,0.908212 0.91829,1.868172 1.65723,2.879883 0.86131,1.270838 1.80663,2.351567 2.83594,3.242187 0.37824,0.298832 0.68195,0.551761 0.91113,0.75879 0.80272,-0.794268 1.65884,-1.788082 2.56836,-2.981446 1.00974,-1.186842 1.86131,-2.486645 2.55469,-3.899414 z m 7.84571,-13.49414 c 1.29294,0.589866 2.27764,1.180685 2.9541,1.77246 0.59307,0.445985 1.0309,0.919291 1.31348,1.419922 0.21807,0.364603 0.32712,0.711933 0.32714,1.041993 -2e-5,0.882179 -0.34963,1.323259 -1.04882,1.323242 -0.26891,1.7e-5 -0.49873,-0.06769 -0.68946,-0.203125 -0.18296,-0.123681 -0.35484,-0.391909 -0.51562,-0.804688 -0.3607,-0.78058 -0.73896,-1.408509 -1.13477,-1.883789 -0.40692,-0.522766 -1.00783,-1.110981 -1.80273,-1.764648 z"
       style=""
       id="path3359" />
    <path
       d="m 260.67578,15.966934 c 2.3203,0.433617 3.48046,0.905622 3.48047,1.416015 -10e-6,0.41669 -0.56642,0.668643 -1.69922,0.75586 -0.3047,0.681662 -0.70867,1.224305 -1.21191,1.627929 l 2.90429,0 1.06348,-1.348632 c 0.94335,0.489604 1.59211,0.95282 1.94629,1.389648 0.22459,0.22463 0.3369,0.427429 0.33691,0.608398 -10e-6,0.320984 -0.41896,0.716166 -1.25683,1.185547 l 0,9.960938 c 0.20897,-0.811839 0.46906,-1.680003 0.78027,-2.604492 1.12629,0.39975 1.98957,0.806976 2.58984,1.221679 0.22525,0.147797 0.33788,0.334971 0.3379,0.561524 -2e-5,0.238942 -0.18166,0.430999 -0.54493,0.576172 -0.36525,0.107431 -0.64487,0.168628 -0.83886,0.183593 -0.71031,0.896493 -1.48504,1.793627 -2.32422,2.691407 l 0,8.069336 c -2e-5,0.763018 -0.16961,1.350908 -0.50879,1.763671 -0.29298,0.360023 -0.68458,0.651363 -1.17481,0.874024 -0.44988,0.247391 -0.97559,0.371089 -1.57714,0.371094 -10e-6,-0.613286 -0.07,-0.989588 -0.20997,-1.128907 -0.2129,-0.212894 -0.55372,-0.398115 -1.02246,-0.555664 -0.75521,-0.226565 -1.6517,-0.376956 -2.68945,-0.451172 l 0,-1.307617 c 1.79101,0.306639 3.29459,0.459959 4.51074,0.459961 0.3164,-2e-6 0.50585,-0.02604 0.56836,-0.07813 0.0657,-0.04688 0.0986,-0.243491 0.0986,-0.589844 l 0,-5.96875 c -0.30404,0.574874 -0.84734,1.158533 -1.62988,1.750977 -1.01498,0.873049 -2.29167,1.790366 -3.83008,2.751953 -1.30274,0.848958 -2.83854,1.696939 -4.60742,2.543945 l -0.59472,-0.745117 c 2.10741,-1.337239 3.84765,-2.530598 5.2207,-3.580078 1.3509,-1.033851 2.60611,-2.109696 3.76562,-3.227539 0.64387,-0.644525 1.17187,-1.058262 1.58399,-1.241211 -0.69988,0.351569 -1.44728,0.634121 -2.24219,0.847656 -1.15691,0.330735 -2.26921,0.638352 -3.33691,0.922852 -0.9629,0.246749 -1.89942,0.441411 -2.80957,0.583984 -0.21094,0.779301 -0.45606,1.168949 -0.73536,1.168946 -0.33594,3e-6 -0.94075,-1.009436 -1.81445,-3.028321 1.30599,-0.128249 2.32747,-0.24153 3.06445,-0.339843 l 0,-13.274415 c 0,-0.763651 -0.0817,-1.552387 -0.24511,-2.36621 l 2.27051,1.348632 1.69238,0 c 0.18619,-0.45115 0.32746,-0.936827 0.42383,-1.457031 0.0983,-0.528623 0.18684,-1.309547 0.26562,-2.342773 z m -2.37207,17.863281 c 0.66275,-0.143222 1.45605,-0.307936 2.37988,-0.494141 1.11523,-0.206373 2.29882,-0.456698 3.55078,-0.750976 l 0,-2.296875 -5.93066,0 z m 0,-4.994141 5.93066,0 0,-3.174804 -5.93066,0 z m 0,-4.6875 5.93066,0 0,-2.929687 -5.93066,0 z m 8.8418,-0.123047 c 1.14907,0.245459 2.45864,0.368181 3.92871,0.368164 l 5.66113,0 0,-5.417968 c -2e-5,-1.156879 -0.0511,-2.088193 -0.15332,-2.793946 1.44203,0.151717 2.60251,0.426457 3.48145,0.824219 0.3639,0.132185 0.54587,0.339542 0.54589,0.62207 -2e-5,0.327497 -0.21356,0.567406 -0.64062,0.719727 -0.45315,0.129579 -0.81155,0.219423 -1.0752,0.269531 l 0,5.776367 0.4375,0 1.61915,-1.71582 c 0.92965,0.637387 1.74085,1.231462 2.43359,1.782227 0.25453,0.19012 0.3818,0.404638 0.38183,0.643554 -3e-5,0.514989 -0.27802,0.772476 -0.83398,0.772461 l -4.03809,0 0,16.385743 c -2e-5,0.77669 -0.19989,1.365231 -0.5996,1.765625 -0.31774,0.361975 -0.75589,0.65006 -1.31446,0.864257 -0.50588,0.2526 -1.0801,0.378902 -1.72265,0.378907 l -0.0527,-0.670899 c -0.0436,-0.216801 -0.12274,-0.368168 -0.2373,-0.454101 -0.21422,-0.214848 -0.64716,-0.413741 -1.29883,-0.59668 -0.6452,-0.202477 -1.51207,-0.340172 -2.60059,-0.413086 l 0,-1.308594 c 1.71548,0.306639 3.13735,0.459959 4.26563,0.459961 0.62628,-2e-6 1.02048,-0.0485 1.18261,-0.145508 0.14647,-0.06771 0.21971,-0.282879 0.21973,-0.645507 l 0,-15.620118 -5.66113,0 c -1.41929,0.01955 -2.47072,0.06056 -3.1543,0.123047 z m 2.40625,4.41211 c 0.95571,0.61785 1.72556,1.208995 2.30957,1.773437 0.67446,0.510427 1.20831,1.011403 1.60156,1.50293 0.47915,0.524748 0.80792,0.99838 0.98633,1.420898 0.16469,0.373705 0.24705,0.760749 0.24707,1.161133 -2e-5,0.351569 -0.0638,0.654303 -0.19141,0.908203 -0.24611,0.337896 -0.53192,0.506841 -0.85742,0.506836 -0.33856,5e-6 -0.58986,-0.0957 -0.75391,-0.287109 -0.23634,-0.130854 -0.41571,-0.490229 -0.53808,-1.078125 -0.15041,-0.563144 -0.39195,-1.129225 -0.72461,-1.698242 -0.32098,-0.564445 -0.66864,-1.089835 -1.04297,-1.576172 -0.39976,-0.546214 -0.96519,-1.179026 -1.69629,-1.898438 z"
       style=""
       id="path3361" />
    <path
       d="m 285.38965,23.045059 c 1.13997,0.265642 2.42903,0.398454 3.86719,0.398437 l 0.75878,0 0,-4.467773 c 0,-1.07029 -0.0407,-2.001604 -0.12207,-2.793946 1.45442,0.151066 2.58203,0.38479 3.38282,0.701172 0.42968,0.184268 0.64452,0.432641 0.64453,0.745117 -1e-5,0.317731 -0.21225,0.536807 -0.63672,0.657227 -0.38543,0.193381 -0.75554,0.311545 -1.11035,0.354492 l 0,4.803711 0.84082,0 1.45117,-1.470703 c 0.91601,0.535825 1.70279,1.060239 2.36035,1.573242 0.24869,0.155616 0.37304,0.347999 0.37305,0.577149 -1e-5,0.514989 -0.2269,0.772476 -0.68067,0.772461 l -4.34472,0 0,1.679687 c 0.90168,0.44142 1.69823,0.94793 2.38965,1.519531 0.56444,0.41082 0.99445,0.837903 1.29004,1.28125 0.24347,0.364594 0.36522,0.737966 0.36523,1.120118 -10e-6,0.861988 -0.30861,1.292977 -0.92578,1.292968 -0.27019,9e-6 -0.51661,-0.07942 -0.73926,-0.238281 -0.18295,-0.114574 -0.34832,-0.319652 -0.49609,-0.615234 -0.41342,-0.869131 -0.83334,-1.536773 -1.25977,-2.00293 -0.31381,-0.355457 -0.52182,-0.690092 -0.62402,-1.003906 l 0,14.456054 c -1e-5,0.429035 0.0176,0.714191 0.0527,0.855469 0.0469,0.39583 0.0703,0.713213 0.0703,0.952149 0,0.861974 -0.43132,1.292963 -1.29394,1.292968 -0.73959,-5e-6 -1.10938,-0.257491 -1.10938,-0.772461 0,-0.458988 0.0202,-1.025393 0.0605,-1.699218 0.041,-0.716148 0.0615,-1.334311 0.0615,-1.854493 l 0,-12.126953 c 0.14128,0.838553 0.006,1.670258 -0.40625,2.495118 -0.38737,0.936857 -0.86588,1.902676 -1.43554,2.89746 -0.51042,0.878261 -1.2448,1.878911 -2.20313,3.001954 l -0.7041,-0.814454 c 0.65365,-1.201166 1.22266,-2.3636 1.70703,-3.487304 0.38216,-0.855461 0.75293,-1.833324 1.11231,-2.933594 0.33202,-1.050119 0.62467,-2.146146 0.87793,-3.288086 0.21093,-0.823553 0.3776,-1.492823 0.5,-2.007812 l -0.20703,0 c -1.39844,0.01955 -2.45346,0.06056 -3.16504,0.123046 z m 9.31445,-5.514649 c 1.03775,0.163434 2.2858,0.24514 3.74414,0.245117 l 9.33789,0 1.49024,-1.103515 c 0.76104,0.630882 1.34047,1.217796 1.73828,1.760742 0.12432,0.184918 0.1865,0.365907 0.18652,0.542969 -2e-5,0.229188 -0.22952,0.450867 -0.68847,0.665039 -0.28779,0.08856 -0.4831,0.145854 -0.58594,0.171875 l -1.4834,7.032226 3.12598,0 1.3125,-1.103515 c 0.88864,0.606785 1.5667,1.102878 2.03418,1.488281 0.22002,0.220065 0.33004,0.451185 0.33007,0.693359 -3e-5,0.253268 -0.22691,0.479179 -0.68066,0.677735 -0.32425,0.194022 -0.65661,0.331717 -0.99707,0.413086 -1.0124,2.639331 -2.00979,4.705736 -2.99219,6.199218 -0.74091,1.357426 -1.45185,2.37598 -2.13281,3.055664 0.28904,0.21745 0.59893,0.472984 0.92969,0.766602 1.0807,1.020834 2.16208,1.78125 3.24414,2.28125 0.96286,0.601561 2.03317,1.029946 3.21093,1.285156 l 0,0.953125 c -1.14325,-3e-6 -1.83336,0.316729 -2.07031,0.950196 -1.80797,-0.814457 -3.19534,-1.694664 -4.16211,-2.640625 -1.02281,-0.794272 -1.8301,-1.609375 -2.42187,-2.445313 -0.60614,0.672527 -1.37893,1.347331 -2.31836,2.024414 -1.18427,0.822915 -2.3633,1.518227 -3.53711,2.085938 -1.38934,0.694657 -3.03582,1.27506 -4.93945,1.741211 l -0.20411,-1.024414 c 2.18163,-0.813154 3.70962,-1.495445 4.58399,-2.046875 0.95701,-0.552085 2.12596,-1.302084 3.50683,-2.25 0.67316,-0.539062 1.32616,-1.092772 1.95899,-1.661133 0.003,0.08138 -0.0192,0.09766 -0.0654,0.04883 -1.18166,-1.476559 -2.16083,-3.1123 -2.9375,-4.907227 -0.76695,-1.501293 -1.4258,-3.192047 -1.97656,-5.072265 l 0.15625,0 c -0.028,0.403006 -0.0746,0.844086 -0.13965,1.323242 -0.22202,1.830738 -0.60939,3.565762 -1.16211,5.205078 -0.53778,1.882816 -1.19826,3.348961 -1.98145,4.398437 -0.91342,1.811849 -2.28484,3.593097 -4.11425,5.34375 l -0.77051,-0.90039 c 1.41731,-1.713543 2.49217,-3.251628 3.22461,-4.614258 0.66665,-1.252602 1.20051,-2.501298 1.60156,-3.746094 0.37759,-1.148431 0.7093,-2.674146 0.99512,-4.577148 0.26561,-1.798817 0.39842,-4.276353 0.39843,-7.432617 l 0,-4.069336 -1.00488,0 c -1.57358,2.1e-5 -2.62989,0.03095 -3.16894,0.09277 z m 6.9375,1.757813 0,4.069336 c -2e-5,1.372411 -0.0511,2.534845 -0.15332,3.487304 l 4.88672,0 1.6875,-7.55664 z m 0.98047,9.069336 c 0.638,1.622406 1.24184,3.023446 1.81152,4.203125 0.67967,1.320319 1.39126,2.492193 2.13477,3.515625 0.30466,0.423832 0.5488,0.778324 0.73242,1.063476 -0.0671,-0.0345 -0.0482,-0.117184 0.0566,-0.248047 0.71482,-0.94075 1.44985,-2.186517 2.20508,-3.737304 0.79034,-1.438794 1.47523,-3.03775 2.05469,-4.796875 z"
       style=""
       id="path3363" />
  </g>
  <g
     transform="translate(281.59375,169.50865)"
     style="font-size:32px;font-style:normal;font-weight:bold;line-height:125%;letter-spacing:0px;word-spacing:0px;fill:#000000;fill-opacity:1;stroke:none;font-family:Sans;-inkscape-font-specification:Sans Bold"
     id="flowRoot3243-1">
    <path
       d="m 235.08301,16.181777 c 1.4785,0.151066 2.60708,0.38479 3.38574,0.701172 0.42772,0.184268 0.64158,0.432641 0.6416,0.745117 -2e-5,0.317731 -0.21616,0.537783 -0.64844,0.660157 -0.40496,0.192079 -0.77117,0.308615 -1.09863,0.349609 l 0,10.198242 9.0791,0 1.57617,-1.746093 c 0.98175,0.626965 1.8307,1.227225 2.54688,1.800781 0.28838,0.160819 0.43259,0.359061 0.43262,0.594726 -3e-5,0.535167 -0.28812,0.802745 -0.86426,0.802735 l -9.67578,0 0,11.208008 c -2e-5,0.237628 0.0641,0.428709 0.19238,0.573242 0.0729,0.109373 0.2643,0.193683 0.57422,0.252929 0.46482,0.05794 1.43259,0.08691 2.90332,0.08691 1.16078,-10e-7 2.19561,-0.03841 3.10449,-0.115234 0.30727,-0.01693 0.52406,-0.09571 0.65039,-0.236328 0.14451,-0.128257 0.25941,-0.361004 0.34473,-0.698242 0.2057,-0.600261 0.42152,-2.047851 0.64746,-4.342774 l 1.1123,0.207032 0,3.8125 c -2e-5,0.282551 0.0433,0.495441 0.12989,0.638671 0.13018,0.210286 0.32191,0.365884 0.57519,0.466797 0.28578,0.143228 0.42868,0.377602 0.42871,0.703125 -3e-5,0.114581 -0.0707,0.284503 -0.21191,0.509766 -0.22269,0.249997 -0.57392,0.440101 -1.05371,0.570312 -0.51631,0.180335 -1.26403,0.291989 -2.24317,0.334961 -1.05992,0.08203 -2.00686,0.123043 -2.84082,0.123047 -1.51955,-4e-6 -2.64097,-0.04135 -3.36425,-0.124023 -0.73375,-0.02084 -1.2982,-0.108077 -1.69336,-0.261719 -0.49937,-0.142581 -0.86493,-0.387373 -1.09668,-0.734375 -0.21161,-0.343101 -0.3174,-0.635744 -0.31739,-0.87793 l 0,-12.096679 -4.98828,0 c -0.0195,2.128914 -0.16375,3.834967 -0.43261,5.118164 -0.29168,1.396488 -0.76694,2.605145 -1.42579,3.625976 -0.69011,1.065756 -1.44304,1.957031 -2.25878,2.673828 -1.05926,0.864582 -2.12729,1.603513 -3.20411,2.216797 -0.94922,0.486325 -2.22331,0.976558 -3.82226,1.470703 l -0.53613,-0.938476 c 1.3177,-0.588545 2.40657,-1.12305 3.2666,-1.603516 0.76822,-0.432944 1.49804,-0.916017 2.18945,-1.449218 0.67122,-0.611329 1.30826,-1.288737 1.91113,-2.032227 0.52213,-0.637368 0.9541,-1.378253 1.2959,-2.222656 0.29361,-0.842444 0.51073,-1.794917 0.65137,-2.857422 0.12238,-0.999993 0.194,-2.333976 0.21484,-4.001953 l -5.50879,0 c -1.41341,0.01954 -2.47656,0.07065 -3.18945,0.15332 l -0.73926,-2.003906 c 1.15885,0.265637 2.46842,0.398449 3.92871,0.398437 l 9.55274,0 0,-9.860351 c -2e-5,-1.07029 -0.0407,-2.001604 -0.12207,-2.793946 z m -8.51465,3.216797 c 0.97655,0.672547 1.77668,1.361674 2.40039,2.067383 0.71093,0.628274 1.27896,1.239927 1.7041,1.834961 0.472,0.575537 0.7731,1.067724 0.90332,1.476563 0.18163,0.490249 0.27245,0.966811 0.27246,1.429687 -1e-5,0.373712 -0.0677,0.682305 -0.20312,0.925781 -0.21486,0.306003 -0.49676,0.458998 -0.84571,0.458985 -0.33073,1.3e-5 -0.59603,-0.09992 -0.79589,-0.299805 -0.21095,-0.15819 -0.38152,-0.541653 -0.51172,-1.150391 -0.16538,-0.701808 -0.42156,-1.371078 -0.76856,-2.007812 -0.33073,-0.702457 -0.7181,-1.36066 -1.16211,-1.97461 -0.35547,-0.542949 -0.91244,-1.235332 -1.6709,-2.077148 z m 18.27637,-0.735351 c 1.24216,0.281922 2.27699,0.640971 3.10449,1.077148 0.235,0.201193 0.35251,0.385763 0.35254,0.553711 -3e-5,0.327494 -0.21194,0.567077 -0.63574,0.71875 -0.52868,0.137389 -0.93981,0.206074 -1.2334,0.206055 -0.27282,0.545591 -0.58922,1.036802 -0.94922,1.473633 -0.47398,0.80861 -0.96031,1.525406 -1.45899,2.15039 -0.46161,0.567073 -0.93915,1.066421 -1.43261,1.498047 -0.4538,0.474623 -1.13609,0.983412 -2.04688,1.526367 l -0.77441,-0.71289 c 0.76821,-0.725898 1.39874,-1.42772 1.8916,-2.105469 0.56313,-0.718083 1.12953,-1.549462 1.69922,-2.494141 0.39516,-0.720033 0.76788,-1.511699 1.11816,-2.375 0.15167,-0.378234 0.27342,-0.883768 0.36524,-1.516601 z"
       style=""
       id="path3373" />
  </g>
  <g
     transform="translate(3.59375,76.508652)"
     style="font-size:32px;font-style:normal;font-weight:bold;line-height:125%;letter-spacing:0px;word-spacing:0px;fill:#000000;fill-opacity:1;stroke:none;font-family:Sans;-inkscape-font-specification:Sans Bold"
     id="flowRoot3243-9">
    <path
       d="m 235.08301,16.181777 c 1.4785,0.151066 2.60708,0.38479 3.38574,0.701172 0.42772,0.184268 0.64158,0.432641 0.6416,0.745117 -2e-5,0.317731 -0.21616,0.537783 -0.64844,0.660157 -0.40496,0.192079 -0.77117,0.308615 -1.09863,0.349609 l 0,10.198242 9.0791,0 1.57617,-1.746093 c 0.98175,0.626965 1.8307,1.227225 2.54688,1.800781 0.28838,0.160819 0.43259,0.359061 0.43262,0.594726 -3e-5,0.535167 -0.28812,0.802745 -0.86426,0.802735 l -9.67578,0 0,11.208008 c -2e-5,0.237628 0.0641,0.428709 0.19238,0.573242 0.0729,0.109373 0.2643,0.193683 0.57422,0.252929 0.46482,0.05794 1.43259,0.08691 2.90332,0.08691 1.16078,-10e-7 2.19561,-0.03841 3.10449,-0.115234 0.30727,-0.01693 0.52406,-0.09571 0.65039,-0.236328 0.14451,-0.128257 0.25941,-0.361004 0.34473,-0.698242 0.2057,-0.600261 0.42152,-2.047851 0.64746,-4.342774 l 1.1123,0.207032 0,3.8125 c -2e-5,0.282551 0.0433,0.495441 0.12989,0.638671 0.13018,0.210286 0.32191,0.365884 0.57519,0.466797 0.28578,0.143228 0.42868,0.377602 0.42871,0.703125 -3e-5,0.114581 -0.0707,0.284503 -0.21191,0.509766 -0.22269,0.249997 -0.57392,0.440101 -1.05371,0.570312 -0.51631,0.180335 -1.26403,0.291989 -2.24317,0.334961 -1.05992,0.08203 -2.00686,0.123043 -2.84082,0.123047 -1.51955,-4e-6 -2.64097,-0.04135 -3.36425,-0.124023 -0.73375,-0.02084 -1.2982,-0.108077 -1.69336,-0.261719 -0.49937,-0.142581 -0.86493,-0.387373 -1.09668,-0.734375 -0.21161,-0.343101 -0.3174,-0.635744 -0.31739,-0.87793 l 0,-12.096679 -4.98828,0 c -0.0195,2.128914 -0.16375,3.834967 -0.43261,5.118164 -0.29168,1.396488 -0.76694,2.605145 -1.42579,3.625976 -0.69011,1.065756 -1.44304,1.957031 -2.25878,2.673828 -1.05926,0.864582 -2.12729,1.603513 -3.20411,2.216797 -0.94922,0.486325 -2.22331,0.976558 -3.82226,1.470703 l -0.53613,-0.938476 c 1.3177,-0.588545 2.40657,-1.12305 3.2666,-1.603516 0.76822,-0.432944 1.49804,-0.916017 2.18945,-1.449218 0.67122,-0.611329 1.30826,-1.288737 1.91113,-2.032227 0.52213,-0.637368 0.9541,-1.378253 1.2959,-2.222656 0.29361,-0.842444 0.51073,-1.794917 0.65137,-2.857422 0.12238,-0.999993 0.194,-2.333976 0.21484,-4.001953 l -5.50879,0 c -1.41341,0.01954 -2.47656,0.07065 -3.18945,0.15332 l -0.73926,-2.003906 c 1.15885,0.265637 2.46842,0.398449 3.92871,0.398437 l 9.55274,0 0,-9.860351 c -2e-5,-1.07029 -0.0407,-2.001604 -0.12207,-2.793946 z m -8.51465,3.216797 c 0.97655,0.672547 1.77668,1.361674 2.40039,2.067383 0.71093,0.628274 1.27896,1.239927 1.7041,1.834961 0.472,0.575537 0.7731,1.067724 0.90332,1.476563 0.18163,0.490249 0.27245,0.966811 0.27246,1.429687 -1e-5,0.373712 -0.0677,0.682305 -0.20312,0.925781 -0.21486,0.306003 -0.49676,0.458998 -0.84571,0.458985 -0.33073,1.3e-5 -0.59603,-0.09992 -0.79589,-0.299805 -0.21095,-0.15819 -0.38152,-0.541653 -0.51172,-1.150391 -0.16538,-0.701808 -0.42156,-1.371078 -0.76856,-2.007812 -0.33073,-0.702457 -0.7181,-1.36066 -1.16211,-1.97461 -0.35547,-0.542949 -0.91244,-1.235332 -1.6709,-2.077148 z m 18.27637,-0.735351 c 1.24216,0.281922 2.27699,0.640971 3.10449,1.077148 0.235,0.201193 0.35251,0.385763 0.35254,0.553711 -3e-5,0.327494 -0.21194,0.567077 -0.63574,0.71875 -0.52868,0.137389 -0.93981,0.206074 -1.2334,0.206055 -0.27282,0.545591 -0.58922,1.036802 -0.94922,1.473633 -0.47398,0.80861 -0.96031,1.525406 -1.45899,2.15039 -0.46161,0.567073 -0.93915,1.066421 -1.43261,1.498047 -0.4538,0.474623 -1.13609,0.983412 -2.04688,1.526367 l -0.77441,-0.71289 c 0.76821,-0.725898 1.39874,-1.42772 1.8916,-2.105469 0.56313,-0.718083 1.12953,-1.549462 1.69922,-2.494141 0.39516,-0.720033 0.76788,-1.511699 1.11816,-2.375 0.15167,-0.378234 0.27342,-0.883768 0.36524,-1.516601 z"
       style=""
       id="path3376" />
    <path
       d="m 266.44043,16.304824 c 1.27668,0.195337 2.2578,0.407251 2.94336,0.635742 0.37563,0.102237 0.56346,0.331404 0.56348,0.6875 -2e-5,0.334007 -0.19013,0.535505 -0.57032,0.604493 -0.28582,0.122418 -0.50425,0.198915 -0.65527,0.229492 l 0,3.87793 8.02051,0 1.06347,-1.347657 c 0.95831,0.482441 1.61716,0.945657 1.97657,1.389649 0.22458,0.224627 0.33688,0.427426 0.33691,0.608398 -3e-5,0.310564 -0.36754,0.700863 -1.10254,1.170899 l 0,8.388671 c -2e-5,1.553392 0.0185,2.546881 0.0557,2.980469 0.0442,0.644536 0.0664,1.13184 0.0664,1.461914 -2e-5,0.358076 -0.16799,0.674482 -0.5039,0.949219 -0.35615,0.126956 -0.63968,0.190432 -0.85059,0.19043 -0.61721,2e-6 -0.92581,-0.22656 -0.92578,-0.679688 l 0,-1.158203 -8.13672,0 0,5.080078 c -2e-5,0.26302 0.0534,0.42871 0.16016,0.497071 0.28839,0.162107 0.76886,0.272784 1.4414,0.332031 0.80142,0.137368 2.11391,0.206053 3.9375,0.206054 1.4798,-10e-7 2.63344,-0.02832 3.46094,-0.08496 0.67641,-0.08008 1.20407,-0.199546 1.58301,-0.358399 0.30531,-0.08724 0.51332,-0.328126 0.62402,-0.722656 0.26299,-0.688151 0.55954,-2.505532 0.88965,-5.452149 l 1.23144,0.192383 c -0.0821,1.70443 -0.12307,3.347983 -0.12304,4.930664 -3e-5,0.194661 0.0397,0.325195 0.11914,0.391602 0.0514,0.101561 0.18226,0.205077 0.39258,0.310547 0.49671,0.248045 0.74508,0.575844 0.74511,0.983398 -3e-5,0.334633 -0.2165,0.596677 -0.64941,0.786133 -0.49092,0.28971 -1.1055,0.478838 -1.84375,0.567383 -0.78779,0.142574 -1.72919,0.244788 -2.82422,0.30664 -1.22984,0.08203 -2.43166,0.123043 -3.60547,0.123047 -1.71747,-4e-6 -3.01694,-0.04102 -3.89844,-0.123047 -1.20574,-0.126956 -1.99871,-0.274743 -2.3789,-0.443359 -0.48895,-0.171878 -0.85353,-0.449873 -1.09375,-0.833984 -0.21746,-0.340497 -0.32619,-0.703127 -0.32617,-1.087891 l 0,-5.600586 -7.92286,0 0,1.158203 c 0,0.453128 -0.30859,0.67969 -0.92578,0.679688 -0.23503,2e-6 -0.53809,-0.06608 -0.90918,-0.198242 -0.27669,-0.27669 -0.41504,-0.590492 -0.41504,-0.941407 0,-0.380855 0.0212,-0.875646 0.0635,-1.484375 0.10091,-0.464187 0.15136,-1.450189 0.15137,-2.958008 l 0,-9.192382 c -1e-5,-0.760399 -0.0716,-1.54881 -0.21485,-2.365235 l 2.27051,1.347657 7.90235,0 0,-3.609375 c -2e-5,-0.824848 -0.041,-1.633441 -0.12305,-2.425782 z m -7.79981,18.50586 7.92286,0 0,-4.767578 -7.92286,0 z m 10.08106,0 8.13672,0 0,-4.767578 -8.13672,0 z m -10.08106,-6.219727 7.92286,0 0,-4.797851 -7.92286,0 z m 10.08106,0 8.13672,0 0,-4.797851 -8.13672,0 z"
       style=""
       id="path3378" />
    <path
       d="m 289.03516,17.53041 c 1.0384,0.163434 2.29686,0.24514 3.77539,0.245117 l 15.21191,0 1.36035,-1.103515 c 0.88409,0.703799 1.57582,1.366884 2.0752,1.989258 0.13539,0.166688 0.2031,0.34312 0.20312,0.529296 -2e-5,0.285178 -0.2663,0.490581 -0.79883,0.616211 -0.69078,0.04299 -1.06447,0.06447 -1.12109,0.06445 -1.55341,1.054707 -3.1566,2.015643 -4.80957,2.882812 -1.21682,0.733741 -2.2829,1.225602 -3.19824,1.475586 0.0501,-0.114567 0.15167,-0.134098 0.30469,-0.05859 0.28709,0.191423 0.43064,0.410498 0.43066,0.657227 -2e-5,0.298843 -0.18915,0.527359 -0.56738,0.685547 -0.36981,0.129572 -0.6299,0.21909 -0.78028,0.268554 l 0,3.298828 9.56836,0 1.79688,-1.99121 c 1.11195,0.760429 2.01527,1.431652 2.70996,2.013671 0.25778,0.171236 0.38669,0.38022 0.38672,0.626954 -3e-5,0.555348 -0.26794,0.833017 -0.80371,0.833007 l -13.65821,0 0,11.453125 c -10e-6,0.746092 -0.18328,1.325844 -0.5498,1.739258 -0.36004,0.38346 -0.81903,0.68652 -1.37695,0.90918 -0.50262,0.24023 -1.05308,0.360347 -1.65137,0.360351 l -0.0479,-0.680664 c -0.0417,-0.182946 -0.12209,-0.313805 -0.24121,-0.392578 -0.26629,-0.247399 -0.73407,-0.472659 -1.40332,-0.675781 -0.68035,-0.182945 -1.59376,-0.3112 -2.74024,-0.384766 l 0,-1.30957 c 1.75911,0.326822 3.26269,0.490233 4.51074,0.490234 0.61848,-10e-7 1.0065,-0.05534 1.16407,-0.166015 0.11847,-0.06446 0.17772,-0.282879 0.17773,-0.655274 l 0,-10.6875 -9.8291,0 c -1.39779,0.02019 -2.4528,0.06121 -3.16504,0.123047 l -0.70215,-1.973633 c 1.13281,0.245455 2.42187,0.368176 3.86719,0.368164 l 9.8291,0 0,-2.383789 c -1e-5,-1.073552 -0.0716,-2.290999 -0.21484,-3.652343 0.95636,0.237647 1.64191,0.442074 2.05664,0.613281 1.23305,-0.70441 2.32485,-1.360985 3.27539,-1.969727 1.19985,-0.856751 2.40492,-1.65688 3.61523,-2.40039 l -14.88476,0 c -1.5905,2.1e-5 -2.63282,0.03095 -3.12696,0.09277 z"
       style=""
       id="path3380" />
  </g>
  <g
     transform="translate(39.59375,435.50865)"
     style="font-size:32px;font-style:normal;font-weight:bold;line-height:125%;letter-spacing:0px;word-spacing:0px;fill:#000000;fill-opacity:1;stroke:none;font-family:Sans;-inkscape-font-specification:Sans Bold"
     id="flowRoot3243-2">
    <path
       d="m 221.63184,18.172988 c 1.13281,0.245465 2.43228,0.368186 3.89843,0.368164 l 21.02735,0 1.67578,-1.86914 c 0.98565,0.64846 1.85251,1.284528 2.60058,1.908203 0.25258,0.156923 0.37888,0.360373 0.37891,0.610351 -3e-5,0.55536 -0.26793,0.833029 -0.80371,0.833008 l -4.09863,0 0,22.116211 c -3e-5,0.776691 -0.2292,1.393877 -0.6875,1.851563 -0.28779,0.307288 -0.70576,0.566402 -1.25391,0.777343 -0.55146,0.253251 -1.13707,0.379879 -1.75684,0.379883 l -0.0508,-0.651367 c -0.058,-0.203129 -0.16538,-0.359704 -0.32226,-0.469726 -0.2676,-0.214196 -0.71389,-0.412438 -1.33887,-0.594727 -0.95835,-0.206383 -2.08042,-0.345055 -3.36621,-0.416016 l 0,-1.3125 c 2.0091,0.326822 3.72719,0.490233 5.1543,0.490235 0.66143,-2e-6 1.07517,-0.05274 1.24121,-0.158203 0.14841,-0.07422 0.22263,-0.294924 0.22265,-0.66211 l 0,-21.350586 -18.62207,0 c -1.41862,0.0202 -2.48405,0.06122 -3.19629,0.123047 z m 4.90234,5.147461 2.27051,1.348633 7.07812,0 1.03125,-1.348633 c 0.96157,0.482439 1.62205,0.945655 1.98145,1.389649 0.22459,0.224625 0.33689,0.437515 0.33691,0.638672 -2e-5,0.298843 -0.40855,0.682957 -1.22558,1.152343 l 0,7.050782 c 0.24607,0.215501 0.50226,0.418951 0.76855,0.610351 0.22329,0.149095 0.33494,0.316087 0.33496,0.500977 -2e-5,0.514979 -0.19631,0.772466 -0.58887,0.772461 l -9.70605,0 0,1.311523 c -1e-5,0.453128 -0.32911,0.679691 -0.98731,0.679688 -0.22461,3e-6 -0.49903,-0.07487 -0.82324,-0.22461 -0.31381,-0.250647 -0.47071,-0.575842 -0.4707,-0.975586 -1e-5,-0.360672 0.0208,-0.844721 0.0625,-1.452148 0.12174,-0.46614 0.18261,-1.442701 0.18262,-2.929688 l 0,-6.158203 c -1e-5,-0.763656 -0.0817,-1.552392 -0.24512,-2.366211 z m 2.28125,10.663086 7.15625,0 0,-7.862304 -7.15625,0 z"
       style=""
       id="path3383" />
    <path
       d="m 266.2041,15.844863 c 0.78514,0.366561 1.39842,0.738957 1.83985,1.117188 0.46678,0.324893 0.8561,0.619163 1.16796,0.882812 0.24868,0.229189 0.45181,0.433942 0.60938,0.614258 0.0957,0.16734 0.17869,0.319683 0.24902,0.457031 0.0605,0.179709 0.0908,0.321636 0.0908,0.425782 -0.0287,0.628926 -0.14097,0.842142 -0.33691,0.639648 l 8.67969,0 1.58105,-1.685547 c 0.97393,0.633485 1.78415,1.21519 2.43066,1.745117 0.28188,0.154969 0.42283,0.361674 0.42286,0.620118 -3e-5,0.555357 -0.28845,0.833026 -0.86524,0.833007 l -9.55273,0 0,7.654297 c -2e-5,0.429048 0.0179,0.714529 0.0537,0.856446 0.0462,0.415374 0.0693,0.732431 0.0693,0.951171 -2e-5,0.882171 -0.45184,1.323251 -1.35546,1.323243 -0.69859,8e-6 -1.04787,-0.26757 -1.04786,-0.802735 -10e-6,-0.458975 0.0202,-1.02538 0.0605,-1.699218 0.041,-0.716135 0.0615,-1.334298 0.0615,-1.854493 l 0,-6.428711 -3.87793,0 0,7.654297 c -1e-5,0.429048 0.0179,0.714529 0.0537,0.856446 0.0462,0.415374 0.0693,0.732431 0.0693,0.951171 -10e-6,0.882171 -0.43133,1.323251 -1.29394,1.323243 -0.71942,8e-6 -1.07912,-0.26757 -1.07911,-0.802735 -1e-5,-0.452464 0.0101,-1.01887 0.0303,-1.699218 0.041,-0.716135 0.0615,-1.334298 0.0615,-1.854493 l 0,-6.428711 -6.36621,0 c -1.41927,0.0202 -2.47071,0.06122 -3.1543,0.123047 l -0.77441,-1.973633 c 1.1569,0.225282 2.46647,0.337912 3.92871,0.337891 l 10.50293,0 c -0.0918,0.154968 -0.24318,0.01109 -0.4541,-0.431641 -0.27671,-0.49477 -0.58693,-0.942686 -0.93067,-1.34375 -0.32944,-0.431617 -0.83822,-1.001929 -1.52636,-1.710937 z m -6.03613,7.078125 c 1.14908,0.445981 2.00682,0.857764 2.57324,1.235352 0.22851,0.130224 0.34276,0.312841 0.34277,0.547851 -10e-6,0.297542 -0.1862,0.497086 -0.55859,0.598633 -0.33855,0.112646 -0.61069,0.183935 -0.81641,0.213867 -0.34896,0.453791 -0.73731,0.945001 -1.16503,1.473633 -0.52345,0.589206 -1.06739,1.105481 -1.63184,1.548828 -0.45118,0.471366 -1.04005,0.963553 -1.7666,1.476563 -0.65561,0.470713 -1.4196,0.92872 -2.29199,1.374023 l -0.69922,-0.65625 c 0.97395,-0.865223 1.81282,-1.641264 2.5166,-2.328125 0.49348,-0.533841 0.96191,-1.095364 1.40527,-1.68457 0.58593,-0.761053 1.02506,-1.388006 1.31738,-1.880859 0.33593,-0.62889 0.59407,-1.268538 0.77442,-1.918946 z m 14.76367,0.245118 c 1.24347,0.698584 2.26918,1.390966 3.07715,2.077148 0.84568,0.635431 1.51332,1.177423 2.00293,1.625977 0.46416,0.444023 0.8128,0.81414 1.0459,1.110351 0.21481,0.332695 0.37464,0.645194 0.47949,0.9375 0.11716,0.259126 0.17575,0.488292 0.17578,0.6875 -0.0313,0.883474 -0.36038,1.325205 -0.9873,1.325195 -0.2904,10e-6 -0.52575,-0.09016 -0.70606,-0.270507 -0.18102,-0.158845 -0.57099,-0.72818 -1.16992,-1.708008 -0.50068,-0.861316 -1.08043,-1.641589 -1.73926,-2.340821 -0.65627,-0.735011 -1.59833,-1.63475 -2.82617,-2.699218 z m -18.2041,9.191406 c 1.04882,0.183601 2.3177,0.275398 3.80664,0.27539 l 15.02832,0 1.16895,-1.225586 c 1.00257,0.570321 1.73695,1.128915 2.20312,1.675782 0.21807,0.155606 0.32712,0.385749 0.32715,0.690429 -3e-5,0.255215 -0.26142,0.459642 -0.78418,0.613282 -0.58401,0.14649 -0.95901,0.219732 -1.125,0.219726 -1.80146,1.741541 -3.45217,3.122724 -4.95215,4.143555 -0.83726,0.592449 -1.61428,1.005209 -2.33105,1.238281 0.69724,0.172527 1.39321,0.406901 2.08789,0.703125 1.97003,0.680338 3.86,1.181314 5.66992,1.50293 1.65166,0.393227 3.43714,0.691404 5.35644,0.894531 l 0,0.954102 c -1.30732,-4e-6 -2.09019,0.367834 -2.34863,1.103515 -2.82359,-0.5599 -5.04267,-1.156904 -6.65723,-1.791015 -2.26564,-0.699872 -4.15398,-1.491864 -5.66503,-2.375977 -0.25262,0.151692 -0.57489,0.309895 -0.9668,0.474609 -1.91929,0.918618 -4.04884,1.737953 -6.38867,2.458008 -2.20704,0.637366 -4.53386,1.13053 -6.98047,1.479492 l -0.48242,-1.176757 c 3.03059,-0.599613 5.52831,-1.256839 7.49316,-1.97168 2.05142,-0.662762 3.96385,-1.441732 5.7373,-2.336914 0.1022,-0.0612 0.13476,-0.02376 0.0977,0.112305 -1.40561,-0.62565 -2.65398,-1.418293 -3.74512,-2.37793 -1.28907,-1.07096 -2.40886,-2.255854 -3.35937,-3.554688 -1.2116,7e-6 -2.056,0.0407 -2.5332,0.122071 z m 4.6709,1.728515 c 0.94074,0.85873 1.83983,1.638352 2.69726,2.338868 1.19075,0.882815 2.37662,1.643882 3.55762,2.283203 0.33918,0.203126 0.59341,0.353517 0.7627,0.451172 1.12563,-0.634764 2.0947,-1.271157 2.90722,-1.90918 1.36001,-0.988928 2.6227,-2.043615 3.78809,-3.164063 z"
       style=""
       id="path3385" />
    <path
       d="m 298.50293,16.304824 c 1.27668,0.195337 2.2578,0.407251 2.94336,0.635742 0.37563,0.102237 0.56346,0.331404 0.56348,0.6875 -2e-5,0.334007 -0.19013,0.535505 -0.57032,0.604493 -0.28582,0.122418 -0.50425,0.198915 -0.65527,0.229492 l 0,3.87793 8.02051,0 1.06347,-1.347657 c 0.95831,0.482441 1.61716,0.945657 1.97657,1.389649 0.22458,0.224627 0.33688,0.427426 0.33691,0.608398 -3e-5,0.310564 -0.36754,0.700863 -1.10254,1.170899 l 0,8.388671 c -2e-5,1.553392 0.0185,2.546881 0.0557,2.980469 0.0442,0.644536 0.0664,1.13184 0.0664,1.461914 -2e-5,0.358076 -0.16799,0.674482 -0.5039,0.949219 -0.35615,0.126956 -0.63968,0.190432 -0.85059,0.19043 -0.61721,2e-6 -0.92581,-0.22656 -0.92578,-0.679688 l 0,-1.158203 -8.13672,0 0,5.080078 c -2e-5,0.26302 0.0534,0.42871 0.16016,0.497071 0.28839,0.162107 0.76886,0.272784 1.4414,0.332031 0.80142,0.137368 2.11391,0.206053 3.9375,0.206054 1.4798,-10e-7 2.63344,-0.02832 3.46094,-0.08496 0.67641,-0.08008 1.20407,-0.199546 1.58301,-0.358399 0.30531,-0.08724 0.51332,-0.328126 0.62402,-0.722656 0.26299,-0.688151 0.55954,-2.505532 0.88965,-5.452149 l 1.23144,0.192383 c -0.0821,1.70443 -0.12307,3.347983 -0.12304,4.930664 -3e-5,0.194661 0.0397,0.325195 0.11914,0.391602 0.0514,0.101561 0.18226,0.205077 0.39258,0.310547 0.49671,0.248045 0.74508,0.575844 0.74511,0.983398 -3e-5,0.334633 -0.2165,0.596677 -0.64941,0.786133 -0.49092,0.28971 -1.1055,0.478838 -1.84375,0.567383 -0.78779,0.142574 -1.72919,0.244788 -2.82422,0.30664 -1.22984,0.08203 -2.43166,0.123043 -3.60547,0.123047 -1.71747,-4e-6 -3.01694,-0.04102 -3.89844,-0.123047 -1.20574,-0.126956 -1.99871,-0.274743 -2.3789,-0.443359 -0.48895,-0.171878 -0.85353,-0.449873 -1.09375,-0.833984 -0.21746,-0.340497 -0.32619,-0.703127 -0.32617,-1.087891 l 0,-5.600586 -7.92286,0 0,1.158203 c 0,0.453128 -0.30859,0.67969 -0.92578,0.679688 -0.23503,2e-6 -0.53809,-0.06608 -0.90918,-0.198242 -0.27669,-0.27669 -0.41504,-0.590492 -0.41504,-0.941407 0,-0.380855 0.0212,-0.875646 0.0635,-1.484375 0.10091,-0.464187 0.15136,-1.450189 0.15137,-2.958008 l 0,-9.192382 c -1e-5,-0.760399 -0.0716,-1.54881 -0.21485,-2.365235 l 2.27051,1.347657 7.90235,0 0,-3.609375 c -2e-5,-0.824848 -0.041,-1.633441 -0.12305,-2.425782 z m -7.79981,18.50586 7.92286,0 0,-4.767578 -7.92286,0 z m 10.08106,0 8.13672,0 0,-4.767578 -8.13672,0 z m -10.08106,-6.219727 7.92286,0 0,-4.797851 -7.92286,0 z m 10.08106,0 8.13672,0 0,-4.797851 -8.13672,0 z"
       style=""
       id="path3387" />
    <path
       d="m 320.6084,16.672012 c 1.45768,0.565778 2.56086,1.12958 3.30957,1.691406 0.68358,0.448589 1.19595,0.911154 1.53711,1.387695 0.27017,0.315125 0.40526,0.659526 0.40527,1.033203 -10e-6,0.861998 -0.35971,1.292988 -1.0791,1.292969 -0.24805,1.9e-5 -0.47332,-0.05076 -0.67578,-0.152344 -0.23438,-0.116517 -0.45834,-0.376608 -0.67188,-0.780273 -0.39518,-0.751282 -0.81641,-1.360005 -1.26367,-1.826172 -0.50131,-0.521463 -1.21615,-1.096006 -2.14453,-1.723633 z m -2.25098,7.476562 c 1.55729,0.559261 2.71061,1.101904 3.45996,1.62793 0.72591,0.484389 1.27148,0.951511 1.63672,1.401367 0.27669,0.377617 0.41503,0.738294 0.41504,1.082031 -1e-5,0.882173 -0.35971,1.323254 -1.0791,1.323243 -0.25391,1.1e-5 -0.49415,-0.06281 -0.7207,-0.188477 -0.20834,-0.11978 -0.40431,-0.352853 -0.58789,-0.699219 -0.4629,-0.800117 -0.93165,-1.427721 -1.40625,-1.882812 -0.50847,-0.52733 -1.26042,-1.102199 -2.25586,-1.72461 z m 6.75879,7.138672 0.59082,0.760742 c -0.66667,1.651049 -1.44564,3.367844 -2.33691,5.150391 -0.8353,1.770835 -1.72494,3.489258 -2.66895,5.155273 -0.14063,1.127602 -0.38412,1.691403 -0.73047,1.691407 -0.27148,-4e-6 -0.98861,-0.85775 -2.15136,-2.573243 1.2259,-1.307942 2.51236,-2.950518 3.85937,-4.927734 1.30078,-1.920567 2.44661,-3.672844 3.4375,-5.256836 z m 19.2168,-14.982422 c 0.98434,0.663435 1.79782,1.267601 2.44043,1.8125 0.27471,0.153017 0.41208,0.357444 0.41211,0.613282 -3e-5,0.514995 -0.28812,0.772481 -0.86426,0.77246 l -17.05957,0 0,6.183594 c -1e-5,1.881524 -0.0736,3.659842 -0.2207,5.334961 -0.0612,1.489591 -0.23634,2.99903 -0.5254,4.52832 -0.22917,1.229822 -0.52898,2.369469 -0.89941,3.418946 -0.33074,0.94987 -0.75261,1.827473 -1.26562,2.632812 -0.48699,0.843097 -1.195,1.688474 -2.12403,2.536133 l -0.7998,-0.427734 c 0.5358,-0.840497 0.97753,-1.637046 1.32519,-2.389649 0.37565,-0.710286 0.68945,-1.424804 0.94141,-2.143554 0.26627,-0.921873 0.4912,-1.893877 0.6748,-2.916016 0.24479,-1.46614 0.41829,-2.893548 0.52051,-4.282227 0.14322,-1.862619 0.21484,-3.959948 0.21485,-6.291992 0.0202,-3.503888 -0.0104,-6.416971 -0.0918,-8.739258 l 2.13379,1.103516 13.60644,0 z m -8.57617,2.941407 c 2.30857,0.454447 3.46286,0.926127 3.46289,1.415039 -3e-5,0.457701 -0.57424,0.730162 -1.72266,0.817382 -0.4577,0.76955 -1.01727,1.383482 -1.67871,1.841797 l 7.04101,0 1.06348,-1.347656 c 0.957,0.481789 1.59763,0.935239 1.92188,1.360352 0.22002,0.25197 0.33005,0.474626 0.33007,0.667968 -2e-5,0.291032 -0.36786,0.671566 -1.10351,1.141602 l 0,4.250976 c -3e-5,1.510427 0.0286,2.484059 0.0859,2.920899 0.0247,0.718106 0.0371,1.205085 0.0371,1.460937 -3e-5,0.397142 -0.15791,0.722012 -0.47364,0.97461 -0.32555,0.150396 -0.59898,0.225591 -0.82031,0.225586 -0.65823,5e-6 -0.98733,-0.226557 -0.9873,-0.679688 l 0,-0.576172 -3.44825,0 0,8.541993 c -2e-5,0.766273 -0.17254,1.344723 -0.51757,1.735351 -0.30797,0.378902 -0.70706,0.679683 -1.19727,0.902344 -0.44989,0.247391 -0.95477,0.371089 -1.51465,0.371094 l -0.0937,-0.838868 c -0.0254,-0.119795 -0.0749,-0.216475 -0.14844,-0.290039 -0.21681,-0.217451 -0.50392,-0.402672 -0.86132,-0.555664 -0.66278,-0.227216 -1.45966,-0.378583 -2.39063,-0.454101 l 0,-1.304688 c 1.43358,0.306639 2.62042,0.459959 3.56055,0.459961 0.44789,-2e-6 0.71515,-0.03255 0.80176,-0.09766 0.13539,-0.08138 0.2031,-0.312501 0.20312,-0.693359 l 0,-7.776368 -3.75586,0 0,0.453125 c -2e-5,0.453782 -0.30861,0.68067 -0.92578,0.680664 -0.2383,6e-6 -0.53778,-0.07714 -0.89844,-0.231445 -0.30405,-0.243483 -0.45607,-0.566725 -0.45605,-0.969726 -2e-5,-0.36653 0.0312,-0.851555 0.0937,-1.455079 0.10089,-0.463533 0.15135,-1.439117 0.15136,-2.926757 l 0,-4.932618 c -1e-5,-0.763004 -0.0817,-1.551414 -0.24511,-2.365234 l 2.32422,1.347656 0.94922,0 c 0.28318,-0.440737 0.52146,-0.931948 0.71484,-1.473633 0.18227,-0.606751 0.34829,-1.473612 0.49805,-2.600585 z m -2.20606,12.99121 9.36231,0 0,-3.021484 -9.36231,0 z m 0,-4.504882 9.36231,0 0,-2.958985 -9.36231,0 z m -1.18164,7.598632 c 1.15688,0.324875 2.11229,0.664719 2.86621,1.019532 0.20506,0.238936 0.3076,0.452803 0.30762,0.641601 -2e-5,0.367842 -0.26857,0.583337 -0.80567,0.646485 -0.39715,0.08399 -0.62371,0.125979 -0.67968,0.125976 -0.43947,0.768231 -0.93524,1.457684 -1.48731,2.06836 -0.65105,0.981119 -1.32553,1.798501 -2.02344,2.452148 -0.63022,0.553383 -1.48829,1.170896 -2.57421,1.852539 l -0.86914,-0.435547 c 0.89126,-0.950523 1.60773,-1.744467 2.14941,-2.381836 0.45311,-0.577474 0.90493,-1.224609 1.35547,-1.941406 0.42446,-0.721352 0.78547,-1.370115 1.08301,-1.946289 0.23501,-0.550127 0.46092,-1.250647 0.67773,-2.101563 z m 9.25293,0.245118 c 1.03383,0.645837 1.88051,1.277998 2.54004,1.896484 0.6712,0.626956 1.17282,1.115562 1.50488,1.46582 0.39776,0.444012 0.69756,0.81185 0.89942,1.103516 0.15036,0.299479 0.26689,0.564453 0.34961,0.794922 0.0983,0.245442 0.14743,0.45996 0.14746,0.643555 -0.0306,0.954425 -0.40075,1.431638 -1.11036,1.43164 -0.24872,-2e-6 -0.44078,-0.06771 -0.57617,-0.203125 -0.16018,-0.187502 -0.46422,-0.718751 -0.91211,-1.59375 -0.3913,-0.820312 -0.79332,-1.518554 -1.20605,-2.094726 -0.58401,-0.763019 -1.34247,-1.64518 -2.27539,-2.646485 z"
       style=""
       id="path3389" />
  </g>
  <g
     transform="translate(209.59375,2.5086523)"
     style="font-size:32px;font-style:normal;font-weight:bold;line-height:125%;letter-spacing:0px;word-spacing:0px;fill:#000000;fill-opacity:1;stroke:none;font-family:Sans;-inkscape-font-specification:Sans Bold"
     id="flowRoot3243-7">
    <path
       d="m 228.38184,15.966934 c 1.24738,0.281925 2.30077,0.643253 3.16015,1.083984 0.20442,0.203148 0.30663,0.395531 0.30664,0.577148 -1e-5,0.300804 -0.21095,0.532575 -0.63281,0.695313 -0.51043,0.132835 -0.90138,0.199241 -1.17285,0.199219 -0.31707,0.651714 -0.69565,1.138041 -1.13574,1.458984 l 7.58496,0 c -0.0404,0.223328 -0.086,0.260437 -0.13672,0.111328 -0.1146,-0.323547 -0.28517,-0.626606 -0.51172,-0.909179 -0.20054,-0.215474 -0.46291,-0.485656 -0.78711,-0.810547 -0.27736,-0.277322 -0.71811,-0.63572 -1.32227,-1.075196 l 0.8125,-0.748047 c 0.70377,0.266951 1.28873,0.522485 1.75489,0.766602 0.53318,0.212263 0.95701,0.423851 1.27148,0.634766 0.39582,0.257183 0.65982,0.478537 0.79199,0.664062 0.14907,0.17385 0.22362,0.365582 0.22364,0.575195 -2e-5,0.453797 -0.0772,0.83368 -0.23145,1.139649 -0.0755,0.111999 -0.1006,-0.0042 -0.0752,-0.348633 l 6.82324,0 1.45019,-1.44043 c 0.91144,0.535829 1.68324,1.048198 2.31543,1.53711 0.27406,0.153015 0.41111,0.347351 0.41114,0.583008 -3e-5,0.555357 -0.24743,0.833026 -0.74219,0.833007 l -10.77832,0 0,1.949219 5.875,0 1.46484,-1.348633 c 0.78513,0.505227 1.48045,0.998065 2.08594,1.478516 0.23239,0.132178 0.34861,0.315446 0.34863,0.549805 -2e-5,0.514989 -0.22691,0.772476 -0.68066,0.772461 l -9.09375,0 0,2.194336 5.875,0 1.46875,-1.348633 c 0.79555,0.535821 1.48956,1.03875 2.08203,1.508789 0.23239,0.132174 0.34861,0.315442 0.34863,0.549804 -2e-5,0.514987 -0.22691,0.772473 -0.68066,0.772461 l -9.09375,0 0,2.194336 8.04101,0 1.45801,-1.470703 c 0.90427,0.572928 1.67934,1.091807 2.3252,1.556641 0.26755,0.166676 0.40134,0.374684 0.40136,0.624023 -2e-5,0.535165 -0.22691,0.802743 -0.68066,0.802735 l -20.39941,0 c 0.0202,0.08269 0.0303,0.213549 0.0303,0.392578 -1e-5,0.861986 -0.45151,1.292975 -1.35449,1.292969 -0.69923,6e-6 -1.04884,-0.257481 -1.04883,-0.772461 -1e-5,-0.458977 0.0205,-1.025383 0.0615,-1.699219 0.041,-0.716136 0.0615,-1.344391 0.0615,-1.884766 l 0,-6.888672 c 0.24869,0.165383 0.27278,0.348 0.0723,0.547852 -0.58789,0.709652 -1.23112,1.361018 -1.92969,1.954101 -0.61849,0.577489 -1.49544,1.214207 -2.63085,1.910157 l -0.78223,-0.684571 c 1.0638,-0.898422 1.91145,-1.723942 2.54297,-2.476562 0.83398,-0.99217 1.60286,-2.005515 2.30664,-3.040039 0.66861,-1.043599 1.23664,-2.093403 1.7041,-3.149414 0.20898,-0.475888 0.35611,-1.080706 0.44141,-1.814453 z m 0.43359,14.799804 6.78809,0 0,-2.194336 -6.78809,0 z m 6.78809,-3.676757 0,-2.194336 -6.78809,0 0,2.194336 z m 0,-3.646485 0,-1.949219 -6.78809,0 0,1.949219 z m -14.2168,11.642578 c 1.13281,0.245448 2.42187,0.368169 3.86719,0.368164 l 10.07421,0 0,-0.331054 c -1e-5,-1.050124 -0.041,-1.971347 -0.12304,-2.763672 1.29425,0.171232 2.28188,0.405606 2.96289,0.703125 0.36261,0.16407 0.54393,0.4017 0.54394,0.71289 -10e-6,0.350267 -0.1478,0.574225 -0.44336,0.671875 -0.28777,0.22136 -0.53842,0.344733 -0.75195,0.370118 l 0,0.636718 9.75195,0 1.61622,-1.71582 c 0.91533,0.604824 1.7275,1.199224 2.43652,1.783203 0.25453,0.158859 0.3818,0.352869 0.38183,0.582031 -3e-5,0.535161 -0.27802,0.802738 -0.83398,0.802735 l -13.35254,0 0,7.68457 c -2e-5,0.59635 -0.40041,0.894526 -1.20117,0.894531 -0.74025,-5e-6 -1.11037,-0.349288 -1.11035,-1.047851 -2e-5,-0.264327 0.0205,-0.590824 0.0615,-0.979492 0.041,-0.429039 0.0615,-0.786786 0.0615,-1.073243 l 0,-5.478515 -10.06835,0 c -1.4004,0.04037 -2.45736,0.09147 -3.1709,0.15332 z m 9.11914,2.574219 c 1.09179,0.419924 1.92121,0.819012 2.48828,1.197266 0.21678,0.18034 0.32518,0.375652 0.3252,0.585937 -2e-5,0.274741 -0.18296,0.466798 -0.54883,0.576172 -0.32554,0.107422 -0.61883,0.170248 -0.87989,0.188477 -0.47527,0.378906 -1.01042,0.756835 -1.60546,1.133789 -0.67124,0.398436 -1.36492,0.767251 -2.08106,1.106445 -0.69336,0.347003 -1.47885,0.695635 -2.35644,1.045898 -0.9616,0.365882 -1.99871,0.702796 -3.11133,1.010743 l -0.64453,-0.765625 c 1.35221,-0.670576 2.48697,-1.256838 3.40429,-1.758789 0.77604,-0.46159 1.51595,-0.951173 2.21973,-1.46875 0.72265,-0.526693 1.3151,-1.011393 1.77734,-1.454102 0.4108,-0.449868 0.74837,-0.915688 1.0127,-1.397461 z m 9.57617,0.705078 c 1.50193,0.292971 3.00128,0.681642 4.49805,1.166016 1.32354,0.447917 2.32712,0.847656 3.01074,1.199219 0.74151,0.370442 1.2389,0.693358 1.49219,0.96875 0.28122,0.240884 0.51917,0.495441 0.71386,0.763671 0.12693,0.253253 0.19041,0.513019 0.19043,0.779297 -2e-5,0.597002 -0.26793,0.895504 -0.80371,0.895508 -0.237,-4e-6 -0.50393,-0.08692 -0.80078,-0.260742 -0.25198,-0.125654 -0.53681,-0.317386 -0.85449,-0.575195 -0.60094,-0.42969 -1.13805,-0.777021 -1.61133,-1.041993 -0.612,-0.346355 -1.35386,-0.71224 -2.22558,-1.097656 -0.94924,-0.484375 -2.33792,-1.102213 -4.16602,-1.853515 z"
       style=""
       id="path3366" />
    <path
       d="m 266.44043,16.304824 c 1.27668,0.195337 2.2578,0.407251 2.94336,0.635742 0.37563,0.102237 0.56346,0.331404 0.56348,0.6875 -2e-5,0.334007 -0.19013,0.535505 -0.57032,0.604493 -0.28582,0.122418 -0.50425,0.198915 -0.65527,0.229492 l 0,3.87793 8.02051,0 1.06347,-1.347657 c 0.95831,0.482441 1.61716,0.945657 1.97657,1.389649 0.22458,0.224627 0.33688,0.427426 0.33691,0.608398 -3e-5,0.310564 -0.36754,0.700863 -1.10254,1.170899 l 0,8.388671 c -2e-5,1.553392 0.0185,2.546881 0.0557,2.980469 0.0442,0.644536 0.0664,1.13184 0.0664,1.461914 -2e-5,0.358076 -0.16799,0.674482 -0.5039,0.949219 -0.35615,0.126956 -0.63968,0.190432 -0.85059,0.19043 -0.61721,2e-6 -0.92581,-0.22656 -0.92578,-0.679688 l 0,-1.158203 -8.13672,0 0,5.080078 c -2e-5,0.26302 0.0534,0.42871 0.16016,0.497071 0.28839,0.162107 0.76886,0.272784 1.4414,0.332031 0.80142,0.137368 2.11391,0.206053 3.9375,0.206054 1.4798,-10e-7 2.63344,-0.02832 3.46094,-0.08496 0.67641,-0.08008 1.20407,-0.199546 1.58301,-0.358399 0.30531,-0.08724 0.51332,-0.328126 0.62402,-0.722656 0.26299,-0.688151 0.55954,-2.505532 0.88965,-5.452149 l 1.23144,0.192383 c -0.0821,1.70443 -0.12307,3.347983 -0.12304,4.930664 -3e-5,0.194661 0.0397,0.325195 0.11914,0.391602 0.0514,0.101561 0.18226,0.205077 0.39258,0.310547 0.49671,0.248045 0.74508,0.575844 0.74511,0.983398 -3e-5,0.334633 -0.2165,0.596677 -0.64941,0.786133 -0.49092,0.28971 -1.1055,0.478838 -1.84375,0.567383 -0.78779,0.142574 -1.72919,0.244788 -2.82422,0.30664 -1.22984,0.08203 -2.43166,0.123043 -3.60547,0.123047 -1.71747,-4e-6 -3.01694,-0.04102 -3.89844,-0.123047 -1.20574,-0.126956 -1.99871,-0.274743 -2.3789,-0.443359 -0.48895,-0.171878 -0.85353,-0.449873 -1.09375,-0.833984 -0.21746,-0.340497 -0.32619,-0.703127 -0.32617,-1.087891 l 0,-5.600586 -7.92286,0 0,1.158203 c 0,0.453128 -0.30859,0.67969 -0.92578,0.679688 -0.23503,2e-6 -0.53809,-0.06608 -0.90918,-0.198242 -0.27669,-0.27669 -0.41504,-0.590492 -0.41504,-0.941407 0,-0.380855 0.0212,-0.875646 0.0635,-1.484375 0.10091,-0.464187 0.15136,-1.450189 0.15137,-2.958008 l 0,-9.192382 c -1e-5,-0.760399 -0.0716,-1.54881 -0.21485,-2.365235 l 2.27051,1.347657 7.90235,0 0,-3.609375 c -2e-5,-0.824848 -0.041,-1.633441 -0.12305,-2.425782 z m -7.79981,18.50586 7.92286,0 0,-4.767578 -7.92286,0 z m 10.08106,0 8.13672,0 0,-4.767578 -8.13672,0 z m -10.08106,-6.219727 7.92286,0 0,-4.797851 -7.92286,0 z m 10.08106,0 8.13672,0 0,-4.797851 -8.13672,0 z"
       style=""
       id="path3368" />
    <path
       d="m 285.38965,23.045059 c 1.13997,0.265642 2.42903,0.398454 3.86719,0.398437 l 0.75878,0 0,-4.467773 c 0,-1.07029 -0.0407,-2.001604 -0.12207,-2.793946 1.45442,0.151066 2.58203,0.38479 3.38282,0.701172 0.42968,0.184268 0.64452,0.432641 0.64453,0.745117 -1e-5,0.317731 -0.21225,0.536807 -0.63672,0.657227 -0.38543,0.193381 -0.75554,0.311545 -1.11035,0.354492 l 0,4.803711 0.84082,0 1.45117,-1.470703 c 0.91601,0.535825 1.70279,1.060239 2.36035,1.573242 0.24869,0.155616 0.37304,0.347999 0.37305,0.577149 -1e-5,0.514989 -0.2269,0.772476 -0.68067,0.772461 l -4.34472,0 0,1.679687 c 0.90168,0.44142 1.69823,0.94793 2.38965,1.519531 0.56444,0.41082 0.99445,0.837903 1.29004,1.28125 0.24347,0.364594 0.36522,0.737966 0.36523,1.120118 -10e-6,0.861988 -0.30861,1.292977 -0.92578,1.292968 -0.27019,9e-6 -0.51661,-0.07942 -0.73926,-0.238281 -0.18295,-0.114574 -0.34832,-0.319652 -0.49609,-0.615234 -0.41342,-0.869131 -0.83334,-1.536773 -1.25977,-2.00293 -0.31381,-0.355457 -0.52182,-0.690092 -0.62402,-1.003906 l 0,14.456054 c -1e-5,0.429035 0.0176,0.714191 0.0527,0.855469 0.0469,0.39583 0.0703,0.713213 0.0703,0.952149 0,0.861974 -0.43132,1.292963 -1.29394,1.292968 -0.73959,-5e-6 -1.10938,-0.257491 -1.10938,-0.772461 0,-0.458988 0.0202,-1.025393 0.0605,-1.699218 0.041,-0.716148 0.0615,-1.334311 0.0615,-1.854493 l 0,-12.126953 c 0.14128,0.838553 0.006,1.670258 -0.40625,2.495118 -0.38737,0.936857 -0.86588,1.902676 -1.43554,2.89746 -0.51042,0.878261 -1.2448,1.878911 -2.20313,3.001954 l -0.7041,-0.814454 c 0.65365,-1.201166 1.22266,-2.3636 1.70703,-3.487304 0.38216,-0.855461 0.75293,-1.833324 1.11231,-2.933594 0.33202,-1.050119 0.62467,-2.146146 0.87793,-3.288086 0.21093,-0.823553 0.3776,-1.492823 0.5,-2.007812 l -0.20703,0 c -1.39844,0.01955 -2.45346,0.06056 -3.16504,0.123046 z m 9.31445,-5.514649 c 1.03775,0.163434 2.2858,0.24514 3.74414,0.245117 l 9.33789,0 1.49024,-1.103515 c 0.76104,0.630882 1.34047,1.217796 1.73828,1.760742 0.12432,0.184918 0.1865,0.365907 0.18652,0.542969 -2e-5,0.229188 -0.22952,0.450867 -0.68847,0.665039 -0.28779,0.08856 -0.4831,0.145854 -0.58594,0.171875 l -1.4834,7.032226 3.12598,0 1.3125,-1.103515 c 0.88864,0.606785 1.5667,1.102878 2.03418,1.488281 0.22002,0.220065 0.33004,0.451185 0.33007,0.693359 -3e-5,0.253268 -0.22691,0.479179 -0.68066,0.677735 -0.32425,0.194022 -0.65661,0.331717 -0.99707,0.413086 -1.0124,2.639331 -2.00979,4.705736 -2.99219,6.199218 -0.74091,1.357426 -1.45185,2.37598 -2.13281,3.055664 0.28904,0.21745 0.59893,0.472984 0.92969,0.766602 1.0807,1.020834 2.16208,1.78125 3.24414,2.28125 0.96286,0.601561 2.03317,1.029946 3.21093,1.285156 l 0,0.953125 c -1.14325,-3e-6 -1.83336,0.316729 -2.07031,0.950196 -1.80797,-0.814457 -3.19534,-1.694664 -4.16211,-2.640625 -1.02281,-0.794272 -1.8301,-1.609375 -2.42187,-2.445313 -0.60614,0.672527 -1.37893,1.347331 -2.31836,2.024414 -1.18427,0.822915 -2.3633,1.518227 -3.53711,2.085938 -1.38934,0.694657 -3.03582,1.27506 -4.93945,1.741211 l -0.20411,-1.024414 c 2.18163,-0.813154 3.70962,-1.495445 4.58399,-2.046875 0.95701,-0.552085 2.12596,-1.302084 3.50683,-2.25 0.67316,-0.539062 1.32616,-1.092772 1.95899,-1.661133 0.003,0.08138 -0.0192,0.09766 -0.0654,0.04883 -1.18166,-1.476559 -2.16083,-3.1123 -2.9375,-4.907227 -0.76695,-1.501293 -1.4258,-3.192047 -1.97656,-5.072265 l 0.15625,0 c -0.028,0.403006 -0.0746,0.844086 -0.13965,1.323242 -0.22202,1.830738 -0.60939,3.565762 -1.16211,5.205078 -0.53778,1.882816 -1.19826,3.348961 -1.98145,4.398437 -0.91342,1.811849 -2.28484,3.593097 -4.11425,5.34375 l -0.77051,-0.90039 c 1.41731,-1.713543 2.49217,-3.251628 3.22461,-4.614258 0.66665,-1.252602 1.20051,-2.501298 1.60156,-3.746094 0.37759,-1.148431 0.7093,-2.674146 0.99512,-4.577148 0.26561,-1.798817 0.39842,-4.276353 0.39843,-7.432617 l 0,-4.069336 -1.00488,0 c -1.57358,2.1e-5 -2.62989,0.03095 -3.16894,0.09277 z m 6.9375,1.757813 0,4.069336 c -2e-5,1.372411 -0.0511,2.534845 -0.15332,3.487304 l 4.88672,0 1.6875,-7.55664 z m 0.98047,9.069336 c 0.638,1.622406 1.24184,3.023446 1.81152,4.203125 0.67967,1.320319 1.39126,2.492193 2.13477,3.515625 0.30466,0.423832 0.5488,0.778324 0.73242,1.063476 -0.0671,-0.0345 -0.0482,-0.117184 0.0566,-0.248047 0.71482,-0.94075 1.44985,-2.186517 2.20508,-3.737304 0.79034,-1.438794 1.47523,-3.03775 2.05469,-4.796875 z"
       style=""
       id="path3370" />
  </g>
</svg>
