<?xml version="1.0" encoding="UTF-8" standalone="no"?>
<!-- Created with Inkscape (http://www.inkscape.org/) -->

<svg
   xmlns:dc="http://purl.org/dc/elements/1.1/"
   xmlns:cc="http://creativecommons.org/ns#"
   xmlns:rdf="http://www.w3.org/1999/02/22-rdf-syntax-ns#"
   xmlns:svg="http://www.w3.org/2000/svg"
   xmlns="http://www.w3.org/2000/svg"
   xmlns:sodipodi="http://sodipodi.sourceforge.net/DTD/sodipodi-0.dtd"
   xmlns:inkscape="http://www.inkscape.org/namespaces/inkscape"
   width="270"
   height="180"
   id="svg2"
   version="1.1"
   inkscape:version="0.48.2 r9819"
   sodipodi:docname="Stopping Voltage Diagram.svg">
  <defs
     id="defs4">
    <marker
       inkscape:stockid="Arrow1Mstart"
       orient="auto"
       refY="0"
       refX="0"
       id="Arrow1Mstart"
       style="overflow:visible">
      <path
         id="path3872"
         d="M 0,0 5,-5 -12.5,0 5,5 0,0 z"
         style="fill-rule:evenodd;stroke:#000000;stroke-width:1pt;marker-start:none"
         transform="matrix(0.4,0,0,0.4,4,0)"
         inkscape:connector-curvature="0" />
    </marker>
    <marker
       inkscape:stockid="Arrow1Mstart"
       orient="auto"
       refY="0"
       refX="0"
       id="marker4093"
       style="overflow:visible">
      <path
         id="path4095"
         d="M 0,0 5,-5 -12.5,0 5,5 0,0 z"
         style="fill-rule:evenodd;stroke:#000000;stroke-width:1pt;marker-start:none"
         transform="matrix(0.4,0,0,0.4,4,0)"
         inkscape:connector-curvature="0" />
    </marker>
    <inkscape:path-effect
       effect="spiro"
       id="path-effect3836"
       is_visible="true" />
    <inkscape:path-effect
       effect="spiro"
       id="path-effect3846"
       is_visible="true" />
    <inkscape:path-effect
       effect="spiro"
       id="path-effect3832"
       is_visible="true" />
    <inkscape:path-effect
       effect="spiro"
       id="path-effect3846-1"
       is_visible="true" />
  </defs>
  <sodipodi:namedview
     id="base"
     pagecolor="#ffffff"
     bordercolor="#666666"
     borderopacity="1.0"
     inkscape:pageopacity="0.0"
     inkscape:pageshadow="2"
     inkscape:zoom="3.1937656"
     inkscape:cx="57.809079"
     inkscape:cy="90"
     inkscape:document-units="px"
     inkscape:current-layer="layer1"
     showgrid="true"
     objecttolerance="1"
     gridtolerance="1"
     guidetolerance="1"
     inkscape:window-width="1920"
     inkscape:window-height="1047"
     inkscape:window-x="-11"
     inkscape:window-y="-11"
     inkscape:window-maximized="1">
    <inkscape:grid
       type="xygrid"
       id="grid2985"
       empspacing="5"
       visible="true"
       enabled="true"
       snapvisiblegridlinesonly="true"
       spacingx="10px"
       spacingy="10px" />
  </sodipodi:namedview>
  <metadata
     id="metadata7">
    <rdf:RDF>
      <cc:Work
         rdf:about="">
        <dc:format>image/svg+xml</dc:format>
        <dc:type
           rdf:resource="http://purl.org/dc/dcmitype/StillImage" />
        <dc:title></dc:title>
      </cc:Work>
    </rdf:RDF>
  </metadata>
  <g
     inkscape:label="Layer 1"
     inkscape:groupmode="layer"
     id="layer1"
     transform="translate(0,-872.36218)">
    <path
       style="fill:none;stroke:#000000;stroke-width:1;stroke-linecap:butt;stroke-linejoin:miter;stroke-miterlimit:4;stroke-opacity:1;stroke-dasharray:none;marker-start:url(#Arrow1Mstart)"
       d="m 96.505111,890.17889 0,114.53301"
       id="path3838"
       inkscape:connector-curvature="0" />
    <path
       style="fill:none;stroke:#000000;stroke-width:1;stroke-linecap:butt;stroke-linejoin:miter;stroke-miterlimit:4;stroke-opacity:1;stroke-dasharray:none;marker-start:url(#Arrow1Mstart)"
       d="m 248.54635,1004.6679 -227.289206,0 0,-0.4707"
       id="path3840"
       inkscape:connector-curvature="0" />
    <path
       style="fill:none;stroke:#000000;stroke-width:2;stroke-linecap:butt;stroke-linejoin:miter;stroke-miterlimit:4;stroke-opacity:1;stroke-dasharray:none"
       d="m 47.334872,1003.7816 4.94209,-2.5887 3.29472,-2.11805 c 1.960454,-0.94277 3.921598,-1.8841 5.88343,-2.824 1.803672,-0.86412 3.607926,-1.72703 5.41276,-2.58873 2.24993,-1.0742 4.551501,-2.03558 6.82479,-3.05942 2.7899,-1.25651 5.615467,-2.43383 8.47215,-3.53006 2.872605,-1.10234 5.776674,-2.12269 8.70748,-3.05938 3.198306,-0.92813 6.41547,-1.79127 9.648838,-2.58871 3.58591,-0.88439 7.19257,-1.68814 10.82552,-2.35338 2.42311,-0.4437 4.8572,-0.82567 7.29546,-1.17668 2.97601,-0.42843 5.95848,-0.8108 8.94282,-1.17669 3.37068,-0.41325 6.74394,-0.80549 10.11951,-1.17669 l 5.17742,-0.23533 -0.27211,0"
       id="path3834"
       inkscape:path-effect="#path-effect3836"
       inkscape:original-d="m 47.334872,1003.7816 4.94209,-2.5887 3.29472,-2.11805 5.88343,-2.824 5.41276,-2.58873 c 0,0 4.22163,-1.97477 6.82479,-3.05942 l 8.47215,-3.53006 8.70748,-3.05938 9.648838,-2.58871 10.82552,-2.35338 7.29546,-1.17668 8.94282,-1.17669 10.11951,-1.17669 5.17742,-0.23533 -0.27211,0"
       inkscape:connector-curvature="0"
       sodipodi:nodetypes="cccccsccccccccc" />
    <path
       style="fill:none;stroke:#000000;stroke-width:2;stroke-linecap:butt;stroke-linejoin:miter;stroke-miterlimit:4;stroke-opacity:1;stroke-dasharray:none"
       d="m 141.94051,910.35266 c 9.64833,-0.18581 19.29723,-0.3427 28.9465,-0.47068 8.78554,-0.11652 17.5715,-0.20908 26.35778,-0.23533 11.45349,-0.0342 22.90731,0.0442 34.35926,0.23533"
       id="path3844"
       inkscape:path-effect="#path-effect3846"
       inkscape:original-d="m 141.94051,910.35266 28.9465,-0.47068 26.35778,-0.23533 34.35926,0.23533"
       inkscape:connector-curvature="0" />
    <path
       style="fill:none;stroke:#000000;stroke-width:2;stroke-linecap:butt;stroke-linejoin:miter;stroke-miterlimit:4;stroke-opacity:1;stroke-dasharray:none"
       d="m 143.18155,944.47658 88.01618,0 0,0.23534"
       id="path3848"
       inkscape:connector-curvature="0" />
    <path
       style="fill:none;stroke:#000000;stroke-width:2;stroke-linecap:butt;stroke-linejoin:miter;stroke-miterlimit:4;stroke-opacity:1;stroke-dasharray:none"
       d="m 141.2345,975.30578 90.84023,0 0,0"
       id="path3850"
       inkscape:connector-curvature="0" />
    <path
       style="fill:none;stroke:#000000;stroke-width:2;stroke-linecap:butt;stroke-linejoin:miter;stroke-miterlimit:4;stroke-opacity:1;stroke-dasharray:none"
       d="m 142.71557,910.13769 -2.35337,0.47068 c -2.80075,0.1801 -5.59795,0.41549 -8.38941,0.70601 -1.99191,0.2073 -3.98089,0.44267 -5.96617,0.70601 l -7.06012,2.35337 c -1.9847,0.80799 -3.94687,1.67135 -5.88344,2.58872 -2.0609,0.97627 -4.09233,2.01346 -6.11877,3.05938 -1.66027,0.85693 -3.31745,1.71984 -4.9715,2.58871 l -4.677334,3.29473 c -1.229472,1.12711 -2.485054,2.22575 -3.7654,3.29472 -1.156816,0.96584 -2.333846,1.90746 -3.53006,2.82405 -0.909298,1.20186 -1.851107,2.37912 -2.82405,3.53006 -1.506007,1.78153 -3.086142,3.49946 -4.70675,5.17742 -1.156113,1.19702 -2.333037,2.37395 -3.53006,3.53006 -1.086091,1.57737 -2.184375,3.14635 -3.29472,4.70675 -1.00985,1.41917 -2.029677,2.83124 -3.05938,4.23607 -0.825551,1.4344 -1.688856,2.84708 -2.58872,4.23607 -1.017472,1.57053 -2.081848,3.11106 -3.05938,4.70675 -0.808239,1.31934 -1.556093,2.67475 -2.35338,4.00074 -0.854727,1.42152 -1.765917,2.80866 -2.61077,4.23607 -0.642444,1.08543 -1.246019,2.19329 -1.86064,3.29472 -0.616383,1.10458 -1.243993,2.2029 -1.8827,3.29473 l -1.88269,4.47141 -2.11804,3.53006 c -0.514022,1.42534 -1.063366,2.83794 -1.64736,4.23607 -0.865989,2.07325 -1.808186,4.11466 -2.82405,6.11874 l -3.087256,9.01161 c 1.992838,-2.7782 3.886434,-5.6276 5.675966,-8.54091 1.140908,-1.85737 2.239527,-3.74072 3.29472,-5.64809 1.915693,-2.15953 3.877434,-4.27821 5.88344,-6.35411 2.235717,-2.31362 4.526055,-4.57375 6.82478,-6.82478 2.655643,-2.60054 5.322835,-5.18929 8.00147,-7.76614 2.860848,-2.30874 5.685364,-4.6625 8.47215,-7.06012 1.980359,-1.70381 3.941666,-3.42976 5.88343,-5.17742 2.187841,-1.19273 4.384402,-2.36945 6.58945,-3.53006 2.42169,-1.27463 4.853614,-2.52982 7.295464,-3.7654 2.56572,-0.85781 5.15583,-1.64268 7.76613,-2.35337 2.57047,-0.69984 5.16053,-1.32774 7.76613,-1.8827 l 8.47215,-0.94135 8.70748,-0.23534 5.6481,0.23534 0.47068,-0.23534 -0.23534,0.23534"
       id="path3830"
       inkscape:path-effect="#path-effect3832"
       inkscape:original-d="m 142.71557,910.13769 -2.35337,0.47068 -8.38941,0.70601 -5.96617,0.70601 -7.06012,2.35337 -5.88344,2.58872 -6.11877,3.05938 -4.9715,2.58871 -4.677334,3.29473 -3.7654,3.29472 -3.53006,2.82405 -2.82405,3.53006 -4.70675,5.17742 -3.53006,3.53006 -3.29472,4.70675 -3.05938,4.23607 -2.58872,4.23607 -3.05938,4.70675 -2.35338,4.00074 -2.61077,4.23607 -1.86064,3.29472 -1.8827,3.29473 -1.88269,4.47141 -2.11804,3.53006 -1.64736,4.23607 -2.82405,6.11874 -3.087256,9.01161 5.675966,-8.54091 3.29472,-5.64809 5.88344,-6.35411 6.82478,-6.82478 8.00147,-7.76614 8.47215,-7.06012 5.88343,-5.17742 6.58945,-3.53006 7.295464,-3.7654 7.76613,-2.35337 7.76613,-1.8827 8.47215,-0.94135 8.70748,-0.23534 5.6481,0.23534 0.47068,-0.23534 -0.23534,0.23534"
       inkscape:connector-curvature="0"
       sodipodi:nodetypes="ccccccccccccccccccccccccccccccccccccccccccc" />
    <path
       style="fill:none;stroke:#000000;stroke-width:1;stroke-linecap:butt;stroke-linejoin:miter;stroke-miterlimit:4;stroke-opacity:1;stroke-dasharray:1, 2;stroke-dashoffset:0"
       d="m 96.371692,910.95077 c 4.912078,-0.18579 9.825248,-0.34268 14.739168,-0.47068 4.47292,-0.11651 8.94666,-0.20907 13.42102,-0.23533 5.83254,-0.0342 11.66575,0.0442 17.49526,0.23533"
       id="path3844-7"
       inkscape:path-effect="#path-effect3846-1"
       inkscape:original-d="m 96.371692,910.95077 14.739168,-0.47068 13.42102,-0.23533 17.49526,0.23533"
       inkscape:connector-curvature="0" />
    <g
       transform="translate(29.64589,873.10358)"
       style="font-size:32px;font-style:normal;font-variant:normal;font-weight:normal;font-stretch:normal;line-height:125%;letter-spacing:0px;word-spacing:0px;fill:#000000;fill-opacity:1;stroke:none;font-family:Arial;-inkscape-font-specification:Arial"
       id="flowRoot3848">
      <path
         inkscape:connector-curvature="0"
         d="m 74.583984,30.21147 0,-14.316407 1.894532,0 0,14.316407 z"
         style="font-size:20px"
         id="path4074" />
    </g>
    <g
       transform="translate(4.923676,889.29965)"
       style="font-size:32px;font-style:normal;font-variant:normal;font-weight:normal;font-stretch:normal;line-height:125%;letter-spacing:0px;word-spacing:0px;fill:#000000;fill-opacity:1;stroke:none;font-family:Arial;-inkscape-font-specification:Arial"
       id="flowRoot3848-1">
      <path
         inkscape:connector-curvature="0"
         d="m 74.583984,30.21147 0,-14.316407 1.894532,0 0,14.316407 z"
         style="font-size:20px"
         id="path4077" />
      <path
         inkscape:connector-curvature="0"
         d="m 78.665533,32.199234 1.129899,-0.177737 c 0.06348,0.452808 0.240154,0.799818 0.530036,1.041031 0.289879,0.241215 0.695076,0.361822 1.215594,0.361821 0.524743,10e-7 0.914071,-0.106853 1.167985,-0.320561 0.253905,-0.213706 0.38086,-0.464442 0.380865,-0.752208 -5e-6,-0.258139 -0.112149,-0.461267 -0.336431,-0.609384 -0.156582,-0.101561 -0.54591,-0.230632 -1.167985,-0.387212 -0.837905,-0.211588 -1.418723,-0.394615 -1.742456,-0.54908 -0.323736,-0.154458 -0.569182,-0.368165 -0.736339,-0.641122 -0.167158,-0.272949 -0.250736,-0.574467 -0.250736,-0.904554 0,-0.300455 0.06877,-0.578697 0.206302,-0.834729 0.137534,-0.256019 0.324792,-0.468669 0.561776,-0.637948 0.177735,-0.13118 0.420007,-0.242266 0.726816,-0.333257 0.306806,-0.09098 0.63583,-0.136469 0.987075,-0.136476 0.528975,7e-6 0.993418,0.07618 1.39333,0.228519 0.399903,0.152352 0.695073,0.358654 0.885511,0.618905 0.190426,0.260263 0.321613,0.608331 0.39356,1.044204 l -1.117203,0.152346 c -0.05079,-0.347005 -0.197843,-0.617842 -0.441169,-0.812512 -0.243334,-0.194658 -0.58717,-0.29199 -1.031508,-0.291996 -0.52475,6e-6 -0.899267,0.08676 -1.123551,0.260258 -0.224289,0.17351 -0.336433,0.376638 -0.336431,0.609383 -2e-6,0.148119 0.04655,0.281422 0.13965,0.399908 0.0931,0.122728 0.239097,0.224292 0.437995,0.304692 0.114257,0.04232 0.450687,0.139655 1.009292,0.291996 0.808275,0.215828 1.372166,0.392506 1.691674,0.530037 0.319498,0.137538 0.570233,0.337492 0.752208,0.599862 0.181962,0.262376 0.272947,0.588227 0.272953,0.977553 -6e-6,0.380866 -0.111092,0.739513 -0.333257,1.075943 -0.222177,0.336431 -0.542737,0.596688 -0.961683,0.780772 -0.418956,0.184085 -0.892921,0.276127 -1.421895,0.276127 -0.875992,0 -1.543562,-0.181968 -2.002714,-0.545906 -0.459155,-0.363936 -0.752209,-0.903494 -0.879163,-1.618675 z"
         style="font-size:65.00091553%;baseline-shift:sub"
         id="path4079" />
    </g>
    <g
       transform="translate(159.97424,995.672)"
       style="font-size:32px;font-style:normal;font-variant:normal;font-weight:normal;font-stretch:normal;line-height:125%;letter-spacing:0px;word-spacing:0px;fill:#000000;fill-opacity:1;stroke:none;font-family:Arial;-inkscape-font-specification:Arial"
       id="flowRoot3848-9">
      <path
         inkscape:connector-curvature="0"
         d="m 78.353516,30.21147 -5.546875,-14.316407 2.050781,0 3.720703,10.400391 c 0.299473,0.833336 0.550124,1.614586 0.751953,2.34375 0.221347,-0.781248 0.478509,-1.562497 0.771484,-2.34375 l 3.867188,-10.400391 1.933594,0 -5.605469,14.316407 z"
         style="font-size:20px"
         id="path4055" />
    </g>
    <g
       transform="translate(-49.011041,994.7313)"
       style="font-size:32px;font-style:normal;font-variant:normal;font-weight:normal;font-stretch:normal;line-height:125%;letter-spacing:0px;word-spacing:0px;fill:#000000;fill-opacity:1;stroke:none;font-family:Arial;-inkscape-font-specification:Arial"
       id="flowRoot3848-2">
      <path
         inkscape:connector-curvature="0"
         d="m 73.353516,25.914595 0,-1.767579 5.40039,0 0,1.767579 z"
         style="font-size:20px"
         id="path4061" />
      <path
         inkscape:connector-curvature="0"
         d="m 85.033203,30.21147 -5.546875,-14.316407 2.050781,0 3.720703,10.400391 c 0.299474,0.833336 0.550124,1.614586 0.751954,2.34375 0.221347,-0.781248 0.478508,-1.562497 0.771484,-2.34375 l 3.867187,-10.400391 1.933594,0 -5.605469,14.316407 z"
         style="font-size:20px"
         id="path4063" />
      <path
         inkscape:connector-curvature="0"
         d="m 93.15772,32.199234 1.129899,-0.177737 c 0.06348,0.452808 0.240155,0.799818 0.530037,1.041031 0.289878,0.241215 0.695075,0.361822 1.215593,0.361821 0.524743,10e-7 0.914071,-0.106853 1.167985,-0.320561 0.253906,-0.213706 0.38086,-0.464442 0.380865,-0.752208 -5e-6,-0.258139 -0.112148,-0.461267 -0.33643,-0.609384 -0.156582,-0.101561 -0.54591,-0.230632 -1.167986,-0.387212 -0.837904,-0.211588 -1.418723,-0.394615 -1.742456,-0.54908 -0.323736,-0.154458 -0.569182,-0.368165 -0.736338,-0.641122 -0.167158,-0.272949 -0.250737,-0.574467 -0.250736,-0.904554 -10e-7,-0.300455 0.06877,-0.578697 0.206302,-0.834729 0.137533,-0.256019 0.324791,-0.468669 0.561775,-0.637948 0.177735,-0.13118 0.420007,-0.242266 0.726817,-0.333257 0.306805,-0.09098 0.63583,-0.136469 0.987074,-0.136476 0.528976,7e-6 0.993419,0.07618 1.393331,0.228519 0.399903,0.152352 0.695073,0.358654 0.88551,0.618905 0.190427,0.260263 0.321614,0.608331 0.39356,1.044204 l -1.117203,0.152346 c -0.05079,-0.347005 -0.197842,-0.617842 -0.441168,-0.812512 -0.243334,-0.194658 -0.58717,-0.29199 -1.031509,-0.291996 -0.52475,6e-6 -0.899266,0.08676 -1.123551,0.260258 -0.224289,0.17351 -0.336432,0.376638 -0.33643,0.609383 -2e-6,0.148119 0.04655,0.281422 0.13965,0.399908 0.0931,0.122728 0.239096,0.224292 0.437994,0.304692 0.114257,0.04232 0.450688,0.139655 1.009292,0.291996 0.808276,0.215828 1.372166,0.392506 1.691674,0.530037 0.319498,0.137538 0.570234,0.337492 0.752208,0.599862 0.181963,0.262376 0.272947,0.588227 0.272953,0.977553 -6e-6,0.380866 -0.111091,0.739513 -0.333257,1.075943 -0.222176,0.336431 -0.542737,0.596688 -0.961683,0.780772 -0.418955,0.184085 -0.89292,0.276127 -1.421895,0.276127 -0.875991,0 -1.543562,-0.181968 -2.002714,-0.545906 -0.459154,-0.363936 -0.752208,-0.903494 -0.879163,-1.618675 z"
         style="font-size:65.00091553%;baseline-shift:sub"
         id="path4065" />
      <path
         inkscape:connector-curvature="0"
         d="m 102.60951,33.189482 0.16505,1.009292 c -0.32163,0.06771 -0.60939,0.101564 -0.8633,0.101564 -0.41472,0 -0.73634,-0.06559 -0.96486,-0.19678 -0.22852,-0.131187 -0.38933,-0.303634 -0.48242,-0.517341 -0.0931,-0.213707 -0.13966,-0.663339 -0.13965,-1.348896 l 0,-3.878473 -0.837907,0 0,-0.888684 0.837907,0 0,-1.669457 1.13624,-0.685557 0,2.355014 1.14894,0 0,0.888684 -1.14894,0 0,3.94195 c 0,0.325853 0.0201,0.535328 0.0603,0.628427 0.0402,0.0931 0.10579,0.167158 0.19678,0.222171 0.091,0.05502 0.22111,0.08252 0.39038,0.08252 0.12695,10e-7 0.29411,-0.01481 0.50147,-0.04443 z"
         style="font-size:65.00091553%;baseline-shift:sub"
         id="path4067" />
      <path
         inkscape:connector-curvature="0"
         d="m 103.29507,30.840817 c 0,-1.248386 0.34701,-2.17304 1.04103,-2.773965 0.57976,-0.49935 1.28647,-0.749027 2.12015,-0.749034 0.92676,7e-6 1.68426,0.30364 2.27249,0.910901 0.58822,0.607273 0.88233,1.446233 0.88234,2.516881 -1e-5,0.867528 -0.13014,1.54991 -0.39039,2.047148 -0.26026,0.497241 -0.63901,0.883396 -1.13624,1.158464 -0.49725,0.275069 -1.03998,0.412603 -1.6282,0.412603 -0.9437,0 -1.70649,-0.302575 -2.28836,-0.907727 -0.58188,-0.605151 -0.87282,-1.476907 -0.87282,-2.615271 z m 1.17433,0 c 0,0.863296 0.18832,1.509707 0.56495,1.939236 0.37663,0.429532 0.8506,0.644297 1.4219,0.644296 0.56706,10e-7 1.03891,-0.215822 1.41555,-0.64747 0.37662,-0.431645 0.56494,-1.089694 0.56494,-1.974149 0,-0.833666 -0.18937,-1.465266 -0.56812,-1.894802 -0.37875,-0.429525 -0.84954,-0.64429 -1.41237,-0.644296 -0.5713,6e-6 -1.04527,0.213713 -1.4219,0.641122 -0.37663,0.42742 -0.56495,1.072773 -0.56495,1.936063 z"
         style="font-size:65.00091553%;baseline-shift:sub"
         id="path4069" />
      <path
         inkscape:connector-curvature="0"
         d="m 110.9568,36.795002 0,-9.324838 1.04103,0 0,0.875989 c 0.24544,-0.342773 0.52263,-0.599856 0.83155,-0.771252 0.30892,-0.171382 0.68344,-0.257076 1.12356,-0.257083 0.57552,7e-6 1.08334,0.148121 1.52345,0.444342 0.44011,0.296234 0.77231,0.714127 0.9966,1.25368 0.22428,0.539563 0.33642,1.13096 0.33643,1.774195 -1e-5,0.689791 -0.12379,1.310811 -0.37134,1.863063 -0.24757,0.552255 -0.60728,0.975437 -1.07912,1.269549 -0.47185,0.294112 -0.96803,0.441168 -1.48855,0.441168 -0.38086,0 -0.72258,-0.0804 -1.02516,-0.241214 -0.30257,-0.160809 -0.55119,-0.363937 -0.74586,-0.609383 l 0,3.281784 z m 1.03468,-5.916099 c 0,0.867528 0.17562,1.508649 0.52686,1.923367 0.35124,0.41472 0.77654,0.62208 1.2759,0.622079 0.50782,10e-7 0.94264,-0.214764 1.30446,-0.644296 0.36182,-0.429529 0.54273,-1.094984 0.54274,-1.996366 -1e-5,-0.859057 -0.17669,-1.502295 -0.53004,-1.929715 -0.35336,-0.427409 -0.77549,-0.641116 -1.26638,-0.641122 -0.48666,6e-6 -0.91725,0.227467 -1.29176,0.682383 -0.37452,0.454926 -0.56178,1.116149 -0.56178,1.98367 z"
         style="font-size:65.00091553%;baseline-shift:sub"
         id="path4071" />
    </g>
    <g
       transform="translate(166.97852,920.26936)"
       style="font-size:32px;font-style:normal;font-variant:normal;font-weight:normal;font-stretch:normal;line-height:125%;letter-spacing:0px;word-spacing:0px;fill:#000000;fill-opacity:1;stroke:none;font-family:Arial;-inkscape-font-specification:Arial"
       id="flowRoot3848-9-2">
      <path
         inkscape:connector-curvature="0"
         d="m 75.658203,30.21147 -1.630859,0 0,-14.316407 1.757812,0 0,5.107422 c 0.742184,-0.930979 1.689449,-1.396474 2.841797,-1.396484 0.638014,10e-6 1.241855,0.128591 1.811524,0.385742 0.569653,0.257171 1.038402,0.618499 1.40625,1.083984 0.367829,0.465504 0.655914,1.027027 0.864257,1.684571 0.208324,0.657559 0.31249,1.360683 0.3125,2.109375 -1e-5,1.777347 -0.439463,3.151044 -1.318359,4.121093 -0.878914,0.970053 -1.933601,1.455078 -3.164063,1.455079 -1.223962,-10e-7 -2.184248,-0.511068 -2.880859,-1.533204 z m -0.01953,-5.263672 c -3e-6,1.243493 0.169268,2.14193 0.507812,2.695312 0.553382,0.90495 1.302079,1.357423 2.246094,1.357422 0.768223,1e-6 1.432285,-0.333657 1.992188,-1.000977 0.559887,-0.667314 0.839835,-1.66178 0.839843,-2.983398 -8e-6,-1.35416 -0.268563,-2.353508 -0.805664,-2.998047 -0.537116,-0.644522 -1.18653,-0.966788 -1.948242,-0.966797 -0.768234,9e-6 -1.432296,0.333668 -1.992187,1.000977 -0.559899,0.667325 -0.839847,1.632493 -0.839844,2.895508 z"
         style="font-size:20px"
         id="path4049" />
    </g>
    <g
       transform="translate(167.45878,951.66345)"
       style="font-size:32px;font-style:normal;font-variant:normal;font-weight:normal;font-stretch:normal;line-height:125%;letter-spacing:0px;word-spacing:0px;fill:#000000;fill-opacity:1;stroke:none;font-family:Arial;-inkscape-font-specification:Arial"
       id="flowRoot3848-9-4">
      <path
         inkscape:connector-curvature="0"
         d="m 80.804687,26.412641 1.728516,0.22461 c -0.188812,1.191408 -0.67221,2.124025 -1.450195,2.797851 -0.778003,0.673829 -1.733405,1.010742 -2.866211,1.010743 -1.419275,-10e-7 -2.560224,-0.463867 -3.422852,-1.391602 C 73.931314,28.126511 73.499999,26.796759 73.5,25.064985 c -10e-7,-1.119785 0.185546,-2.099602 0.556641,-2.939453 0.371092,-0.839835 0.93587,-1.469717 1.694336,-1.889648 0.758459,-0.419912 1.583654,-0.629873 2.475585,-0.629883 1.126296,10e-6 2.047519,0.284841 2.763672,0.854492 0.716137,0.569671 1.175121,1.378589 1.376953,2.426758 l -1.708984,0.263672 c -0.162768,-0.696607 -0.450854,-1.220695 -0.864258,-1.572266 -0.413418,-0.351553 -0.913092,-0.527335 -1.499023,-0.527344 -0.885421,9e-6 -1.604822,0.317392 -2.158203,0.952149 -0.553389,0.634773 -0.830081,1.639004 -0.830078,3.012695 -3e-6,1.393233 0.266924,2.405602 0.800781,3.037109 0.53385,0.631512 1.230464,0.947267 2.089844,0.947266 0.690098,1e-6 1.266269,-0.211587 1.728515,-0.634766 0.462232,-0.423174 0.755201,-1.074215 0.878906,-1.953125 z"
         style="font-size:20px"
         id="path4052" />
    </g>
    <g
       transform="translate(166.81312,883.74085)"
       style="font-size:32px;font-style:normal;font-variant:normal;font-weight:normal;font-stretch:normal;line-height:125%;letter-spacing:0px;word-spacing:0px;fill:#000000;fill-opacity:1;stroke:none;font-family:Arial;-inkscape-font-specification:Arial"
       id="flowRoot3848-9-21">
      <path
         inkscape:connector-curvature="0"
         d="m 80.804687,28.932173 c -0.651049,0.553386 -1.277676,0.94401 -1.879882,1.171875 -0.602219,0.227864 -1.248378,0.341796 -1.938477,0.341797 -1.139326,-10e-7 -2.014976,-0.278321 -2.626953,-0.834961 -0.61198,-0.55664 -0.917969,-1.267902 -0.917969,-2.133789 0,-0.50781 0.115559,-0.971676 0.34668,-1.391602 0.231118,-0.419917 0.533853,-0.756831 0.908203,-1.010742 0.374347,-0.253901 0.795896,-0.445958 1.264648,-0.576172 0.345049,-0.09114 0.865882,-0.179031 1.5625,-0.263672 1.419265,-0.169265 2.464186,-0.371087 3.134766,-0.605469 0.0065,-0.240878 0.0098,-0.393873 0.0098,-0.458984 -8e-6,-0.716138 -0.166024,-1.220695 -0.498047,-1.513672 -0.449226,-0.397126 -1.116543,-0.595694 -2.001953,-0.595703 -0.826828,9e-6 -1.437179,0.144866 -1.831055,0.43457 -0.393883,0.289722 -0.685224,0.802417 -0.874023,1.538086 l -1.71875,-0.234375 c 0.156248,-0.735669 0.41341,-1.329744 0.771484,-1.782226 0.358071,-0.452465 0.875648,-0.800772 1.552734,-1.044922 0.67708,-0.24413 1.461584,-0.366201 2.353516,-0.366211 0.88541,10e-6 1.60481,0.104177 2.158203,0.3125 0.553377,0.208343 0.960278,0.470387 1.220703,0.786133 0.260408,0.315764 0.442699,0.714527 0.546875,1.196289 0.05858,0.299487 0.08788,0.839851 0.08789,1.621093 l 0,2.34375 c -1e-5,1.634118 0.03742,2.667645 0.112305,3.100586 0.07486,0.432944 0.222971,0.847983 0.444335,1.245118 l -1.835937,0 c -0.1823,-0.364583 -0.299487,-0.791015 -0.351563,-1.279297 z m -0.146484,-3.925782 c -0.638028,0.260422 -1.595058,0.481776 -2.871094,0.664063 -0.72266,0.104171 -1.233727,0.221358 -1.533203,0.351562 -0.299482,0.130213 -0.530602,0.320642 -0.693359,0.571289 -0.162763,0.250655 -0.244143,0.528975 -0.244141,0.834961 -2e-6,0.468753 0.177406,0.859377 0.532227,1.171875 0.354814,0.312502 0.874019,0.468752 1.557617,0.46875 0.677078,2e-6 1.279291,-0.14811 1.806641,-0.444336 0.527336,-0.296222 0.914706,-0.701495 1.162109,-1.21582 0.188794,-0.397132 0.283195,-0.983069 0.283203,-1.757812 z"
         style="font-size:20px"
         id="path4046" />
    </g>
    <g
       transform="translate(18.921871,995.25596)"
       style="font-size:32px;font-style:normal;font-variant:normal;font-weight:normal;font-stretch:normal;line-height:125%;letter-spacing:0px;word-spacing:0px;fill:#000000;fill-opacity:1;stroke:none;font-family:Arial;-inkscape-font-specification:Arial"
       id="flowRoot3848-7">
      <path
         inkscape:connector-curvature="0"
         d="m 73.548828,23.150923 c -10e-7,-1.6927 0.174153,-3.055003 0.522461,-4.086914 0.348306,-1.031889 0.865883,-1.827787 1.552734,-2.387696 0.686846,-0.559881 1.551103,-0.839829 2.592774,-0.839843 0.768223,1.4e-5 1.44205,0.154636 2.021484,0.463867 0.579419,0.309258 1.057934,0.755221 1.435547,1.33789 0.377595,0.582695 0.673819,1.292329 0.888672,2.128907 0.214834,0.836598 0.322255,1.964526 0.322266,3.383789 -1.1e-5,1.679693 -0.172536,3.035485 -0.517579,4.067382 -0.345061,1.031903 -0.861011,1.829429 -1.547851,2.392579 -0.686856,0.563151 -1.554369,0.844726 -2.602539,0.844726 -1.380213,0 -2.464196,-0.494791 -3.251953,-1.484375 -0.944012,-1.191404 -1.416017,-3.131506 -1.416016,-5.820312 z m 1.806641,0 c -3e-6,2.350265 0.275062,3.914391 0.825195,4.692382 0.550126,0.777997 1.228837,1.166994 2.036133,1.166993 0.807285,1e-6 1.485995,-0.390624 2.036133,-1.171875 0.550122,-0.781247 0.825187,-2.343746 0.825195,-4.6875 -8e-6,-2.356762 -0.275073,-3.922515 -0.825195,-4.697266 -0.550138,-0.774727 -1.235358,-1.162096 -2.055664,-1.162109 -0.807297,1.3e-5 -1.451827,0.341809 -1.933594,1.02539 -0.605472,0.872407 -0.908206,2.483734 -0.908203,4.833985 z"
         style="font-size:20px"
         id="path4058" />
    </g>
    <path
       transform="matrix(0.75,0,0,0.75,-101.05614,839.5703)"
       sodipodi:type="arc"
       style="fill:#000000;fill-opacity:1;fill-rule:evenodd;stroke:none"
       id="path3894-3-9"
       sodipodi:cx="263.62671"
       sodipodi:cy="95.713585"
       sodipodi:rx="4.4481449"
       sodipodi:ry="4.4481449"
       d="m 268.07485,95.713585 a 4.4481449,4.4481449 0 1 1 -8.89629,0 4.4481449,4.4481449 0 1 1 8.89629,0 z" />
    <path
       transform="matrix(0.75,0,0,0.75,-150.44042,933.29738)"
       sodipodi:type="arc"
       style="fill:#000000;fill-opacity:1;fill-rule:evenodd;stroke:none"
       id="path3894-3-9-1"
       sodipodi:cx="263.62671"
       sodipodi:cy="95.713585"
       sodipodi:rx="4.4481449"
       sodipodi:ry="4.4481449"
       d="m 268.07485,95.713585 a 4.4481449,4.4481449 0 1 1 -8.89629,0 4.4481449,4.4481449 0 1 1 8.89629,0 z" />
  </g>
</svg>
